<svg xmlns="http://www.w3.org/2000/svg" width="400" height="300" fill="none" viewBox="0 0 400 300">
  <g class="Guy Multitasking">
    <path fill="#F6D4A0" d="M333.43 229c12-8.54 18.82-15.315 18.93-17.97.565-13.5-13.86 3.17-31.5-14.63-33.765-34.05 62.47-98.11-59.09-98.11C174.55 98.29 96.9 181.8 60 229h273.43Z" class="shade10"/>
    <path fill="#F6D4A0" d="M346.545 191.24c3.471 0 6.285-1.343 6.285-3s-2.814-3-6.285-3-6.285 1.343-6.285 3 2.814 3 6.285 3Z" class="shade10"/>
    <path fill="#A6C2EA" d="M102.82 148.81a32.137 32.137 0 0 1-29.694-19.841 32.137 32.137 0 0 1 6.967-35.025 32.14 32.14 0 0 1 54.867 22.726 32.18 32.18 0 0 1-32.14 32.14Zm0-63.78a31.64 31.64 0 1 0 31.64 31.64 31.676 31.676 0 0 0-31.64-31.64Z" class="shade50"/>
    <path fill="#F6D4A0" d="M346.83 195.335a23.502 23.502 0 0 1-21.711-14.507 23.496 23.496 0 0 1 5.094-25.61 23.496 23.496 0 0 1 36.157 3.561 23.502 23.502 0 0 1 3.96 13.056 23.537 23.537 0 0 1-23.5 23.5Zm0-46.525a23 23 0 1 0 23 23 23.038 23.038 0 0 0-23-23Zm-226.985-41.76h-34.05v19.24h34.05v-19.24Z" class="shade10"/>
    <path fill="#fff" d="M118.125 124.05H87.5v-15.88h30.61l.015 15.88Zm-30.11-.5h29.61v-14.88H88l.015 14.88Z" class="shade0"/>
    <path fill="#F6D4A0" d="M102.99 117.81h-.34l-16.855-10.76h34.045l-16.85 10.76Z" class="shade10"/>
    <path fill="#fff" d="M103.06 118.06h-.5L84.94 106.8h35.76l-17.64 11.26Zm-.34-.5h.195L119 107.3H86.65l16.07 10.26Z" class="shade0"/>
    <path fill="#A6C2EA" d="M266.46 79.56a26.233 26.233 0 0 1-25.736-31.352 26.229 26.229 0 0 1 20.614-20.614A26.235 26.235 0 0 1 292.69 53.33a26.26 26.26 0 0 1-26.23 26.23Zm0-51.965a25.736 25.736 0 1 0 25.73 25.735 25.761 25.761 0 0 0-25.73-25.735Z" class="shade50"/>
    <path fill="#ECA3B5" d="M358.5 95.82a26.236 26.236 0 1 1 26.23-26.235A26.26 26.26 0 0 1 358.5 95.82Zm0-51.965a25.735 25.735 0 1 0 25.73 25.73 25.763 25.763 0 0 0-25.73-25.73Zm-173.3 20.2c6.889 0 12.475-5.585 12.475-12.475s-5.586-12.475-12.475-12.475c-6.89 0-12.475 5.585-12.475 12.475s5.585 12.475 12.475 12.475Z" class="shade40"/>
    <path fill="#fff" d="M178.65 59.16c-1.307-1.543-1.96-3.662-1.96-6.355a14.919 14.919 0 0 1 1.03-5.67 8.915 8.915 0 0 1 3.095-4 8.44 8.44 0 0 1 5-1.47c2.44 0 4.198.667 5.275 2s1.613 3.1 1.61 5.3a11.181 11.181 0 0 1-.77 4.5 5.728 5.728 0 0 1-1.87 2.5 3.85 3.85 0 0 1-2.19.755c-1.34 0-2.055-.545-2.155-1.635h-.05a2.633 2.633 0 0 1-.94 1.125c-.419.25-.902.375-1.39.36a2.055 2.055 0 0 1-1.72-.78 3.502 3.502 0 0 1-.61-2.19c0-.2 0-.5.05-.845l.275-2.5c.28-2.443 1.27-3.665 2.97-3.665a2.002 2.002 0 0 1 2.035 1.5h.05l.22-1.415h2.305l-.72 6.915-.025.395c0 .315.165.47.5.47.643 0 1.135-.565 1.475-1.695.349-1.22.517-2.486.5-3.755a5.623 5.623 0 0 0-1.215-3.825c-.81-.937-2.048-1.403-3.715-1.4-2.18 0-3.847.808-5 2.425-1.153 1.617-1.723 3.858-1.71 6.725 0 2.047.483 3.637 1.45 4.77.967 1.133 2.407 1.698 4.32 1.695a9.158 9.158 0 0 0 2.69-.37 8 8 0 0 0 2.44-1.315l-.2 2.38a7.806 7.806 0 0 1-2.375 1.075 11 11 0 0 1-2.7.31c-2.683.017-4.675-.755-5.975-2.315Zm7.28-6.5.25-2.35.025-.3a1.046 1.046 0 0 0-.3-.815 1.1 1.1 0 0 0-.79-.275 1.274 1.274 0 0 0-.965.36c-.274.341-.43.762-.445 1.2l-.225 2.105v.375c-.028.341.073.68.285.95a1.033 1.033 0 0 0 .805.31c.785.02 1.245-.5 1.36-1.54v-.02Z" class="shade0"/>
    <path fill="#A6C2EA" d="M256.465 60.125h28.71V44.47h-32.27v14.485l-2.435 7.88 5.995-6.71Z" class="shade50"/>
    <path fill="#fff" d="M279.705 56.58c-.83 0-1.31-.67-1.78-1.325-.635-.89-1.36-1.9-3.085-2a7.654 7.654 0 0 0-4.395 1.14c-.715.39-1.275.695-1.785.39a1.046 1.046 0 0 1-.385-.88 22.28 22.28 0 0 1-2.315 1.325c-.305.155-1.235.62-1.7.08a.902.902 0 0 1-.2-.53 4.977 4.977 0 0 1-1.335.57 2.035 2.035 0 0 1-2.335-.765 3.805 3.805 0 0 1-.315-2.47 20.11 20.11 0 0 1-2.435 1.37l-.21-.455a21.016 21.016 0 0 0 2.76-1.6 13.54 13.54 0 0 1 1.84-4.6c.45-.635.84-.905 1.19-.82.455.11.535.75.565.96.245 1.855-1.465 3.56-3.145 4.76-.195 1.085-.185 2.05.165 2.575a1.57 1.57 0 0 0 1.8.56 4.572 4.572 0 0 0 1.5-.695 10.179 10.179 0 0 1 1.54-3.35c.68-1 1-1 1.205-.935.335.125.28.595.26.775-.16 1.425-1.275 2.87-2.545 3.79-.025.285 0 .5.11.56.11.06.325.145 1.075-.225a22.98 22.98 0 0 0 2.55-1.5 8.16 8.16 0 0 1 .72-2.45c.66-1.37 1.5-2 2.245-1.705a.898.898 0 0 1 .65.805c.05.88-1.21 2.275-3.135 3.62 0 .42.03.715.15.785.25.15.63-.04 1.285-.4a8.272 8.272 0 0 1 4.665-1.2c1.96.1 2.795 1.265 3.46 2.2.665.935 1.045 1.45 2.165.89l.225.45c-.313.18-.665.282-1.025.3Zm-13.09-6.145a9.143 9.143 0 0 0-1.88 3.25 5.364 5.364 0 0 0 1.87-3.075c.005-.075.01-.11.01-.175Zm4.265-.845c-.65 0-1.24 1.115-1.415 1.5a7.38 7.38 0 0 0-.605 1.83c1.625-1.19 2.58-2.32 2.545-2.925 0-.115-.045-.26-.325-.36a.56.56 0 0 0-.2-.045Zm-7.79-3.09c-.065 0-.29.11-.65.625A12.671 12.671 0 0 0 260.8 51c1.41-1.085 2.68-2.5 2.5-3.95-.065-.5-.19-.54-.19-.54l-.02-.01Z" class="shade0"/>
    <path fill="#F6D4A0" d="M337.825 108.045a6.005 6.005 0 1 0 0-12.01 6.005 6.005 0 0 0 0 12.01Z" class="shade10"/>
    <path fill="#A6C2EA" d="M72.195 70.34a6.005 6.005 0 1 0 0-12.01 6.005 6.005 0 0 0 0 12.01Z" class="shade50"/>
    <path fill="#F6D4A0" d="M126.785 50.705a2.69 2.69 0 1 0 0-5.38 2.69 2.69 0 0 0 0 5.38Zm115.93-42.77a2.69 2.69 0 1 0 0-5.38 2.69 2.69 0 0 0 0 5.38Zm-82.54 115.555a2.69 2.69 0 1 0 0-5.38 2.69 2.69 0 0 0 0 5.38Z" class="shade10"/>
    <path fill="#A6C2EA" d="M346.255 189.275c-3.72-6.28-7.35-12.045-10.59-18a102.772 102.772 0 0 1-5.5-12.25c-3.155-8.25 2.14-18.85 12.275-21.245a17.126 17.126 0 0 1 13.394 2.396 17.145 17.145 0 0 1 7.421 11.404 16.356 16.356 0 0 1-.95 8.45c-3.805 10.335-9.805 19.495-16.05 29.245ZM355.4 154a8.998 8.998 0 0 0-15.364-6.364 9.003 9.003 0 0 0 1.364 13.847 9 9 0 0 0 5 1.517 9.073 9.073 0 0 0 9-9Z" class="shade50"/>
    <path fill="#fff" d="M355.32 155.17a9.002 9.002 0 0 1-15.722 4.624 9 9 0 0 1 6.857-14.884 9.04 9.04 0 0 1 6.746 3.131 9.056 9.056 0 0 1 2.119 7.129Z" class="shade0"/>
    <path fill="#F6D4A0" d="M355.465 221.69v-.5c.69 0 33.18-.155 39.715-16.725.77-1.95.76-3.44-.025-4.565-2.345-3.355-11.5-3.12-22.095-2.85-17.5.45-39.335 1-46.53-13.2l.45-.225c7.05 13.925 28.685 13.37 46.065 12.925 11.185-.285 20-.5 22.5 3.06.89 1.275.915 2.92.08 5.04-6.625 16.88-39.455 17.04-40.16 17.04Z" class="shade10"/>
    <path fill="#ECA3B5" d="M363.174 85.945a10.832 10.832 0 0 1-3.039-.4 18.967 18.967 0 0 1-4.355-1.845 29.857 29.857 0 0 1-6.101-4.57 32.915 32.915 0 0 1-3.639-4.1 24.205 24.205 0 0 1-3.375-6 12.08 12.08 0 0 1-.84-4.16 5.665 5.665 0 0 1 .59-2.685c.202-.4.465-.766.78-1.085l3.065-3.06c.5-.5.839-.5 1.359 0 1.857 1.85 3.709 3.702 5.555 5.555.073.068.139.143.195.225a.675.675 0 0 1-.03.88c-.07.085-.15.16-.225.24-.88.88-1.761 1.758-2.644 2.635a.415.415 0 0 0-.115.5 16.992 16.992 0 0 0 2.444 4.15 18.5 18.5 0 0 0 2.336 2.47 13.352 13.352 0 0 0 4.5 2.735.498.498 0 0 0 .579-.125c.875-.9 1.77-1.78 2.655-2.665.06-.055.116-.115.171-.17a.708.708 0 0 1 .512-.216.714.714 0 0 1 .513.216c.06.05.114.105.174.165l5.5 5.5c.535.535.535.85 0 1.385-1.03 1.035-2.064 2.075-3.104 3.105a4.434 4.434 0 0 1-2.366 1.185c-.435.075-.87.11-1.095.135Z" class="shade40"/>
    <path fill="#28192D" d="M319.325 158.39a.23.23 0 0 1-.14-.045.252.252 0 0 1-.07-.345c1.57-2.335 2.565-4.795 3.615-7.405.45-1.11.915-2.255 1.425-3.39a.254.254 0 0 1 .14-.12.254.254 0 0 1 .184.009.247.247 0 0 1 .128.132.244.244 0 0 1 .003.184c-.5 1.125-.97 2.265-1.415 3.37-1.065 2.635-2.065 5.12-3.665 7.5a.248.248 0 0 1-.205.11Zm-234 37.225a.243.243 0 0 1-.17-.065.251.251 0 0 1-.055-.274.251.251 0 0 1 .055-.081c19.53-20.73 45.325-43.305 70.78-61.935a326.48 326.48 0 0 1 14.61-10.135 193.992 193.992 0 0 1 55.155-24.78 187 187 0 0 1 60.03-6.275c5.26.31 10.33.81 15.5 1.54a79.124 79.124 0 0 1 15.635 3.75 25.149 25.149 0 0 1 9.755 6.795c6.915 9.05 4.29 20.31 1.97 30.245-.2.853-.395 1.695-.585 2.525a.25.25 0 0 1-.39.15.227.227 0 0 1-.067-.071.248.248 0 0 1-.033-.189c.19-.83.39-1.675.585-2.53 2.295-9.825 4.895-20.965-1.865-29.815a24.73 24.73 0 0 0-9.545-6.645 78.784 78.784 0 0 0-15.53-3.72c-5.15-.725-10.2-1.23-15.45-1.535a186.536 186.536 0 0 0-59.87 6.255 193.546 193.546 0 0 0-55 24.72c-4.735 3.09-9.645 6.5-14.585 10.115C130.79 152.28 105 174.83 85.5 195.54a.24.24 0 0 1-.175.075Z" class="shade90"/>
    <path fill="#fff" d="m128.294 169.994-22.003 21.645.351.357 22.003-21.645-.351-.357Zm18.755 12.592L111.4 192.95l.14.48 35.649-10.363-.14-.481Zm-9.083-8.727-11.884 7.998.279.415 11.885-7.998-.28-.415Zm230.749-90.174C356.5 82.28 350.145 68 350.085 67.875l.46-.2c.06.14 6.275 14.14 18.23 15.5l-.06.51Z" class="shade0"/>
    <path fill="#ECA3B5" d="M358 61.195c4.675.07 8.755 4.895 8.09 9.5l-.125.03a13.833 13.833 0 0 0-8-9.43l.045-.115-.01.015ZM359.405 56c5.595.235 10.25 5 11.775 10.17a12.4 12.4 0 0 1 .43 5.39h-.13c-.695-6.85-5.375-13.455-12.115-15.445l.04-.125V56Z" class="shade40"/>
    <path fill="#ECA3B5" d="M359.055 50.375c8.33-.12 15.665 6.64 17.835 14.44a17.07 17.07 0 0 1 .395 8.025h-.125c.22-7.86-4.135-15.585-10.82-19.65a20.09 20.09 0 0 0-7.305-2.69v-.13l.02.005Z" class="shade40"/>
    <path fill="#fff" d="M192.22 228.96c-.395-6.3-4.295-22.57-4.295-22.57l-17.06 6.08-1.18 7.215c8.12 1 15.155 6.25 22.2 10.76.232-.46.347-.97.335-1.485Z" class="shade0"/>
    <path fill="#28192D" d="M191.885 230.695a.28.28 0 0 1-.135-.04l-2.75-1.79c-6.065-3.965-12.335-8.065-19.34-8.93a.23.23 0 0 1-.095-.033.241.241 0 0 1-.075-.067.236.236 0 0 1-.044-.09.242.242 0 0 1-.006-.1l1.185-7.215a.26.26 0 0 1 .056-.12.258.258 0 0 1 .109-.075l17.055-6.08a.29.29 0 0 1 .205 0 .28.28 0 0 1 .125.165c.04.16 3.905 16.36 4.3 22.61a3.371 3.371 0 0 1-.355 1.605.247.247 0 0 1-.064.083.243.243 0 0 1-.091.052l-.08.025ZM169.97 219.47c7 .945 13.26 5.03 19.3 8.975.833.55 1.667 1.093 2.5 1.63.146-.348.214-.723.2-1.1-.36-5.76-3.715-20.1-4.225-22.255l-16.655 5.935-1.12 6.815ZM190 129.365s-2.06-.5-5.25-5.91-4.08-9.285-1.08-12.85c3-3.565 19.885-7.035 23.73-6.375 1.059.14 2.05.602 2.838 1.323a5.218 5.218 0 0 1 1.572 2.707s5.19 10.32 3.485 17.24c-1.705 6.92-1.125 13.6-6.94 14.82-5.815 1.22-16.04-20.54-16.04-20.54" class="shade90"/>
    <path fill="#A6C2EA" d="M193.8 159a6.754 6.754 0 0 0-5.245 2.12c-3.685 3.905-10.9 12.615-14.41 24.055a117.774 117.774 0 0 0-4.825 30.7s16.685 7.28 24.5 2.95l7.775-4.325L193.8 159Z" class="shade50"/>
    <path fill="#28192D" d="M187.35 220.455a37.015 37.015 0 0 1-8.775-1.245 67.224 67.224 0 0 1-9.355-3.11.246.246 0 0 1-.15-.23c0-.15.055-15.175 4.835-30.775 3.5-11.365 10.56-20 14.47-24.15a7.002 7.002 0 0 1 5.435-2.2.245.245 0 0 1 .235.215l7.795 55.5a.248.248 0 0 1-.125.255l-7.795 4.33c-1.695.955-3.895 1.41-6.57 1.41Zm-17.78-4.75c1.685.71 16.9 6.9 24.11 2.9l7.645-4.25-7.745-55.12a6.53 6.53 0 0 0-4.845 2.05c-3.875 4.11-10.895 12.69-14.35 23.955-4.49 14.65-4.795 28.785-4.815 30.465Z" class="shade90"/>
    <path fill="#A6C2EA" d="M186.95 162.785c2.915-8.07 30.81-16.925 52.575-15.35 21.765 1.575 18.945 86.5 18.945 86.5l-65.045-1.855s-7.925-65.325-6.475-69.295Z" class="shade50"/>
    <path fill="#28192D" d="m258.47 234.185-65.045-1.855a.254.254 0 0 1-.24-.22c-.315-2.585-7.72-63.375-6.575-66.93a.259.259 0 0 1 .126-.144.249.249 0 0 1 .349.299c-1.08 3.35 6.075 62.45 6.57 66.5l64.58 1.84c.14-5.08 2-84.5-18.725-86-16.615-1.175-42.55 4.325-51.08 13.19a.253.253 0 0 1-.177.074.26.26 0 0 1-.096-.019.269.269 0 0 1-.082-.055.255.255 0 0 1 0-.355c8.625-9 34.75-14.54 51.5-13.33 9.165.66 15.175 15.5 17.865 44.06 2 21.2 1.32 42.5 1.31 42.69a.242.242 0 0 1-.079.193.246.246 0 0 1-.201.062Z" class="shade90"/>
    <path fill="#fff" d="M265.13 268.6c-1.61 7.5-3.13 14.555-15.525 18.5-.745.24-1.5.465-2.26.675 8.775.13 17.265.07 25.295-.225 3.285-3.19 5.65-7 8.13-11 .745-1.21 1.5-2.455 2.335-3.715 3.23-4.305 6.145-7.655 10.71-11.085 3.04-2.17 5.56-3.43 8.17-4.08 7.945-3.22 16.33-4.1 24.735-4.225-.785-10.76-6.595-20.465-8.065-22.77-6.445 1.85-19.385 6.21-37.09 15.345-13.025 6.735-14.835 15.15-16.435 22.58Z" class="shade0"/>
    <path fill="#fff" d="M294.11 262.165c-4.5 3.385-7.405 6.71-10.595 10.965-.805 1.24-1.575 2.5-2.32 3.695-2.395 3.87-4.69 7.57-7.81 10.715l1.78-.07c3.95-.17 7.61-.465 11-.87 7.14-8.34 16.135-14.175 26.095-16.8a50.08 50.08 0 0 1 11.685-1.905c2.38-4.5 3.065-9.3 2.795-13.94-8.365.125-16.71 1-24.61 4.195-2.57.65-5.035 1.885-8.02 4.015Zm-73.05 3.215a18.567 18.567 0 0 1-7.815 1.805c-7.66 0-14.215-5.235-21.055-10.705l-1.275-1c-1.79.73-4 1.5-6.425 2.26a47.427 47.427 0 0 1 8.25 8.5c7.38 9.705 18.44 14.5 29.59 12.765a28.303 28.303 0 0 0 13.74-6.051 28.31 28.31 0 0 0 8.71-12.229c7.415-20.655 43.425-30.22 43.79-30.315l.125.5c-.36.095-36.12 9.59-43.445 30a28.8 28.8 0 0 1-22.845 18.605c-1.51.229-3.034.344-4.56.345-9.725 0-19-4.775-25.5-13.305a46.418 46.418 0 0 0-8.435-8.595c-3.5 1.09-7.285 2.155-10.605 3.05 6.605 3.24 11.94 7.6 15.3 12.57 3.475 5.145 10.5 9.7 19.265 12.635 12.755.815 25.44 1.385 37.605 1.605 1.345-.33 2.675-.7 4-1.12 12.115-3.875 13.54-10.5 15.185-18.15 1.62-7.535 3.46-16.075 16.695-22.91 17.605-9.085 30.5-13.455 37.035-15.34l-.055-.08 2.625-.655h-64.23l-7.455 2.725c-1.905 5.515-9.62 24.565-28.215 33.09ZM94 249.395c-1.365 3.21-2 5.845-2 8.035a4737.86 4737.86 0 0 0 32.745-10.28 9.365 9.365 0 0 1-4.745-3.28c-1.565-2.12-2.185-5.1-1.795-8.625a21.33 21.33 0 0 1 1.065-4.72l.47.175c-.03.08-2.95 8 .66 12.87a9.176 9.176 0 0 0 5.195 3.31c5.595-1.785 11-3.5 15.955-5.145a9.371 9.371 0 0 1-2.905-2.41c-3-3.835-1.135-8.75-1.12-8.8l.47.18c0 .045-1.77 4.71 1.045 8.315a9.135 9.135 0 0 0 3.165 2.5c3.36-1.1 6.5-2.145 9.415-3.12a2.426 2.426 0 0 1-.685-.755 55.687 55.687 0 0 1-3.9-8.135H108.5c-.875.83-10.26 9.92-14.5 19.885Z" class="shade0"/>
    <path fill="#fff" d="M87.545 234.97c-.2 3.08-2 18.575-18 29.405 6.5-2 14.045-4.32 22-6.79-.075-2.295.59-5.04 2-8.385 3.935-9.24 12.235-17.72 14.245-19.69H97.725c-.375.05-9.92 1.43-10.18 5.46Zm64.7 3.225c9.575-3.23 16.13-5.64 17.18-6.5 4.745-3.895 20.295 1.825 20.295 1.825l5.28-2.905 4.5-.75 34-.355h-85.915a56.672 56.672 0 0 0 3.8 7.885c.205.342.503.62.86.8Zm134.67 48.305c21.425-2.675 32.085-9.79 36.76-18.1a49.45 49.45 0 0 0-11.27 1.875c-9.7 2.56-18.475 8.195-25.49 16.225ZM145.5 280.615c2.76.303 5.555.605 8.385.905a15.568 15.568 0 0 0-8.385-.905Zm-64.035-8.225c4.175.61 9.12 1.32 14.705 2.09-.88-.565-1.73-1.115-2.565-1.64l-12.14-.45Zm141.845-25.075a15.052 15.052 0 0 1-8.855 2.715 21.106 21.106 0 0 1-4.395-.5 76.918 76.918 0 0 1-5.34-1.34c-6.245 2.635-6.64 4.15-12.905 6.88l-.37.16 1.055.845c9.315 7.44 17.355 13.87 28.35 8.835 18.025-8.26 25.73-26.525 27.82-32.465-5.25 1.91-12.2 4.44-18.96 6.86-1.395 2.915-3.435 5.93-6.4 8.01ZM97.16 274.5l.18.12c7.175 1 15.355 2.065 24.265 3.17.845-.875 1.7-1.835 2.595-2.84l.855-.965-30.46-1.13 2.565 1.645Z" class="shade0"/>
    <path fill="#fff" d="M67.795 264.91c17.165-10.72 19.05-26.845 19.25-29.97.2-3.125 4.935-4.7 8-5.43H79.5L63 255l2.5 10.635 2.295-.725ZM164 269.445a58.63 58.63 0 0 0-7.58-2.945l-19.22 7.955-11.5-.425-1.13 1.27a106.48 106.48 0 0 1-2.355 2.59c6.895.85 14.22 1.72 21.845 2.57 3.89-1.185 7.86-.43 11.535 1.24 8.655.9 17.595 1.765 26.66 2.54-3.81-5.79-10.125-10.99-18.255-14.795Z" class="shade0"/>
    <path fill="#fff" d="M188.185 273.805c-3.4-5.03-8.86-9.425-15.63-12.65-4.73 1.26-8.325 2.125-8.325 2.125l-7.095 2.935a59.162 59.162 0 0 1 7.08 2.785c8.365 3.92 14.835 9.3 18.675 15.305 7.66.65 15.405 1.245 23.135 1.75-8.095-2.99-14.525-7.35-17.84-12.25ZM223 246.91c2.73-1.92 4.665-4.66 6-7.35-6.885 2.47-13.5 4.805-17.84 6.25-2.34.775-4.2 1.465-5.735 2.09 1.455.405 3 .795 4.695 1.155 5.03 1.065 9.38.34 12.88-2.145Z" class="shade0"/>
    <path fill="#28192D" d="M79.38 229.26h16.845c.805-.16 1.355-.235 1.45-.25l.03.25h10.335l.19-.185.17.185h38.83l.235-.08a.286.286 0 0 1 .03.08h174.45l1-.25H79.38a.24.24 0 0 0-.21.115L62.825 254.31l.08.335L79.38 229.26Z" class="shade90"/>
    <path fill="#28192D" d="m233.465 229.5 23.945-.25H147.5l.09.25h85.875Zm-153.965 0h15.55c.425-.1.815-.185 1.16-.25H79.38l-16.475 25.385.08.335L79.5 229.5Zm29 0h38.555l-.06-.17.235-.08H108.4l.17.18-.07.07Zm-10.775 0h10.055l.26-.25H97.705l.035.245-.015.005Z" class="shade90"/>
    <path fill="#28192D" d="m320.94 229.5 1-.25h-64.53l-.68.25h64.21Z" class="shade90"/>
    <path fill="#F6D4A0" d="M133.9 266.68c-3.375 2.185-5.945 4.85-8.195 7.35l11.5.425 19.215-7.955c-9.18-2.815-17.825-2.865-22.52.18Zm-64.755 3.09c-.305.195-.59.41-.88.62 2.295.365 6.855 1.07 13.2 2l12.14.45c-9.08-5.735-15.735-8.84-24.46-3.07Z" class="shade10"/>
    <path fill="#F6D4A0" d="m65.795 266.855.77 3.265 1 .165c.42-.325.845-.64 1.29-.935 9.195-6.075 16.41-2.405 25.73 3.5l30.47 1.15c2.335-2.61 5-5.435 8.575-7.745 4.905-3.18 13.97-3.085 23.5-.045l7.095-2.935s3.595-.865 8.325-2.125a53.638 53.638 0 0 0-4.3-1.83 60.59 60.59 0 0 0-28.795-3.25c-10 1.34-16.285 4.795-21.335 7.575-5.165 2.84-9.24 5.085-14.845 3.79-5.935-1.37-9.395-3.375-10.885-6.31a8.3 8.3 0 0 1-.87-3.545c-7.945 2.47-15.5 4.79-22 6.79-.5.335-1 .665-1.5 1-.767.473-1.508.968-2.225 1.485Z" class="shade10"/>
    <path fill="#F6D4A0" d="M103.39 266.95c5.42 1.25 9.425-.95 14.5-3.74 5.075-2.79 11.425-6.28 21.5-7.63a61.004 61.004 0 0 1 29.035 3.275 53.386 53.386 0 0 1 4.87 2.1c3.32-.895 7.12-1.96 10.605-3.05-15.725-12.275-36-11-51.5-10a20.457 20.457 0 0 1-7.655-.745A4737.86 4737.86 0 0 1 92 257.44a7.859 7.859 0 0 0 .82 3.475c1.44 2.78 4.79 4.7 10.57 6.035Z" class="shade10"/>
    <path fill="#F6D4A0" d="M132.39 247.4c15.655-1 36.2-2.3 52.1 10.32 2.405-.76 4.635-1.53 6.425-2.26-8.385-6.67-17.945-13.725-31.08-12.09-8.32 1.035-14.435.5-18.265-1.635-4.97 1.625-10.36 3.36-15.955 5.145 2.216.538 4.504.713 6.775.52Z" class="shade10"/>
    <path fill="#F6D4A0" d="M159.775 242.875c13.455-1.675 23.155 5.585 31.67 12.37l.37-.16c6.265-2.73 6.66-4.245 12.905-6.88-9.03-2.625-13.875-6.085-17.885-8.955-2.375-1.7-4.43-3.17-6.855-4.06-3.345-1.23-9.265.355-15 1.89-5.735 1.535-11.115 2.965-13.355 1.32-2.895.975-6.055 2-9.415 3.12 3.79 1.88 9.64 2.335 17.565 1.355Z" class="shade10"/>
    <path fill="#F6D4A0" d="m195 230.615-5.28 2.885s-15.55-5.72-20.295-1.825c-1.05.86-7.605 3.27-17.18 6.5 2.21 1.18 7.285-.17 12.62-1.6 5.8-1.55 11.795-3.155 15.29-1.875 2.5.915 4.565 2.4 6.97 4.125 4.07 2.905 9 6.43 18.34 9.055a91.319 91.319 0 0 1 5.735-2.09c4.335-1.445 10.955-3.78 17.84-6.25a32.359 32.359 0 0 0 2.92-9l.5.07a32.89 32.89 0 0 1-2.745 8.67c6.76-2.42 13.71-4.95 18.96-6.86.415-1.175.61-1.87.62-1.91l.5.13c0 .035-.165.6-.5 1.555l7.435-2.695h-23.265l-34 .355-4.465.76Zm6.83 4.05c.035.055 3.935 5.92 7.885 6.23a4.175 4.175 0 0 0 3.5-1.545c4.825-5.285 4.585-7.205 4.58-7.225l.5-.1c0 .085.375 2.105-4.7 7.665a4.732 4.732 0 0 1-3.55 1.72h-.365c-4.19-.335-8.095-6.205-8.26-6.455l.41-.29ZM67.795 264.91l-2.295.705.17.715c.675-.5 1.365-.95 2.075-1.39l.05-.03ZM256.73 229.5l.68-.25-23.945.25h23.265Zm-169.685 5.44c-.2 3.125-2.085 19.25-19.25 29.97l1.74-.535c16-10.83 17.81-26.325 18-29.405.26-4.03 9.805-5.41 10.18-5.46h-2.66c-3.055.73-7.81 2.345-8.01 5.43Zm10.63-5.94c-.095 0-.645.09-1.45.25h1.5l-.05-.25Zm.05.5-.035-.245h-1.5c-.345.065-.735.15-1.16.25l2.695-.005Z" class="shade10"/>
    <path fill="#F6D4A0" d="M68 265.365c.5-.325 1.03-.655 1.5-1l-1.74.535-.05.03c-.71.44-1.4.91-2.075 1.39l.125.525a60.185 60.185 0 0 1 2.24-1.48ZM164.215 269a59.105 59.105 0 0 0-7.08-2.775l-.715.295a58.582 58.582 0 0 1 7.58 2.925c8.125 3.805 14.44 9 18.255 14.795l.63.055c-3.835-6.005-10.305-11.385-18.67-15.295Zm-95.35.35c-.445.295-.87.61-1.29.935l.69.105c.29-.21.575-.425.88-.62 8.725-5.77 15.38-2.665 24.46 3.07l1 .035c-9.33-5.93-16.545-9.6-25.74-3.525Zm64.765-3.09c-3.57 2.31-6.24 5.135-8.575 7.745h.65c2.25-2.5 4.82-5.165 8.195-7.35 4.695-3.045 13.34-3 22.5-.17l.715-.295c-9.515-3.015-18.58-3.11-23.485.07Zm10.435 14.2 1.44.155a15.563 15.563 0 0 1 8.385.885l1.71.18c-3.675-1.65-7.645-2.405-11.535-1.22Zm44.535-6.935c-3.36-4.97-8.695-9.33-15.3-12.57l-.745.2c6.77 3.225 12.23 7.62 15.63 12.65 3.305 4.9 9.745 9.26 17.84 12.24l1.84.115c-8.78-2.935-15.79-7.49-19.265-12.635ZM93.535 249.2c-1.42 3.345-2.085 6.09-2 8.385l.5-.155c-.045-2.19.61-4.825 2-8.035 4.245-9.965 13.63-19.055 14.5-19.885h-.72c-2.045 1.99-10.345 10.45-14.28 19.69Zm187.8-3.615c-13.235 6.835-15.075 15.375-16.695 22.91-1.645 7.66-3.07 14.275-15.185 18.15-1.31.42-2.64.79-4 1.12l1.875.03c.76-.21 1.5-.435 2.26-.675 12.395-3.965 13.915-11.035 15.525-18.5 1.61-7.465 3.41-15.845 16.435-22.57 17.705-9.135 30.645-13.5 37.09-15.345l-.285-.44c-6.505 1.865-19.415 6.235-37.02 15.32Zm-173.105-16.51-.19.185h.36l-.17-.185Z" class="shade10"/>
    <path fill="#F6D4A0" d="m108.5 229.5.07-.07-.17-.18h-.36l-.26.25h.72Zm-5.22 37.94c5.605 1.295 9.68-.95 14.845-3.79 5.05-2.78 11.34-6.235 21.335-7.575a60.59 60.59 0 0 1 28.795 3.25c1.5.555 2.915 1.17 4.3 1.83l.745-.2a55.581 55.581 0 0 0-4.87-2.1 60.992 60.992 0 0 0-29.035-3.275c-10.09 1.35-16.425 4.835-21.5 7.63-5.075 2.795-9.07 5-14.5 3.74-5.78-1.335-9.13-3.255-10.55-6.045a7.859 7.859 0 0 1-.82-3.475l-.5.155a8.3 8.3 0 0 0 .87 3.545c1.49 2.935 4.95 4.94 10.885 6.31Zm17.14-23.87c-3.61-4.88-.69-12.79-.66-12.87l-.47-.175a21.275 21.275 0 0 0-1.065 4.72c-.39 3.525.23 6.5 1.795 8.625a9.365 9.365 0 0 0 4.745 3.28l.85-.27a9.173 9.173 0 0 1-5.195-3.31Zm71.92 22.93c6.5 8.53 15.78 13.305 25.5 13.305a30.522 30.522 0 0 0 4.56-.345 28.793 28.793 0 0 0 22.845-18.605c7.325-20.41 43.085-29.905 43.445-30l-.125-.5c-.365.095-36.375 9.66-43.79 30.315a28.294 28.294 0 0 1-22.45 18.28c-11.15 1.715-22.21-3.06-29.59-12.765a47.358 47.358 0 0 0-8.25-8.5l-.585.185a46.356 46.356 0 0 1 8.44 8.63Z" class="shade10"/>
    <path fill="#F6D4A0" d="M132.42 247.895c15.5-1 35.76-2.265 51.5 10l.585-.185c-15.9-12.62-36.445-11.315-52.1-10.32-2.27.2-4.558.031-6.775-.5l-.85.27a20.46 20.46 0 0 0 7.64.735Zm6.64-8.895c-2.815-3.605-1.065-8.27-1.045-8.315l-.47-.18c0 .05-1.87 4.965 1.12 8.8a9.371 9.371 0 0 0 2.905 2.41l.655-.215a9.135 9.135 0 0 1-3.165-2.5Zm81.79 25.925c-11 5.035-19.035-1.395-28.35-8.835l-1.055-.845-.53.215 1.275 1c6.84 5.47 13.395 10.705 21.055 10.705a18.564 18.564 0 0 0 7.815-1.805c18.595-8.5 26.31-27.575 28.215-33.145l-.605.225c-2.09 5.96-9.795 24.225-27.82 32.485Z" class="shade10"/>
    <path fill="#F6D4A0" d="M159.835 243.37c13.135-1.635 22.695 5.42 31.08 12.09l.53-.215c-8.5-6.785-18.215-14.045-31.67-12.37-7.925 1-13.8.525-17.55-1.355l-.655.215c3.83 2.115 9.93 2.67 18.265 1.635Zm89.935-12.69-.5-.13c0 .04-.205.735-.62 1.91l.605-.225c.35-.955.505-1.52.515-1.555Zm-39.71 18.865c1.444.32 2.917.488 4.395.5a15.04 15.04 0 0 0 8.855-2.715c2.965-2.08 5-5.095 6.4-8l-.67.24c-1.355 2.69-3.29 5.43-6 7.35-3.545 2.5-7.87 3.21-12.86 2.145-1.68-.36-3.24-.75-4.695-1.155-.26.1-.5.205-.745.305a79.37 79.37 0 0 0 5.32 1.33ZM151.64 238.4l.605-.205a2.112 2.112 0 0 1-.86-.8 56.559 56.559 0 0 1-3.8-7.885h-.53a55.585 55.585 0 0 0 3.9 8.135c.172.297.405.555.685.755Zm-4.175-9.22-.235.08h.27a.27.27 0 0 0-.035-.08Z" class="shade10"/>
    <path fill="#F6D4A0" d="M147.055 229.5h.53l-.09-.25h-.265l-.235.08.06.17ZM165 237.08c5.72-1.535 11.64-3.12 15-1.89 2.425.89 4.5 2.36 6.855 4.06 4 2.87 8.855 6.33 17.885 8.955.24-.1.5-.205.745-.305-9.34-2.625-14.27-6.15-18.34-9.055-2.405-1.725-4.5-3.21-6.97-4.125-3.5-1.28-9.5.325-15.29 1.875-5.335 1.43-10.41 2.78-12.62 1.6l-.605.205c2.22 1.645 7.63.205 13.34-1.32Zm67.455-6.43-.5-.07a32.359 32.359 0 0 1-2.92 9l.67-.24a32.88 32.88 0 0 0 2.75-8.69Zm-22.81 10.745h.365a4.732 4.732 0 0 0 3.55-1.72c5.075-5.56 4.72-7.58 4.7-7.665l-.5.1s.245 1.94-4.58 7.225a4.162 4.162 0 0 1-3.5 1.545c-3.95-.31-7.85-6.175-7.885-6.23l-.42.275c.175.265 4.08 6.135 8.27 6.47Zm84.17 20.365c-4.565 3.43-7.5 6.78-10.71 11.085-.815 1.26-1.59 2.5-2.335 3.715-2.5 4-4.845 7.82-8.13 11l.745-.03c3.12-3.145 5.415-6.845 7.81-10.715.745-1.21 1.5-2.455 2.32-3.695 3.19-4.255 6.08-7.58 10.595-10.965 3-2.13 5.45-3.365 8.03-4 7.9-3.195 16.245-4.07 24.61-4.195l-.03-.5c-8.405.125-16.79 1-24.735 4.225-2.61.645-5.13 1.905-8.17 4.075Zm-7.64 24.84.74-.09c7-8.04 15.79-13.675 25.5-16.225a49.487 49.487 0 0 1 11.27-1.875l.28-.5a50.132 50.132 0 0 0-11.685 1.905c-9.97 2.61-18.965 8.445-26.105 16.785Z" class="shade10"/>
    <path fill="#fff" d="M318.37 230.245c1.075-.31 2-.55 2.695-.735h-.125l-2.625.655.055.08Zm-72.9 57.52c-12.165-.22-24.85-.79-37.605-1.605a61.64 61.64 0 0 0 5.065 1.465 68.928 68.928 0 0 0 32.54.14Zm77.755-58.265h16.07l.21-.25H323.2l.05.245-.025.005Zm-2.16 0 1-.25h-.125l-1 .25h.125Z" class="shade0"/>
    <path fill="#fff" d="M212.93 287.625a61.64 61.64 0 0 1-5.065-1.465l-1.84-.115a64.524 64.524 0 0 0 6.785 2.065 70.69 70.69 0 0 0 16.84 2.035 66.428 66.428 0 0 0 17.695-2.35l-1.875-.03a68.928 68.928 0 0 1-32.54-.14Zm105.725-56.94c2.84-.815 4.405-1.145 4.57-1.175h-2.16a94.7 94.7 0 0 0-2.695.735l.285.44Zm4.5-1.685s-.395.08-1.085.245h1.13l-.045-.245Zm.07.5-.05-.245h-1.13l-1 .25 2.18-.005Z" class="shade0"/>
    <path fill="#fff" d="M270.67 289.315c-4.065 3.13-8.9 4.925-15.675 5.83-17.535 2-36.12.81-56.815-3.715l-.11.5c14.285 3.12 27.57 4.67 40.205 4.67 5.609.004 11.213-.313 16.785-.95 6.865-.915 11.775-2.745 15.92-5.93a28.75 28.75 0 0 0 2.405-2.17l-.745.03c-.64.595-1.275 1.18-1.97 1.735Zm8.875 6.685.435.25a62.208 62.208 0 0 1 6.935-9.75l-.74.09a62.932 62.932 0 0 0-6.63 9.41Zm19.955.235.04-.06h-.135l.095.06Zm40.145-67.14-.14.165h.33l-.19-.165Z" class="shade0"/>
    <path fill="#fff" d="m339.95 229.5.075-.09-.19-.16h-.335l-.21.25h.66Zm-183.765 39.345A17.634 17.634 0 0 0 166.5 265.5l31.95-23.055a.764.764 0 0 0 .284-.853.764.764 0 0 0-.729-.527H129.5l7.41 27.78h19.275Z" class="shade0"/>
    <path fill="#28192D" d="M156.185 269.095h-19.29a.241.241 0 0 1-.153-.053.24.24 0 0 1-.087-.137l-7.41-27.775a.254.254 0 0 1-.004-.113.248.248 0 0 1 .049-.102.264.264 0 0 1 .086-.073.258.258 0 0 1 .109-.027h68.54a1.005 1.005 0 0 1 .985.693 1.004 1.004 0 0 1-.395 1.137l-31.945 23.06a17.84 17.84 0 0 1-10.485 3.39Zm-19.1-.5h19.1a17.311 17.311 0 0 0 10.19-3.295l31.95-23.06a.502.502 0 0 0 .017-.842.495.495 0 0 0-.317-.083H129.81l7.275 27.28Z" class="shade90"/>
    <path fill="#fff" d="M152.74 268.845c3.713 0 7.331-1.171 10.34-3.345l31.945-23.055a.764.764 0 0 0 .284-.853.764.764 0 0 0-.729-.527h-68.535l7.405 27.78h19.29Z" class="shade0"/>
    <path fill="#28192D" d="M152.74 269.095h-19.29a.25.25 0 0 1-.24-.19l-7.41-27.775a.255.255 0 0 1 .045-.215.26.26 0 0 1 .2-.1h68.535c.218-.008.432.055.611.179a1.003 1.003 0 0 1-.016 1.651l-31.95 23.06a17.822 17.822 0 0 1-10.485 3.39Zm-19.095-.5h19.095a17.329 17.329 0 0 0 10.195-3.295l31.945-23.06a.495.495 0 0 0 .19-.57.496.496 0 0 0-.5-.355h-68.2l7.275 27.28Z" class="shade90"/>
    <path fill="#A6C2EA" d="M157.085 263.905h3.5a.504.504 0 0 0 .285-.095l23.445-16.92a.502.502 0 0 0-.01-.78.494.494 0 0 0-.275-.105h-44.15l4.775 17.9h12.43Z" class="shade50"/>
    <path fill="#fff" d="M182.845 249.23H159.39v.5h23.455v-.5Zm-8.75 6.005h-11.32v.5h11.32v-.5Zm-60.21-6.66a10.049 10.049 0 0 0-6.145-2c-3.5.15-8-1.645-9.435-1.695-1.435-.05-1.915 2.95 1 4.19 2.915 1.24 10.835 1.25 10.835 1.25l3.745-1.745Z" class="shade0"/>
    <path fill="#28192D" d="M110.135 250.575c-.325 0-8 0-10.93-1.27-1.89-.805-2.5-2.36-2.24-3.47a1.354 1.354 0 0 1 1.345-1.2c.88.106 1.749.294 2.595.56 1.95.5 4.62 1.23 6.825 1.135a10.233 10.233 0 0 1 6.315 2.055c.033.026.058.06.074.098a.253.253 0 0 1-.028.24.247.247 0 0 1-.096.082l-3.755 1.745a.27.27 0 0 1-.105.025Zm-11.87-5.445a.908.908 0 0 0-.81.815c-.205.91.32 2.21 1.945 2.9 2.705 1.155 9.97 1.225 10.68 1.23l3.315-1.545a9.789 9.789 0 0 0-5.645-1.7c-2.275.095-5-.625-6.97-1.15a14.936 14.936 0 0 0-2.5-.545l-.015-.005Z" class="shade90"/>
    <path fill="#fff" d="M192.04 226.775c.4 2.735-.155 3.67-.155 3.67-3.075 6.65-26.95 17.92-48.095 21.08-22.815 3.41-36.33 5.71-27.67-2.885 8.66-8.595 53.645-29.26 53.645-29.26s6.26.54 9.85 2.275" class="shade0"/>
    <path fill="#28192D" d="M118.5 254.83c-2.91 0-4.61-.435-5.12-1.46-.51-1.025.27-2.64 2.555-4.91 8.59-8.525 53.265-29.1 53.715-29.31a.264.264 0 0 1 .125 0c.26 0 6.35.56 9.935 2.3a.247.247 0 0 1 .13.139.246.246 0 0 1-.01.191.253.253 0 0 1-.24.144.261.261 0 0 1-.095-.024c-3.31-1.605-9-2.185-9.695-2.245-1.895.87-45.13 20.86-53.5 29.18-2.05 2.04-2.88 3.5-2.46 4.33 1.225 2.435 12.25.785 27.5-1.5l2.4-.36c9.77-1.46 21-4.82 30.755-9.215 9.27-4.165 15.68-8.55 17.15-11.725 0-.03.5-.95.135-3.53a.25.25 0 0 1 .395-.233.256.256 0 0 1 .1.163c.405 2.785-.165 3.79-.185 3.83-3.06 6.61-26.41 17.935-48.275 21.205l-2.4.36c-10.71 1.58-18.315 2.67-22.915 2.67Z" class="shade90"/>
    <path fill="#fff" d="M122.5 253.74c-.53 1.765-1.825 3.84-4.835 5.32-6.29 3.095-16.575 6.29-20.17.6-3.595-5.69.95-8.84 10.83-11.185a22.29 22.29 0 0 1 8.91-.46" class="shade0"/>
    <path fill="#28192D" d="M104.43 263.04c-3.085 0-5.67-.925-7.135-3.25-1.27-2-1.58-3.735-.95-5.28 1.06-2.605 4.855-4.6 11.935-6.275a22.59 22.59 0 0 1 9-.465.255.255 0 0 1 .205.29.256.256 0 0 1-.29.205 22.14 22.14 0 0 0-8.81.455c-6.91 1.64-10.59 3.535-11.585 6-.57 1.385-.27 2.965.905 4.825 1.55 2.45 4.5 3.42 8.83 2.88s8.785-2.47 11-3.57c2.455-1.205 4.04-2.945 4.71-5.165a.256.256 0 0 1 .123-.156.254.254 0 0 1 .197-.024.26.26 0 0 1 .188.219.265.265 0 0 1-.008.101c-.705 2.33-2.42 4.22-4.965 5.5-4.36 2.1-9.28 3.71-13.35 3.71Z" class="shade90"/>
    <path fill="#fff" d="M110.62 261.725c-2.285 1.16-11.815 5.845-14.83 5.425-2.81-.39 4.28-4.545 8.795-6.325" class="shade0"/>
    <path fill="#28192D" d="M96.205 267.425c-.15 0-.3-.009-.45-.025-.65-.095-.825-.39-.85-.62-.175-1.5 6.24-4.87 9.59-6.19a.256.256 0 0 1 .325.14.264.264 0 0 1 .018.096.26.26 0 0 1-.076.176.257.257 0 0 1-.082.053c-4.265 1.685-9.38 4.805-9.28 5.665 0 .075.175.15.425.185 3.1.43 13.5-4.805 14.68-5.405a.25.25 0 0 1 .303.386.237.237 0 0 1-.078.059c-1.855.945-10.955 5.48-14.525 5.48Z" class="shade90"/>
    <path fill="#fff" d="M104.325 260.91c-3.405 1.69-11.375 5.435-14.305 5-3.355-.47 6.195-6.2 10.83-7.7" class="shade0"/>
    <path fill="#28192D" d="M90.5 266.215a4.18 4.18 0 0 1-.5-.03c-.71-.1-.89-.435-.91-.695-.16-1.8 7.92-6.275 11.7-7.5a.241.241 0 0 1 .096-.011.236.236 0 0 1 .168.087.223.223 0 0 1 .046.084.245.245 0 0 1-.16.315c-4.35 1.405-11.46 5.77-11.355 6.975 0 .155.345.22.5.24 2.865.4 10.86-3.365 14.16-5a.248.248 0 0 1 .345.306.253.253 0 0 1-.125.144c-3.965 1.95-10.77 5.085-13.965 5.085Z" class="shade90"/>
    <path fill="#fff" d="M100.85 258.235c-3.865 1.845-10.115 4.565-12.635 4.215-3.605-.5 7.925-6.815 12.03-7.705" class="shade0"/>
    <path fill="#28192D" d="M88.705 262.73a3.347 3.347 0 0 1-.5-.035c-.73-.1-.895-.435-.905-.7-.075-1.905 9.59-6.77 12.915-7.5a.259.259 0 0 1 .264.106.258.258 0 0 1 .003.284.263.263 0 0 1-.162.11c-3.795.83-12.57 5.725-12.5 7 0 .15.36.21.47.225 2.5.35 8.895-2.475 12.5-4.19a.261.261 0 0 1 .193-.01.25.25 0 0 1 .142.13.242.242 0 0 1 .01.191.25.25 0 0 1-.13.139c-4.215 1.97-9.59 4.25-12.3 4.25Z" class="shade90"/>
    <path fill="#fff" d="M100.245 254.745c-3.845 1.77-8.7 4.115-10.95 3.8-3.41-.5 6.595-6.045 11.13-7.43" class="shade0"/>
    <path fill="#28192D" d="M89.735 258.825c-.159 0-.317-.01-.475-.03-.715-.1-.89-.425-.91-.675-.135-1.705 8.245-6.095 12-7.24a.244.244 0 0 1 .31.165.249.249 0 0 1-.165.31c-4.335 1.325-11.74 5.595-11.65 6.725 0 .095.185.18.5.22 2 .285 6.465-1.77 10.03-3.425l.78-.36a.25.25 0 1 1 .21.455l-.78.36C96 257 92 258.825 89.735 258.825Z" class="shade90"/>
    <path fill="#fff" d="m198.595 140.69 2.965 11.185-.24.815a8.172 8.172 0 0 0 1.237 7.151 8.186 8.186 0 0 0 6.438 3.349 8.173 8.173 0 0 0 7.36-4.305l7.06-11s-8.15-7.155-12.97-20.065-13.695-.37-11.85 12.87Z" class="shade0"/>
    <path fill="#28192D" d="M209.16 163.435H209a8.434 8.434 0 0 1-6.635-3.451 8.428 8.428 0 0 1-1.275-7.369l.22-.745-2.945-11.115v-.03c-1.025-7.385 1.565-17.27 6.325-18.475 1.355-.34 3.935-.085 6 5.5 4.735 12.695 12.82 19.895 12.9 19.965a.237.237 0 0 1 .084.151.235.235 0 0 1-.039.169l-7.06 11a8.37 8.37 0 0 1-7.415 4.4Zm-10.32-22.795 2.96 11.17a.208.208 0 0 1 0 .135l-.24.815a7.915 7.915 0 0 0 3.941 9.282 7.917 7.917 0 0 0 3.499.893h.16a7.876 7.876 0 0 0 6.975-4.175l6.955-10.835c-1.165-1.085-8.465-8.195-12.875-20.025-1.44-3.85-3.36-5.68-5.42-5.165-3.695.935-7.17 9.13-5.955 17.905Z" class="shade90"/>
    <path fill="#28192D" d="M205.425 142.92c1.385-2.53 5.5-5.845 6.22-8.665.211-.912.297-1.849.255-2.785a36.642 36.642 0 0 1-1.5-3.5c-4.58-12.28-13.105-.085-11.355 12.5l2.72 10.095a70.883 70.883 0 0 1 3.66-7.645Z" class="shade90"/>
    <path fill="#fff" d="M190 110.175s-4.67 5.205-2.22 16.15c2.45 10.945 5.545 19.075 13.28 17.5 7.735-1.575 11.165-12.605 7.885-25.035-3.28-12.43-12.725-11.94-18.945-8.615Z" class="shade0"/>
    <path fill="#28192D" d="M199.19 144.26c-6.28 0-9.245-7.175-11.645-17.88-2.45-10.945 2.08-16.155 2.275-16.37a.247.247 0 0 1 .07-.055c2-1.065 7.135-3.305 12.045-1.17 3.5 1.5 5.92 4.855 7.26 9.925 2.095 7.935 1.53 15.59-1.5 20.5-1.63 2.63-3.9 4.305-6.57 4.855a9.523 9.523 0 0 1-1.935.195Zm-9.025-33.885c-.37.445-4.425 5.65-2.13 15.895 3.545 15.84 7.755 18.37 13 17.295 2.53-.5 4.69-2.12 6.245-4.63 2.965-4.78 3.5-12.295 1.445-20.095-1.295-4.915-3.645-8.145-6.975-9.595-4.69-2.035-9.63.09-11.585 1.13Z" class="shade90"/>
    <path fill="#A6C2EA" d="M209.84 128.94a7.721 7.721 0 0 1-.59-1.54c-.22-.67-.155-1.06-.91-.965a.759.759 0 0 0-.69.395c-.25.415-.21 1.455-.4 1.97a5.745 5.745 0 0 1-1 1.73c-.81.935-1.82 1.295-2.975 1.625a8.642 8.642 0 0 1-2.425.5 18.003 18.003 0 0 1-2.245-.27 4.697 4.697 0 0 0-3.435.83 5.743 5.743 0 0 1-1.545.72c-1.125.3-2.24.32-3.16-.45-.392-.33-.764-.683-1.115-1.055 2.295 7.665 5.5 12.64 11.715 11.365 5.405-1.11 8.7-6.825 9.085-14.405a4.606 4.606 0 0 1-.31-.45Z" class="shade50"/>
    <path fill="#28192D" d="M199.19 144.26c-6.28 0-9.245-7.175-11.645-17.88-2.45-10.945 2.08-16.155 2.275-16.37a.247.247 0 0 1 .07-.055c2-1.065 7.135-3.305 12.045-1.17 3.5 1.5 5.92 4.855 7.26 9.925 2.095 7.935 1.53 15.59-1.5 20.5-1.63 2.63-3.9 4.305-6.57 4.855a9.523 9.523 0 0 1-1.935.195Zm-9.025-33.885c-.37.445-4.425 5.65-2.13 15.895 3.545 15.84 7.755 18.37 13 17.295 2.53-.5 4.69-2.12 6.245-4.63 2.965-4.78 3.5-12.295 1.445-20.095-1.295-4.915-3.645-8.145-6.975-9.595-4.69-2.035-9.63.09-11.585 1.13Z" class="shade90"/>
    <path fill="#fff" d="M209.65 127.675c1.46-.35 3.755-1.435 4.225-4.835.705-5.08-5-4.61-5.94-1.8" class="shade0"/>
    <path fill="#28192D" d="M209.65 127.925a.25.25 0 0 1-.215-.38.258.258 0 0 1 .155-.115c1.605-.38 3.605-1.5 4.035-4.625.265-1.905-.395-3.19-1.81-3.5-1.325-.31-3.15.365-3.64 1.835a.25.25 0 0 1-.315.16.254.254 0 0 1-.16-.32c.5-1.555 2.5-2.565 4.23-2.16 1.73.405 2.5 1.91 2.195 4.07-.5 3.595-3 4.705-4.42 5.05l-.055-.015Z" class="shade90"/>
    <path fill="#fff" d="M211.06 120.53s1.755 2.45.97 4.5Z" class="shade0"/>
    <path fill="#28192D" d="M212.03 125.265a.272.272 0 0 1-.09 0 .248.248 0 0 1-.14-.132.245.245 0 0 1-.005-.193c.725-1.88-.925-4.225-.94-4.25a.247.247 0 0 1-.043-.187.256.256 0 0 1 .191-.203.244.244 0 0 1 .097-.002.236.236 0 0 1 .16.102c.075.105 1.825 2.585 1 4.72a.24.24 0 0 1-.23.145Zm-21.04 2.415c.356 0 .645-.361.645-.805 0-.445-.289-.805-.645-.805-.356 0-.645.36-.645.805 0 .444.289.805.645.805Zm10.08-1.665c.356 0 .645-.361.645-.805 0-.445-.289-.805-.645-.805-.356 0-.645.36-.645.805 0 .444.289.805.645.805Z" class="shade90"/>
    <path fill="#fff" d="M194.94 123.925s.45 4.225-.43 5.805a4.837 4.837 0 0 1-.67.95.833.833 0 0 0 .275 1.35 4.005 4.005 0 0 0 2.375.365" class="shade0"/>
    <path fill="#28192D" d="M195.92 132.71a4.956 4.956 0 0 1-1.905-.45 1.067 1.067 0 0 1-.64-.775 1.122 1.122 0 0 1 .28-1c.25-.269.463-.57.635-.895.835-1.5.405-5.615.405-5.66a.253.253 0 0 1 .053-.183.253.253 0 0 1 .167-.092.258.258 0 0 1 .275.225c0 .175.445 4.32-.46 5.955a5.051 5.051 0 0 1-.71 1 .594.594 0 0 0-.155.535.572.572 0 0 0 .345.415 3.711 3.711 0 0 0 2.22.355.258.258 0 0 1 .115.5c-.205.05-.415.073-.625.07Z" class="shade90"/>
    <path fill="#fff" d="M188.25 120.815s2.24-.855 4.03-.635Z" class="shade0"/>
    <path fill="#28192D" d="M188.25 121.065a.254.254 0 0 1-.085-.5c.09-.035 2.315-.87 4.145-.645a.252.252 0 0 1 .22.28.254.254 0 0 1-.094.168.26.26 0 0 1-.186.052c-1.71-.21-3.89.61-3.91.615a.205.205 0 0 1-.09.03Z" class="shade90"/>
    <path fill="#fff" d="M198.66 118.945s2.67-1.27 5.295 0Z" class="shade0"/>
    <path fill="#28192D" d="M203.955 119.195a.29.29 0 0 1-.11 0c-2.5-1.2-5.05 0-5.075 0a.261.261 0 0 1-.095.024.266.266 0 0 1-.181-.065.24.24 0 0 1-.059-.079.261.261 0 0 1-.024-.095.266.266 0 0 1 .065-.182.265.265 0 0 1 .079-.058c.11-.05 2.805-1.3 5.5 0a.245.245 0 0 1 .12.33.256.256 0 0 1-.22.125Z" class="shade90"/>
    <path fill="#fff" d="M203.555 236.12a10.048 10.048 0 0 0-6.15-2c-3.5.15-8-1.645-9.435-1.695-1.435-.05-1.91 2.955 1 4.19 2.91 1.235 10.835 1.25 10.835 1.25l3.75-1.745Z" class="shade0"/>
    <path fill="#28192D" d="M199.805 238.115c-.325 0-8-.025-10.93-1.27-1.89-.8-2.5-2.36-2.24-3.465a1.356 1.356 0 0 1 1.345-1.205c.88.112 1.748.301 2.595.565 1.95.5 4.61 1.23 6.82 1.13a10.277 10.277 0 0 1 6.32 2.055.248.248 0 0 1 .09.225.244.244 0 0 1-.145.195l-3.75 1.745a.274.274 0 0 1-.105.025Zm-11.87-5.44a.907.907 0 0 0-.815.81c-.2.915.32 2.21 1.95 2.9 2.705 1.155 9.97 1.225 10.68 1.23l3.315-1.545a9.743 9.743 0 0 0-5.645-1.7c-2.275.095-5-.62-6.975-1.15a14.942 14.942 0 0 0-2.5-.545h-.01Z" class="shade90"/>
    <path fill="#fff" d="M277.595 193.935s3.905 16.265 4.29 22.565c.385 6.3-25.61 19.155-48.425 22.565-22.815 3.41-36.33 5.71-27.67-2.885 8.66-8.595 49.465-25.845 49.465-25.845l-1.84-7.22 24.18-9.18Z" class="shade0"/>
    <path fill="#28192D" d="M208.18 242.375c-2.91 0-4.61-.44-5.12-1.465-.51-1.025.265-2.64 2.555-4.905 8.28-8.225 46.245-24.5 49.345-25.815l-1.785-7a.255.255 0 0 1 .019-.176.254.254 0 0 1 .131-.119L277.5 193.7a.264.264 0 0 1 .205 0 .237.237 0 0 1 .125.165c.04.165 3.91 16.36 4.3 22.61.425 6.77-26.85 19.57-48.64 22.83l-2.4.36c-10.715 1.615-18.32 2.71-22.91 2.71Zm45.535-39.105 1.78 7a.255.255 0 0 1-.145.295c-.405.17-40.86 17.33-49.385 25.79-2.05 2.04-2.88 3.5-2.46 4.335 1.22 2.43 12.25.78 27.5-1.5l2.405-.36c23.26-3.5 48.59-16.265 48.215-22.305-.36-5.755-3.71-20.075-4.225-22.245l-23.685 8.99Z" class="shade90"/>
    <path fill="#A6C2EA" d="M241.56 147.87s14.365 2.165 25.585 14.565c11.22 12.4 14.355 35.23 14.355 35.23s-10.82 9.25-19.975 9.445l-9.15.195-10.815-59.435Z" class="shade50"/>
    <path fill="#28192D" d="M252.385 207.555a.242.242 0 0 1-.245-.205l-8.35-45.85a.256.256 0 0 1 .041-.19.256.256 0 0 1 .354-.064.258.258 0 0 1 .105.164l8.31 45.62 8.935-.19c8.5-.18 18.575-8.355 19.715-9.3-.285-1.91-3.695-23.255-14.285-34.955-11-12.185-25.295-14.465-25.435-14.5a.237.237 0 0 1-.093-.034.251.251 0 0 1-.02-.419.251.251 0 0 1 .188-.047c.14 0 14.58 2.32 25.73 14.64s14.4 35.135 14.43 35.365a.258.258 0 0 1-.085.225 57.155 57.155 0 0 1-6.59 4.67c-3.54 2.15-8.76 4.73-13.545 4.835l-9.15.195-.01.04Z" class="shade90"/>
    <path fill="#fff" d="M212.18 241.28c-.535 1.765-1.83 3.84-4.84 5.32-6.29 3.095-16.57 6.29-20.165.6-3.595-5.69.945-8.84 10.825-11.2a22.307 22.307 0 0 1 8.91-.465" class="shade0"/>
    <path fill="#28192D" d="M194.1 250.585c-3.085 0-5.67-.93-7.14-3.25-1.265-2-1.575-3.74-.945-5.285 1.06-2.605 4.855-4.595 11.935-6.275 2.939-.759 6-.917 9-.465a.234.234 0 0 1 .092.035.251.251 0 0 1-.172.46 22.14 22.14 0 0 0-8.81.455c-6.91 1.64-10.595 3.54-11.59 6-.565 1.385-.265 2.965.91 4.825 1.545 2.45 4.5 3.42 8.83 2.88s8.78-2.47 11-3.57c2.455-1.205 4.04-2.945 4.71-5.165a.251.251 0 1 1 .48.145c-.715 2.36-2.385 4.2-4.97 5.47-4.345 2.155-9.27 3.74-13.33 3.74Z" class="shade90"/>
    <path fill="#fff" d="M200.29 249.265c-2.29 1.16-11.815 5.845-14.83 5.425-2.815-.39 4.275-4.545 8.795-6.325" class="shade0"/>
    <path fill="#28192D" d="M185.875 254.97a3.074 3.074 0 0 1-.45-.03c-.655-.09-.825-.385-.85-.62-.18-1.5 6.24-4.87 9.59-6.19a.264.264 0 0 1 .096-.018.258.258 0 0 1 .176.076.246.246 0 0 1 .071.178.26.26 0 0 1-.076.176.246.246 0 0 1-.082.053c-4.265 1.685-9.385 4.81-9.28 5.67 0 .075.175.145.425.18 3.09.435 13.5-4.805 14.68-5.405a.25.25 0 0 1 .303.386.237.237 0 0 1-.078.059c-1.86.945-10.96 5.485-14.525 5.485Z" class="shade90"/>
    <path fill="#fff" d="M194 248.45c-3.405 1.69-11.375 5.435-14.305 5.025-3.355-.465 6.19-6.2 10.83-7.695" class="shade0"/>
    <path fill="#28192D" d="M180.175 253.755a4.18 4.18 0 0 1-.5-.03c-.715-.1-.89-.435-.915-.695-.155-1.8 7.925-6.27 11.7-7.5a.249.249 0 0 1 .315.16.245.245 0 0 1-.16.315c-4.35 1.405-11.46 5.77-11.355 7 0 .155.345.22.5.24 2.87.4 10.86-3.365 14.16-5a.249.249 0 0 1 .335.115.25.25 0 0 1-.115.335c-3.955 1.925-10.775 5.06-13.965 5.06Z" class="shade90"/>
    <path fill="#fff" d="M190.5 245.78c-3.87 1.84-10.115 4.56-12.635 4.21-3.605-.5 7.925-6.81 12.03-7.705" class="shade0"/>
    <path fill="#28192D" d="M178.37 250.27c-.167 0-.334-.011-.5-.035-.73-.1-.895-.435-.905-.7-.07-1.905 9.595-6.77 12.915-7.5a.256.256 0 1 1 .11.5c-3.795.825-12.57 5.725-12.525 7 0 .145.365.205.475.22 1.845.26 6.285-1.23 12.5-4.19a.25.25 0 0 1 .192-.008.25.25 0 0 1 .023.463c-4.195 1.98-9.57 4.25-12.285 4.25Z" class="shade90"/>
    <path fill="#fff" d="M189.915 242.285c-3.845 1.77-8.705 4.115-10.955 3.805-3.41-.5 6.6-6.05 11.135-7.43" class="shade0"/>
    <path fill="#28192D" d="M179.405 246.365a3.433 3.433 0 0 1-.475-.03c-.715-.1-.89-.42-.91-.675-.135-1.705 8.245-6.095 12-7.24a.257.257 0 0 1 .198.022.258.258 0 0 1 .037.431.25.25 0 0 1-.09.047c-4.335 1.325-11.74 5.595-11.65 6.725 0 .095.185.18.475.22 2.025.28 6.47-1.77 10.035-3.425l.78-.36a.258.258 0 0 1 .193-.004.257.257 0 0 1 .142.129c.027.06.029.129.006.191a.252.252 0 0 1-.131.139l-.78.36c-3.55 1.605-7.545 3.47-9.83 3.47Z" class="shade90"/>
    <path fill="#fff" d="M264.29 211s-5.44-.855-9.035-.675Z" class="shade0"/>
    <path fill="#28192D" d="M264.29 211.26h-.04c-.055 0-5.455-.845-9-.67a.25.25 0 1 1 0-.5c3.58-.18 9.03.67 9.085.68a.248.248 0 0 1 .206.187.269.269 0 0 1 .004.098.251.251 0 0 1-.255.205Zm-84.42-103.125s-2 4.26 3.11 7.63c2.13 1.405.72 2.125 10.835.44A31.607 31.607 0 0 0 201 117.33c3.565.06 5.5-1.375 5.5-1.375l1.595 7.315 1.08-.25 1.56-11.445s.065-8.315-9.88-7.38c-9.945.935-20.985 3.94-20.985 3.94Zm38.96 34.55s.575 6.72-2.19 12.255a21.143 21.143 0 0 1-7.365 8.21s.72.2 3.58 1.89c2.86 1.69 3.08 5 3.08 5s10.305-4.625 12.27-9.035c1.965-4.41 3.63-13.85 3.63-13.85s-3.69-.905-13.005-4.47Z" class="shade90"/>
    <path fill="#28192D" d="M201.32 150.47a24.16 24.16 0 0 0 3.315 7.615c2.67 4.195 4.925 4.92 4.925 4.92s-2.255 3.145-2.955 4.785c-.45 1.2-.689 2.469-.705 3.75a35.61 35.61 0 0 1-6.9-5.11c-3.47-3.28-4.785-10.69-4.785-10.69l7.105-5.27Z" class="shade90"/>
    <path fill="#fff" d="M187.85 117.5a17.583 17.583 0 0 1-6.67-2.81c-3.06-2.235-1.795-7-1.74-7.21l.5.135c0 .045-1.23 4.64 1.55 6.67a17.386 17.386 0 0 0 6.445 2.715l-.085.5Z" class="shade0"/>
    <path fill="#fff" d="M187.235 114.465c-.25-.1-6.11-2.5-6.205-7.075h.5c.09 4.24 5.835 6.6 5.89 6.62l-.185.455Zm21.887-.242-.495.08 1.057 6.539.495-.08-1.057-6.539Zm-8.727 1.017c-7.16 0-14.165-6.25-14.25-6.325l.335-.37c.095.09 9.795 8.735 17.81 5.455l.19.465a10.747 10.747 0 0 1-4.085.775Z" class="shade0"/>
    <path fill="#fff" d="M200.395 112.6c-2.26 0-3.655-.645-4.47-1.27a4.063 4.063 0 0 1-1.5-1.97l.5-.135c.045.155 1.11 3.71 7.6 2.7l.08.5c-.731.116-1.47.175-2.21.175Z" class="shade0"/>
    <path fill="#F6D4A0" d="M188.96 131.22a2.29 2.29 0 0 1-2.27-2l-.395-2.975a2.32 2.32 0 0 1 .064-.897 2.318 2.318 0 0 1 1.083-1.391c.263-.149.553-.245.853-.282l3.5-.5a2.3 2.3 0 0 1 2.575 1.97 5.306 5.306 0 0 1-4.545 5.93l-.5.115c-.12.02-.242.03-.365.03Zm3.105-7.56h-.235l-3.5.5a1.794 1.794 0 0 0-1.19.69 1.782 1.782 0 0 0-.355 1.32l.39 2.975c.031.233.107.457.224.661.118.203.275.381.461.524.378.288.854.415 1.325.355l.5-.115a4.805 4.805 0 0 0 4.12-5.375 1.788 1.788 0 0 0-1.775-1.555l.035.02Zm9.555 5.84a4.401 4.401 0 0 1-4.335-3.81l-.17-1.26a1.926 1.926 0 0 1 .382-1.421c.31-.405.767-.671 1.273-.739l5.57-.77a1.928 1.928 0 0 1 2.16 1.655l.5 3.7a1.932 1.932 0 0 1-1.655 2.16l-3.13.415c-.197.036-.396.06-.595.07Zm2.97-7.5h-.185l-5.565.735a1.423 1.423 0 0 0-1.225 1.595l.165 1.265c.066.505.232.992.486 1.434a3.89 3.89 0 0 0 2.357 1.807 3.875 3.875 0 0 0 1.512.099l3.13-.41a1.43 1.43 0 0 0 1.225-1.6l-.5-3.7a1.428 1.428 0 0 0-1.4-1.225Z" class="shade10"/>
    <path fill="#F6D4A0" d="M193.77 124.93a.255.255 0 0 1-.25-.22.256.256 0 0 1 .215-.28l4.5-.59a.25.25 0 0 1 .28.215.249.249 0 0 1-.048.186.24.24 0 0 1-.167.094l-4.5.59-.03.005Zm12.48-1.535a.248.248 0 0 1-.232-.165.252.252 0 0 1 .072-.275l3.47-2.955a.245.245 0 0 1 .35.025.253.253 0 0 1-.025.355l-3.47 2.955a.26.26 0 0 1-.165.06Z" class="shade10"/>
    <path fill="#28192D" d="M218.5 213.095a.255.255 0 0 1-.235-.165c-5.2-14.5-8.935-49.545-8.97-49.895a.258.258 0 0 1 .054-.185.252.252 0 0 1 .446.13c.04.355 3.765 35.345 8.945 49.78a.25.25 0 0 1-.235.335h-.005Zm-9.61-103.44-.45-.22a2.252 2.252 0 0 0 0-1.67c-.41-1.13-1.615-2.17-3.47-3-4.84-2.195-23.34 1.895-23.53 1.935l-.105-.5c.765-.17 18.85-4.165 23.84-1.905 2 .915 3.28 2.03 3.74 3.315a2.74 2.74 0 0 1-.025 2.045ZM195.31 134.4a.147.147 0 0 1-.015-.146.145.145 0 0 1 .12-.084 12.225 12.225 0 0 0 2.385-.35 7.009 7.009 0 0 0 2.5-1.35.128.128 0 0 1 .066-.032.136.136 0 0 1 .072.005.135.135 0 0 1 .092.107 3.797 3.797 0 0 1-.725 3.21c-1.07 1.25-2.805 1.5-3.35 1.5-.02.002-.04 0-.059-.007a.136.136 0 0 1-.096-.138 4.493 4.493 0 0 0-.99-2.715Z" class="shade90"/>
    <path fill="#28192D" d="M196.445 137.535a.387.387 0 0 1-.275-.115.39.39 0 0 1-.12-.3 4.266 4.266 0 0 0-.945-2.575.392.392 0 0 1-.035-.405.38.38 0 0 1 .33-.215 12.574 12.574 0 0 0 2.34-.345 6.813 6.813 0 0 0 2.405-1.305.395.395 0 0 1 .379-.066.39.39 0 0 1 .251.291 4.046 4.046 0 0 1-.78 3.42c-1.14 1.335-3 1.57-3.5 1.61l-.05.005Zm-.825-3.125c.561.76.886 1.667.935 2.61a4.763 4.763 0 0 0 3.06-1.425 3.488 3.488 0 0 0 .705-2.82 7.205 7.205 0 0 1-2.455 1.29c-.736.181-1.488.297-2.245.345Z" class="shade90"/>
    <path fill="#fff" d="M196.225 136.405c.051.24.077.484.075.73-.001.02.001.04.008.059a.129.129 0 0 0 .033.05.138.138 0 0 0 .05.032c.019.007.039.01.059.009.54-.045 2.28-.27 3.355-1.525.178-.211.329-.442.45-.69-1.3.42-2.61.805-3.93 1.165a.142.142 0 0 0-.083.065.143.143 0 0 0-.017.105Z" class="shade0"/>
    <path fill="#28192D" d="M196.44 137.535a.393.393 0 0 1-.39-.405 3.126 3.126 0 0 0-.07-.675.395.395 0 0 1 .28-.46c1.43-.39 2.71-.775 3.92-1.165a.252.252 0 0 1 .266.075.254.254 0 0 1 .034.275 3.672 3.672 0 0 1-.5.74c-1.14 1.335-3 1.57-3.525 1.61l-.015.005Zm.05-1.085c.033.19.053.382.06.575a4.762 4.762 0 0 0 3.065-1.43c0-.025.045-.05.065-.08-.995.315-2.045.62-3.18.935h-.01Z" class="shade90"/>
    <path fill="#fff" d="M200.61 133.115a4.656 4.656 0 0 0-.08-.565.135.135 0 0 0-.092-.107.136.136 0 0 0-.072-.005.128.128 0 0 0-.066.032 7.009 7.009 0 0 1-2.5 1.35c-.781.195-1.58.312-2.385.35a.145.145 0 0 0-.12.084.147.147 0 0 0 .015.146c.151.215.289.439.415.67.016.027.04.048.069.06a.15.15 0 0 0 .091.01 16.199 16.199 0 0 0 4.655-1.89.156.156 0 0 0 .052-.059.155.155 0 0 0 .018-.076Z" class="shade0"/>
    <path fill="#28192D" d="M195.85 135.395a.384.384 0 0 1-.34-.205 7.42 7.42 0 0 0-.405-.645.4.4 0 0 1-.035-.405.393.393 0 0 1 .33-.215 12.574 12.574 0 0 0 2.34-.345 6.743 6.743 0 0 0 2.4-1.305.397.397 0 0 1 .635.225c.042.196.069.395.08.595a.39.39 0 0 1-.185.37 16.484 16.484 0 0 1-4.73 1.92l-.09.01Zm-.23-1c.105.155.2.315.29.47a15.884 15.884 0 0 0 4.445-1.81c0-.1 0-.2-.035-.295a7.205 7.205 0 0 1-2.455 1.29c-.735.189-1.487.309-2.245.36v-.015Z" class="shade90"/>
    <path fill="#fff" d="M156.815 268.845H72a3.889 3.889 0 0 1-3.85-2.87l-16.5-66.115c-.54-2.275 1.33-4.435 3.85-4.435h84.785a3.89 3.89 0 0 1 3.85 2.865l16.525 66.115c.545 2.28-1.33 4.44-3.845 4.44Z" class="shade0"/>
    <path fill="#28192D" d="M156.815 269.095H72a4.114 4.114 0 0 1-4.095-3.06l-16.5-66.11a3.702 3.702 0 0 1 .715-3.16 4.273 4.273 0 0 1 3.38-1.59h84.785a4.118 4.118 0 0 1 4.095 3.06l16.525 66.11a3.692 3.692 0 0 1-.715 3.155 4.257 4.257 0 0 1-3.375 1.595ZM55.45 195.675a3.757 3.757 0 0 0-3 1.4 3.2 3.2 0 0 0-.625 2.73l16.53 66.11a3.654 3.654 0 0 0 3.605 2.68h84.855a3.758 3.758 0 0 0 3-1.405 3.19 3.19 0 0 0 .625-2.725l-16.5-66.115a3.665 3.665 0 0 0-3.61-2.675H55.45Z" class="shade90"/>
    <path fill="#fff" d="M154.75 268.845H69.915a3.888 3.888 0 0 1-3.85-2.87l-16.5-66.115c-.544-2.275 1.33-4.435 3.846-4.435h84.814a3.884 3.884 0 0 1 3.85 2.865l16.525 66.115c.54 2.28-1.33 4.44-3.85 4.44Z" class="shade0"/>
    <path fill="#28192D" d="M154.75 269.095H69.915a4.125 4.125 0 0 1-4.095-3.06l-16.5-66.11a3.704 3.704 0 0 1 .715-3.16 4.266 4.266 0 0 1 3.375-1.59h84.815a4.119 4.119 0 0 1 4.095 3.06l16.525 66.11a3.692 3.692 0 0 1-.715 3.155 4.262 4.262 0 0 1-3.38 1.595Zm-101.365-73.42a3.756 3.756 0 0 0-3 1.4 3.201 3.201 0 0 0-.625 2.73l16.53 66.11a3.654 3.654 0 0 0 3.605 2.68h84.855a3.746 3.746 0 0 0 3-1.405 3.191 3.191 0 0 0 .625-2.725L141.83 198.35a3.654 3.654 0 0 0-3.605-2.675h-84.84Z" class="shade90"/>
    <path fill="#F6D4A0" d="M57.68 216.06 76.725 197H55.58c-2.41 0-4.2 2.065-3.68 4.245l4.165 16.675a14.168 14.168 0 0 1 1.615-1.86Z" class="shade10" opacity=".12"/>
    <path fill="#F6D4A0" d="M132.43 255.025c6.165-4.38 12.41-8.655 18.545-13.075l-6.315-25.275-9.265 9.27-41.31 41.31h23.12c4.6-4.63 9.9-8.45 15.225-12.23Z" class="shade10" opacity=".07"/>
    <path fill="#F6D4A0" d="M155.065 258.31c-4.085 2.88-8.195 5.73-12.28 8.62l-.455.325h10.23c2.41 0 4.2-2.065 3.68-4.245l-1.175-4.7Z" class="shade10" opacity=".12"/>
    <path fill="#ECA3B5" d="M99.985 238.525a6.1 6.1 0 1 0 0-12.2 6.1 6.1 0 0 0 0 12.2Z" class="shade40"/>
  </g>
</svg>
