<svg xmlns="http://www.w3.org/2000/svg" width="400" height="300" fill="none" viewBox="0 0 400 300">
  <g class="Girl with Laptop">
    <path fill="#F6D4A0" d="M161.075 62.5c-67.945 0-123.03 55.065-123.03 123a122.783 122.783 0 0 0 45.66 95.65h154.74a122.781 122.781 0 0 0 45.66-95.65c0-67.935-55.08-123-123.03-123Z" class="shade10"/>
    <path fill="#28192D" d="m102.435 104.125 19.675 62.55h83.07v-2.565h-80.16l-18.215-59.985h-4.37Z" class="shade90"/>
    <path fill="#fff" d="M106.805 104.125h44.45l23.09 59.985-50.14-.245-18.815-59.74" class="shade0"/>
    <path fill="#28192D" d="m174.345 164.36-50.14-.245a.248.248 0 0 1-.24-.175L105.15 104.2a.26.26 0 1 1 .5-.15l18.76 59.565 49.59.245-22.895-59.5h-44.3a.249.249 0 0 1-.25-.25.25.25 0 0 1 .25-.25h44.45c.05 0 .1.016.142.044a.265.265 0 0 1 .093.116l23.09 60a.252.252 0 0 1-.235.34Zm-52.235 2.315L83.125 281.16h2.185l41.125-114.485h-4.325Zm52.595 0L213.69 281.16h-2.185l-41.13-114.485h4.33Zm30.065 0 38.985 114.485h-2.185l-41.13-114.485h4.33Z" class="shade90"/>
    <path fill="#28192D" d="M218.11 205.33H110.9a.255.255 0 0 1-.25-.25.252.252 0 0 1 .25-.25h107.21a.249.249 0 0 1 .25.25.25.25 0 0 1-.25.25Zm0 8.94H107.8a.254.254 0 0 1-.25-.25.25.25 0 0 1 .25-.25h110.31a.25.25 0 1 1 0 .5Z" class="shade90"/>
    <path fill="#fff" d="M170.375 164.11v2.565h35.165v-3.38l-35.165.815Z" class="shade0"/>
    <path fill="#28192D" d="M205.54 166.925h-35.165a.25.25 0 0 1-.25-.25v-2.565a.254.254 0 0 1 .245-.25l35.165-.815a.238.238 0 0 1 .18.07.253.253 0 0 1 .075.18v3.38a.25.25 0 0 1-.25.25Zm-34.915-.5h34.665v-2.875l-34.665.805v2.07Z" class="shade90"/>
    <path fill="#fff" d="m206.29 218.585-.545.725-13.3 24.05 14.94 4.37 18.945-23.68" class="shade0"/>
    <path fill="#28192D" d="M207.385 248h-.07l-14.94-4.37a.249.249 0 0 1-.096-.055.248.248 0 0 1-.064-.09.26.26 0 0 1 0-.22l13.3-24.045.565-.755a.234.234 0 0 1 .07-.077.239.239 0 0 1 .095-.042.26.26 0 0 1 .104 0 .26.26 0 0 1 .165.121.254.254 0 0 1-.034.293l-.545.73-13.13 23.745 14.5 4.24 18.84-23.555a.25.25 0 0 1 .35-.035.24.24 0 0 1 .094.167.246.246 0 0 1-.054.183l-18.945 23.68a.255.255 0 0 1-.205.085Z" class="shade90"/>
    <path fill="#fff" d="m296.995 153.73 27.77 11.47 18.135 16.22-9.545 6.235-29.075-15.345-7.285-18.58Z" class="shade0"/>
    <path fill="#28192D" d="M333.355 187.905a.266.266 0 0 1-.12-.03l-29.07-15.345a.239.239 0 0 1-.12-.13l-7.285-18.58a.257.257 0 0 1 .055-.27.25.25 0 0 1 .27-.05l27.775 11.47a.2.2 0 0 1 .07.045l18.135 16.22a.245.245 0 0 1-.03.395l-9.535 6.23a.227.227 0 0 1-.145.045Zm-28.855-15.77 28.86 15.23 9.15-6-17.86-15.975-27.19-11.23 7.04 17.975Z" class="shade90"/>
    <path fill="#A6C2EA" d="m181.13 164.295 54.655-1.795-34.25 57.93a98.9 98.9 0 0 0 12.75 8.745 33.99 33.99 0 0 0 13.12 4s29.875-37.89 38.62-54.285c8.745-16.395 8.74-22.59 6.92-34.615-1.82-12.025-41.17-13.115-41.17-13.115l-20.405 7.285-18.215 7.655-12.025 18.195Z" class="shade50"/>
    <path fill="#28192D" d="M227.5 233.415h-.13a34.6 34.6 0 0 1-13.225-4.04 99.401 99.401 0 0 1-12.79-8.77l-.165-.135.11-.185 34-57.535-54.68 1.82L193 145.875l18.285-7.68 20.46-7.305h.045c6.684.26 13.344.946 19.94 2.055 13.475 2.375 20.7 6.17 21.475 11.275 1.86 12.285 1.745 18.465-6.95 34.765S227.9 232.93 227.6 233.31l-.1.105Zm-25.66-13.07a97.811 97.811 0 0 0 12.55 8.585 34.15 34.15 0 0 0 12.88 3.965c1.745-2.215 30.105-38.375 38.5-54.145 8.62-16.165 8.735-22.29 6.895-34.455-1.745-11.5-39.335-12.855-40.885-12.905l-20.36 7.275-18.135 7.615-11.715 17.75 54.625-1.82-34.355 58.135Z" class="shade90"/>
    <path fill="#fff" d="M206.15 224.165a.287.287 0 0 1-.125-.03.254.254 0 0 1-.09-.345l44.19-76.4-4.895 1.275a.155.155 0 0 1-.08 0l-25.42-1.425a.25.25 0 0 1-.23-.24.258.258 0 0 1 .021-.095.253.253 0 0 1 .058-.079.23.23 0 0 1 .084-.049.228.228 0 0 1 .097-.012l25.385 1.425 5.44-1.415a.237.237 0 0 1 .26.09.24.24 0 0 1 0 .275l-44.5 76.915a.254.254 0 0 1-.195.11Z" class="shade0"/>
    <path fill="#28192D" d="M225.94 63.46s4.59 3.04 8.745 2.915c4.155-.125 6.565-1.18 6.565-1.18s0-2.23-4.085-6.325C233.08 54.775 230 51.555 230 51.555l-3.5-.56-2.695 8.125" class="shade90"/>
    <path fill="#fff" d="m222.09 60.32 6.11-13a25.082 25.082 0 0 1 1.935-9.1c2-4.83 4.405-11.065 6-13.075 1.595-2.01-1.82 11.295-1.82 11.295s.275-.19 5.1 1.82c.395.165.61.795.72 1.565a7.9 7.9 0 0 1-1.425 5.72c-.62.875-1.315 1.85-1.845 2.555-1.205 1.605-4.735 3.64-4.735 3.64l-4.82 17.855-5.22-9.275Z" class="shade0"/>
    <path fill="#28192D" d="M227.32 69.825a.24.24 0 0 1-.215-.13l-5.23-9.25a.243.243 0 0 1-.028-.115c0-.04.009-.08.028-.115l6.075-12.97c.088-3.14.75-6.238 1.955-9.14L231 35.5c1.78-4.35 3.625-8.85 4.975-10.54.085-.105.33-.41.615-.265.605.3-.045 4.17-1.925 11.5.55.115 1.825.53 4.88 1.805.44.18.725.755.875 1.755a8.149 8.149 0 0 1-1.47 5.905c-.53.75-1.285 1.805-1.85 2.56-1.13 1.5-4.15 3.32-4.72 3.655l-4.795 17.755a.248.248 0 0 1-.21.18l-.055.015Zm-4.945-9.5 4.865 8.61 4.66-17.265a.22.22 0 0 1 .115-.15c.035 0 3.5-2.03 4.66-3.575.56-.75 1.31-1.8 1.845-2.55a7.674 7.674 0 0 0 1.38-5.54c-.16-1.09-.45-1.32-.57-1.37-4.075-1.695-4.845-1.8-4.955-1.805a.274.274 0 0 1-.195-.04.245.245 0 0 1-.095-.27c1.22-4.735 2.33-9.91 2.245-11.06-1.31 1.65-3.21 6.3-4.895 10.4-.36.89-.72 1.765-1.07 2.6a25.082 25.082 0 0 0-1.915 9 .227.227 0 0 1 0 .11l-6.075 12.905Z" class="shade90"/>
    <path fill="#fff" d="M228.5 44.07c.02-2.23-.104-4.46-.37-6.675-.4-2.415-.895-3.74-.4-4.025.405-.23 2.23.135 3.215 4.025.054.305.079.615.075.925 0 0 2.58 1.38 2.215 3.93" class="shade0"/>
    <path fill="#28192D" d="M228.5 44.32a.251.251 0 0 1-.25-.25 52.354 52.354 0 0 0-.365-6.635c-.115-.69-.24-1.285-.345-1.805-.285-1.41-.445-2.185.065-2.5a1.162 1.162 0 0 1 1 .05c.645.275 1.845 1.18 2.595 4.13.049.23.073.465.07.7a1.52 1.52 0 0 0 0 .135c.53.33 2.555 1.76 2.22 4.115a.255.255 0 0 1-.285.21.248.248 0 0 1-.162-.097.254.254 0 0 1-.048-.183c.335-2.35-2.065-3.665-2.085-3.675a.266.266 0 0 1-.135-.205v-.29a2.85 2.85 0 0 0-.055-.59c-.725-2.84-1.855-3.6-2.305-3.79a.776.776 0 0 0-.55-.075c-.195.11 0 1 .18 1.94.11.5.23 1.125.345 1.825a50.56 50.56 0 0 1 .375 6.715.243.243 0 0 1-.069.199.244.244 0 0 1-.196.076Z" class="shade90"/>
    <path fill="#fff" d="M238.09 39.035s1.96-1.475 2.975-1.535c1.015-.06 1.235 3.675.635 5.07-.6 1.395-.96 1.075-1.375-.26a6.305 6.305 0 0 1-.16-2.715" class="shade0"/>
    <path fill="#28192D" d="M241 43.725c-.41 0-.65-.53-.905-1.34a6.575 6.575 0 0 1-.165-2.835.256.256 0 0 1 .295-.205.255.255 0 0 1 .205.295 6.229 6.229 0 0 0 .15 2.595c.275.875.435 1 .46 1 .025 0 .155-.07.45-.76.5-1.13.395-3.765-.155-4.555a.323.323 0 0 0-.235-.165c-.77.045-2.31 1.085-2.84 1.5a.249.249 0 0 1-.35-.05.25.25 0 0 1 .05-.35c.085-.06 2.03-1.5 3.11-1.585a.754.754 0 0 1 .675.38c.695 1 .715 3.85.205 5.04-.245.505-.53 1.035-.95 1.035Z" class="shade90"/>
    <path fill="#fff" d="M236.465 37.53s2.315-1.745 3.5-1.815c1.185-.07 1.46 4.345.75 6-.71 1.655-1.135 1.275-1.63-.31a7.44 7.44 0 0 1-.185-3.21" class="shade0"/>
    <path fill="#28192D" d="M239.925 43.04h-.03c-.455 0-.74-.635-1.025-1.555a7.596 7.596 0 0 1-.195-3.335.254.254 0 1 1 .5.095 7.312 7.312 0 0 0 .18 3.09c.36 1.15.555 1.205.575 1.21.02.005.195 0 .585-.925.58-1.345.47-4.5-.19-5.435a.41.41 0 0 0-.315-.215c-.925.055-2.755 1.29-3.385 1.765a.256.256 0 0 1-.35-.05.251.251 0 0 1-.048-.185.253.253 0 0 1 .098-.165c.095-.075 2.39-1.79 3.655-1.865a.832.832 0 0 1 .755.43c.815 1.165.84 4.5.24 5.92-.375.85-.69 1.22-1.05 1.22Z" class="shade90"/>
    <path fill="#fff" d="M234.965 37s2.41-1.605 3.62-1.605 1.205 4.425.4 6.03c-.805 1.605-1.205 1.21-1.61-.4a7.504 7.504 0 0 1 0-3.22" class="shade0"/>
    <path fill="#28192D" d="M238.13 42.69h-.06c-.455-.05-.705-.685-.935-1.615a7.56 7.56 0 0 1 0-3.34.248.248 0 0 1 .452-.067.256.256 0 0 1 .033.187 7.203 7.203 0 0 0 0 3.1c.29 1.17.5 1.235.5 1.235s.2 0 .635-.885c.655-1.31.73-4.46.125-5.435-.095-.16-.195-.235-.3-.235-.93 0-2.83 1.13-3.5 1.565a.254.254 0 0 1-.195.052.247.247 0 0 1-.171-.109.256.256 0 0 1-.034-.199.251.251 0 0 1 .125-.159c.1-.07 2.5-1.65 3.76-1.65a.837.837 0 0 1 .725.47c.75 1.21.58 4.565-.1 5.925-.385.81-.69 1.16-1.06 1.16Z" class="shade90"/>
    <path fill="#fff" d="M233.96 36.785S235.77 35 237 35s1.205 4.425.4 6.035c-.805 1.61-1.205 1.205-1.605-.4a7.442 7.442 0 0 1 0-3.22" class="shade0"/>
    <path fill="#28192D" d="M236.5 42.29h-.06c-.455-.05-.7-.68-.935-1.61a7.65 7.65 0 0 1 0-3.34.257.257 0 0 1 .305-.185.256.256 0 0 1 .18.305 7.275 7.275 0 0 0 0 3.095c.295 1.17.5 1.235.5 1.24 0 0 .2 0 .64-.885.655-1.315.725-4.465.12-5.44-.095-.155-.195-.235-.3-.235-.905 0-2.355 1.25-2.835 1.73a.248.248 0 0 1-.355 0 .244.244 0 0 1-.073-.177c0-.033.006-.066.019-.096a.243.243 0 0 1 .054-.082c.075-.075 1.895-1.875 3.19-1.875a.863.863 0 0 1 .73.5c.745 1.21.575 4.56-.105 5.92-.38.78-.705 1.135-1.075 1.135Z" class="shade90"/>
    <path fill="#A6C2EA" d="M147.245 137.7v26.595h33.885s37.925-17.355 57.96-25.545c8.805-3.6 15.275-3.24 15.275-3.24l44.37 47.815s10.645-6.275 18.66-12.105 8-6.925 8-6.925-45.895-41.9-52.45-48.095-38.62-1.09-75.785 5.465-51.37 15.67-51.37 15.67l1.455.365Z" class="shade50"/>
    <path fill="#28192D" d="m298.685 183.64-.135-.145-44.3-47.735c-.845-.03-7-.075-15.065 3.22-19.805 8.095-57.57 25.37-57.95 25.545H147v-26.65l-1.83-.46.5-.31c.145-.095 14.675-9.21 51.465-15.705 37.67-6.645 69.39-11.64 76-5.4 6.5 6.12 52 47.67 52.46 48.09l.08.075v.11c0 .59-2.13 2.77-8.12 7.125-7.93 5.77-18.575 12.055-18.68 12.12l-.19.12Zm-44.8-48.385h.6l.065.07L298.78 183c1.41-.84 11.11-6.635 18.47-12 6.405-4.66 7.635-6.255 7.865-6.65-2.705-2.47-46.025-42-52.34-48-6.44-6.08-38.035-1.095-75.57 5.53-32.86 5.8-47.895 13.685-50.765 15.325l1.06.295v26.54h33.58c1.575-.715 38.42-17.54 57.92-25.54 7.38-3 13.205-3.245 14.885-3.245Z" class="shade90"/>
    <path fill="#fff" d="M303.645 179.12a.259.259 0 0 1-.185-.085c-1.31-1.5-32.055-36.5-35.38-42.205-.355-.62-.72-1.255-1.085-1.905-3-5.245-6.355-11.185-10.595-11.185h-.17c-4.675.17-45.305 8.04-64.5 14.31-18.615 6.085-33.905 6-34.06 6a.258.258 0 0 1-.175-.077.243.243 0 0 1-.07-.178.247.247 0 0 1 .016-.097.245.245 0 0 1 .137-.134.246.246 0 0 1 .097-.014c.155 0 15.37.1 33.9-5.955 19.23-6.285 59.955-14.165 64.645-14.335h.19c4.525 0 8 6.07 11.025 11.44.365.645.725 1.28 1.085 1.895 3.3 5.68 35 41.765 35.32 42.13a.24.24 0 0 1 .054.08.238.238 0 0 1 0 .19.24.24 0 0 1-.054.08.233.233 0 0 1-.195.045ZM169.11 71.75l1.215-1.115a4.46 4.46 0 0 1 6.16.125c5.865 5.84 18.455 18.115 20.675 18.115 2.915 0 28.905-37.88 28.905-37.88s2.43 2.54 6.805 9.825c4.375 7.285 8.38 4.375 8.38 4.375s-33.05 45.46-38.26 47.5c-9.105 3.525-32.79-17.24-32.79-17.24l-1.09-23.705Z" class="shade0"/>
    <path fill="#28192D" d="M200.6 113.33c-10.245 0-29.67-16.925-30.565-17.705a.264.264 0 0 1-.085-.18l-1.09-23.68a.243.243 0 0 1 .017-.107.245.245 0 0 1 .063-.088l1.215-1.12a4.7 4.7 0 0 1 6.5.135c11.345 11.295 19 18.04 20.5 18.04 2.045 0 18.285-22.585 28.7-37.77a.249.249 0 0 1 .385-.03c.1.105 2.5 2.64 6.84 9.87 1.655 2.76 3.435 4.355 5.285 4.74a3.665 3.665 0 0 0 2.73-.445.25.25 0 0 1 .35.35c-1.35 1.86-33.15 45.545-38.37 47.57a6.89 6.89 0 0 1-2.475.42Zm-30.155-18c1.525 1.32 23.855 20.455 32.455 17.125 4.71-1.825 33.175-40.59 37.58-46.615-.713.22-1.47.255-2.2.1-2-.405-3.89-2.08-5.625-4.975-3.595-6-5.89-8.775-6.565-9.55-3.395 4.945-26.025 37.725-28.93 37.725-2.25 0-14.03-11.395-20.85-18.185a4.205 4.205 0 0 0-5.815-.12l-1.13 1.04 1.08 23.455Z" class="shade90"/>
    <path fill="#fff" d="M172.78 127.065s-6.585 1.525-15.695 15-9.085 22.23-9.085 22.23-10.93-5.465-11.295-20.405c-.365-14.94 2.55-18.58 2.915-30.605.365-12.025.365-25.5.365-33.155 0-7.655 15.665-18.215 24.775-16.03 9.11 2.185 11.225 6.795 11.225 6.795s6.265 12.15 6.265 19.44c0 7.29-6.925 9.835-6.925 9.835l-2.545 26.895Z" class="shade0"/>
    <path fill="#28192D" d="M148 164.545a.29.29 0 0 1-.11 0c-.11-.055-11.07-5.705-11.435-20.62a81.034 81.034 0 0 1 1.5-18.15 80.261 80.261 0 0 0 1.43-12.47c.365-12 .365-25.245.365-33.15 0-3.115 2.5-6.865 6.82-10.28 5.025-3.96 12.615-7.345 18.265-6 9.12 2.185 11.3 6.74 11.39 6.93.25.5 6.29 12.28 6.29 19.545 0 6.775-5.92 9.58-6.94 10l-2.5 26.745a.256.256 0 0 1-.195.22s-1.655.405-4.38 2.435c-2.5 1.875-6.5 5.56-11.165 12.465-8.95 13.25-9.065 22-9.065 22.085a.264.264 0 0 1-.12.215.239.239 0 0 1-.15.03Zm14.195-100.47c-4.06 0-9.765 1.78-15.33 6.165-4.15 3.275-6.63 6.97-6.63 9.89 0 7.905 0 21.14-.365 33.165a80.197 80.197 0 0 1-1.44 12.54 80.61 80.61 0 0 0-1.475 18.05c.32 13.13 8.975 18.915 10.815 20 .14-1.9 1.185-10.185 9.13-21.95 8.355-12.36 14.54-14.715 15.67-15.06l2.5-26.725a.246.246 0 0 1 .16-.21c.07-.025 6.76-2.58 6.76-9.6 0-7.145-6.175-19.205-6.24-19.325-.065-.12-2.195-4.54-11.06-6.665a10.595 10.595 0 0 0-2.52-.275h.025Z" class="shade90"/>
    <path fill="#28192D" d="M171.245 122.19s2.615 2.75 3.88 2.525c1.265-.225 1.36-2.5.865-5.565a19.192 19.192 0 0 0-1.335-4.805l-5.365 2.08 1.3 3.315" class="shade90"/>
    <path fill="#A6C2EA" d="M286.39 49.89c10.463 0 18.945-8.482 18.945-18.945 0-10.463-8.482-18.945-18.945-18.945-10.463 0-18.945 8.482-18.945 18.945 0 10.463 8.482 18.945 18.945 18.945Z" class="shade50" opacity=".91"/>
    <path fill="#28192D" d="M287.845 50.14a19.197 19.197 0 0 1-18.826-22.94 19.2 19.2 0 0 1 15.082-15.081 19.194 19.194 0 0 1 22.939 18.826 19.212 19.212 0 0 1-19.195 19.195Zm0-37.89a18.694 18.694 0 1 0 18.695 18.695 18.713 18.713 0 0 0-18.695-18.695Z" class="shade90"/>
    <path fill="#28192D" d="M275.83 31.19a42.214 42.214 0 0 1 6.945 5.035.335.335 0 1 0-.06-.66h-.035s0-.025.03-.05l.055-.08c5.67-8.455 15.04-16.63 25.6-17.285 1.113-.05 2.229.03 3.325.24a.253.253 0 0 1 .27.23.25.25 0 0 1-.06.183.25.25 0 0 1-.17.087 28.48 28.48 0 0 0-4.11 1.47 47.877 47.877 0 0 0-10.935 7.235 104.577 104.577 0 0 0-8.375 8.205c-1.45 1.37-2.44 3.58-4.625 3.885a3.772 3.772 0 0 1-3.6-1.55l-.43-.595-.86-1.2-3.37-4.84c-.155-.285.165-.5.405-.295v-.015Z" class="shade90"/>
    <path fill="#fff" d="M140.905 76.63s-17.34 26.455-18.435 37.37c-1.095 10.915 2.19 16.03 21.135 12.755 18.945-3.275 31.5-2.055 31.5-2.055l-3.83-13.25s-27.325-.73-28.055-.73c-.73 0 10.2-23.315 11.905-26.835" class="shade0"/>
    <path fill="#28192D" d="M134 128c-4.38 0-7.41-.87-9.295-2.625-2.29-2.13-3.055-5.64-2.5-11.38.455-4.565 3.705-12.265 9.655-22.89 4.425-7.895 8.77-14.545 8.815-14.61a.25.25 0 0 1 .453.185.229.229 0 0 1-.038.09c-.17.265-17.315 26.53-18.39 37.275-.555 5.565.16 8.95 2.325 10.965 2.92 2.715 8.805 3.2 18.5 1.5 17-2.94 29-2.25 31.225-2.085l-3.68-12.725c-2.39-.065-27.18-.725-27.865-.725a.304.304 0 0 1-.235-.13c-.56-.895 11.79-26.8 11.915-27.06a.246.246 0 0 1 .242-.158.251.251 0 0 1 .23.175c.01.032.013.067.01.101a.256.256 0 0 1-.032.097c-2.24 4.62-11.325 24.15-11.89 26.5 2.76.055 26.755.7 27.82.725a.244.244 0 0 1 .147.052.244.244 0 0 1 .088.128l3.83 13.25a.248.248 0 0 1-.045.23.272.272 0 0 1-.22.085c-.125 0-12.765-1.18-31.455 2.055-3.17.592-6.385.918-9.61.975Z" class="shade90"/>
    <path fill="#ECA3B5" d="M226.47 51.455a15.79 15.79 0 0 0-.405-.46l-.905 1.315c.529-.11.997-.415 1.31-.855Zm3.725 5.115a74.397 74.397 0 0 0-1.53-2.24v.18a2.15 2.15 0 0 0 1.53 2.06Zm-5.47 4.43a2.16 2.16 0 1 0 .011-4.32 2.16 2.16 0 0 0-.011 4.32Zm-64.105 4.295a2.153 2.153 0 0 0 2.035-1.47 16.22 16.22 0 0 0-3.915.36 2.15 2.15 0 0 0 1.88 1.11Zm58.485 0a2.154 2.154 0 1 0 0-4.31l-2.025 2.86a2.147 2.147 0 0 0 2.025 1.45Zm11.7 0a2.15 2.15 0 0 0 1.987-1.334c.162-.393.204-.827.121-1.244a2.162 2.162 0 0 0-1.695-1.69 2.153 2.153 0 0 0-2.573 2.113 2.147 2.147 0 0 0 .632 1.526 2.16 2.16 0 0 0 1.528.63ZM154.54 69.61a2.151 2.151 0 0 0 .36-4.275c-.725.28-1.45.595-2.165.94a2.151 2.151 0 0 0-.092 2.206 2.16 2.16 0 0 0 1.897 1.129Zm11.695-4.315a2.16 2.16 0 1 0 0 4.319 2.16 2.16 0 0 0 0-4.32Zm48.95 2.16a2.147 2.147 0 0 0-.145-.76c-.69.967-1.386 1.937-2.09 2.91h.08a2.155 2.155 0 0 0 2.155-2.15Zm9.54 2.155a2.159 2.159 0 1 0 .01-4.318 2.159 2.159 0 0 0-.01 4.318Zm11.7 0a2.159 2.159 0 1 0-2.16-2.155 2.157 2.157 0 0 0 2.16 2.155Zm-87.505 0a2.161 2.161 0 1 0-.01 4.322 2.161 2.161 0 0 0 .01-4.322Zm11.7 4.315a2.155 2.155 0 1 0 0-4.31 2.155 2.155 0 0 0 0 4.31Zm11.695-4.315a2.16 2.16 0 1 0 0 4.32 2.16 2.16 0 0 0 0-4.32Zm46.79 4.315a2.16 2.16 0 1 0-2.155-2.155 2.155 2.155 0 0 0 2.155 2.155Zm11.7 0a2.158 2.158 0 0 0 2.118-2.583 2.16 2.16 0 0 0-4.278.428 2.147 2.147 0 0 0 .632 1.526 2.161 2.161 0 0 0 1.528.629ZM142.84 78.24a2.16 2.16 0 1 0 0-4.315h-.165a14.904 14.904 0 0 0-1.77 2.685l-.095.145a2.148 2.148 0 0 0 2.03 1.485Zm11.7-4.315a2.158 2.158 0 0 0-2.124 2.578 2.16 2.16 0 1 0 2.124-2.578Zm11.695 0a2.16 2.16 0 1 0 1.997 1.333 2.145 2.145 0 0 0-1.169-1.17 2.16 2.16 0 0 0-.828-.163Zm11.7 4.315a2.16 2.16 0 1 0 .01-4.32 2.16 2.16 0 0 0-.01 4.32Zm35.095 0a2.161 2.161 0 0 0 1.526-3.69 2.161 2.161 0 1 0-2.352 3.527c.262.108.543.164.826.163Zm11.695 0a2.16 2.16 0 1 0 .01-4.32 2.16 2.16 0 0 0-.01 4.32Zm-85.345 2.155a2.165 2.165 0 0 0-.25-1c-.555.885-1.215 1.945-1.95 3.145h.045a2.154 2.154 0 0 0 2.155-2.145Zm9.54-2.155a2.16 2.16 0 1 0-.01 4.32 2.16 2.16 0 0 0 .01-4.32Zm11.7 0a2.16 2.16 0 1 0-.01 4.32 2.16 2.16 0 0 0 .01-4.32Zm11.695 0a2.158 2.158 0 0 0-2.118 2.583 2.16 2.16 0 0 0 4.278-.428 2.166 2.166 0 0 0-.633-1.526 2.15 2.15 0 0 0-1.527-.63v.001Zm9.54 2.155a2.162 2.162 0 0 0 2.158 2.264 2.16 2.16 0 0 0 2.127-2.544 336.512 336.512 0 0 1-1.97-1.86h-.155a2.156 2.156 0 0 0-2.16 2.14Zm25.555 2.16a2.16 2.16 0 1 0-1.055-4.03l-1.035 1.35a2.28 2.28 0 0 0-.07.5 2.163 2.163 0 0 0 .624 1.542 2.152 2.152 0 0 0 1.536.638Zm11.695 0a2.161 2.161 0 1 0 .01-4.322 2.161 2.161 0 0 0-.01 4.322Zm9.54-2.16c-.001.447.139.882.4 1.245l2.46-3.275a2.144 2.144 0 0 0-2.625 1.04 2.131 2.131 0 0 0-.235.99Zm-85.805 2.16a2.159 2.159 0 1 0 1.995 1.33 2.153 2.153 0 0 0-1.995-1.33Zm11.7 0a2.16 2.16 0 1 0 2.155 2.155 2.156 2.156 0 0 0-2.155-2.155Zm11.695 0a2.158 2.158 0 0 0-2.118 2.583 2.16 2.16 0 1 0 2.118-2.583Zm11.7 4.31a2.155 2.155 0 1 0 0-4.31 2.155 2.155 0 0 0 0 4.31Zm9.565-2.155a2.157 2.157 0 0 0 3.426 1.753c.431-.316.73-.78.839-1.303a89.45 89.45 0 0 1-2.81-2.5 2.148 2.148 0 0 0-1.455 2.05Zm16 0a2.143 2.143 0 0 0-.715-1.59c-1 1.27-1.955 2.39-2.76 3.29a2.132 2.132 0 0 0 2.841-.174c.405-.405.633-.953.634-1.526Zm9.53 2.16a2.16 2.16 0 1 0 0-4.319 2.16 2.16 0 0 0 0 4.319Zm11.695-4.315a2.161 2.161 0 0 0-1.46 3.648c.383.401.906.64 1.46.667.128-.003.255-.017.38-.04l1.76-2.31a2.153 2.153 0 0 0-2.14-1.965Zm-87.5 4.315a2.154 2.154 0 0 0-.42 4.269 2.155 2.155 0 1 0 .42-4.269Zm11.695 0a2.157 2.157 0 0 0-2.114 2.575 2.15 2.15 0 0 0 1.693 1.694 2.154 2.154 0 0 0 1.944-3.638 2.154 2.154 0 0 0-1.523-.63Zm11.7 0a2.154 2.154 0 0 0-1.524 3.679 2.152 2.152 0 0 0 2.349.467 2.16 2.16 0 0 0 1.33-1.99 2.155 2.155 0 0 0-2.155-2.156Zm11.695 0a2.156 2.156 0 1 0 .01 4.312 2.156 2.156 0 0 0-.01-4.312ZM184 91.18a2.156 2.156 0 1 0-.01-4.312 2.156 2.156 0 0 0 .01 4.312Zm9.555-2.155a2.155 2.155 0 0 0 2.157 2.056 2.158 2.158 0 0 0 2.158-2.056c0-.155-.019-.31-.055-.46-.186.162-.412.27-.655.31-.5 0-1.46-.585-2.755-1.555a2.144 2.144 0 0 0-.85 1.705Zm13.855 2.155a2.156 2.156 0 1 0-.01-4.312 2.156 2.156 0 0 0 .01 4.312Zm11.695 0a2.154 2.154 0 0 0 1.524-3.679 2.153 2.153 0 0 0-3.316.327 2.155 2.155 0 0 0 1.792 3.352ZM133.3 93.34a2.154 2.154 0 0 0-1.285-1.97c-.69 1.23-1.38 2.5-2.055 3.77a2.154 2.154 0 0 0 3.34-1.8Zm9.54-2.16a2.157 2.157 0 0 0-1.996 1.333 2.167 2.167 0 0 0 .468 2.354 2.16 2.16 0 1 0 1.528-3.687Zm11.7 0a2.158 2.158 0 0 0-2.124 2.578 2.16 2.16 0 1 0 2.124-2.578Zm11.695 0a2.16 2.16 0 1 0 0 4.319 2.16 2.16 0 0 0 0-4.32Zm11.7 4.32a2.159 2.159 0 1 0-2.155-2.155 2.16 2.16 0 0 0 .631 1.524 2.163 2.163 0 0 0 1.524.63Zm11.7 0a2.159 2.159 0 1 0-2.16-2.155 2.157 2.157 0 0 0 2.16 2.155Zm11.695 0a2.161 2.161 0 0 0 2.124-2.58 2.162 2.162 0 0 0-2.948-1.575 2.159 2.159 0 0 0 .824 4.155Zm11.7 0a2.162 2.162 0 0 0 1.996-1.335 2.158 2.158 0 0 0-3.794-2.022 2.158 2.158 0 0 0 1.798 3.357Zm-75.805 0a2.161 2.161 0 1 0-.01 4.322 2.161 2.161 0 0 0 .01-4.322Zm11.695 0a2.161 2.161 0 1 0-.01 4.322 2.161 2.161 0 0 0 .01-4.322Zm11.7 0a2.16 2.16 0 1 0-.009 4.32 2.16 2.16 0 0 0 .009-4.32Zm11.695 0a2.16 2.16 0 1 0 0 4.32 2.16 2.16 0 0 0 0-4.32ZM184 99.81a2.158 2.158 0 0 0 2.118-2.583 2.16 2.16 0 0 0-4.278.428A2.157 2.157 0 0 0 184 99.81Zm11.71 0a2.162 2.162 0 0 0 2.123-2.58 2.161 2.161 0 0 0-2.947-1.575 2.159 2.159 0 0 0 .824 4.155Zm11.7 0a2.164 2.164 0 0 0 1.996-1.335 2.16 2.16 0 1 0-1.996 1.335Zm9.59-2.545 1.255-1.59a2.168 2.168 0 0 0-1.255 1.59Zm-85.855 2.545a2.158 2.158 0 0 0-2.123 2.58 2.157 2.157 0 0 0 1.698 1.699 2.162 2.162 0 0 0 2.58-2.124 2.157 2.157 0 0 0-2.155-2.155Zm11.695 0a2.163 2.163 0 0 0-1.996 1.335 2.16 2.16 0 1 0 4.156.82 2.151 2.151 0 0 0-1.334-1.992 2.155 2.155 0 0 0-.826-.163Zm11.7 0a2.159 2.159 0 1 0 2.155 2.155 2.157 2.157 0 0 0-2.155-2.155Zm11.695 0a2.162 2.162 0 0 0-2.118 2.583 2.16 2.16 0 1 0 2.118-2.583Zm11.7 0a2.155 2.155 0 0 0-1.545.655c1.055.81 2.2 1.675 3.42 2.555a2.149 2.149 0 0 0-1.875-3.21Zm11.7 4.315a2.165 2.165 0 0 0 1.995-1.333 2.159 2.159 0 1 0-4.155-.827 2.144 2.144 0 0 0 1.332 1.997c.263.108.544.164.828.163Zm11.695 0a2.158 2.158 0 0 0 2.124-2.578 2.162 2.162 0 0 0-2.945-1.578 2.161 2.161 0 0 0 .821 4.156Zm9.54-2.16a2.142 2.142 0 0 0 .885 1.735c.875-1.045 1.79-2.155 2.73-3.315a2.146 2.146 0 0 0-2.326-.397 2.15 2.15 0 0 0-1.289 1.977Zm-83.19 4.315a2.15 2.15 0 0 0-2.115-2.15 66.876 66.876 0 0 0-1.5 3.73 2.14 2.14 0 0 0 3.27-.395 2.14 2.14 0 0 0 .345-1.185Zm9.545-2.155a2.16 2.16 0 1 0-.01 4.318 2.16 2.16 0 0 0 .01-4.318Zm11.695 0a2.16 2.16 0 1 0 2.155 2.155 2.155 2.155 0 0 0-2.155-2.155Zm11.7 0a2.16 2.16 0 1 0 2.155 2.155 2.155 2.155 0 0 0-2.155-2.155Zm11.695 0a2.163 2.163 0 0 0-1.996 1.335 2.159 2.159 0 0 0 2.826 2.819 2.159 2.159 0 0 0 1.166-2.825 2.165 2.165 0 0 0-1.17-1.166 2.146 2.146 0 0 0-.826-.163Zm11.685 0a2.15 2.15 0 0 0-1.605.725c1.155.795 2.35 1.58 3.555 2.335a2.13 2.13 0 0 0-.427-2.429 2.154 2.154 0 0 0-1.523-.631Zm11.71 4.315a2.165 2.165 0 0 0 1.999-1.33 2.159 2.159 0 1 0-1.999 1.33Zm11.7-4.315a2.163 2.163 0 0 0-1.594.594 2.167 2.167 0 0 0-.67 1.564 2.163 2.163 0 0 0 2.529 2.127c.595-.65 1.225-1.365 1.89-2.13a2.157 2.157 0 0 0-2.155-2.155Zm-76.265 4.315a2.158 2.158 0 0 0-2.123 2.58 2.157 2.157 0 0 0 1.698 1.699 2.162 2.162 0 0 0 2.58-2.124 2.155 2.155 0 0 0-2.155-2.155Zm58.49 0c-.379 0-.75.102-1.075.295a57.664 57.664 0 0 0 3.215 1.715 2.15 2.15 0 0 0-2.14-2.01Zm11.695 4.315a2.158 2.158 0 0 0 2.124-2.578 2.162 2.162 0 0 0-2.945-1.578 2.156 2.156 0 0 0-1.334 1.996 2.166 2.166 0 0 0 2.155 2.16Zm-75.805 0a2.152 2.152 0 0 0-2.113 2.575c.083.418.288.802.589 1.104a2.16 2.16 0 0 0 2.349.467 2.15 2.15 0 0 0 1.33-1.991 2.155 2.155 0 0 0-2.155-2.155Zm11.7 0a2.152 2.152 0 0 0-2.113 2.575 2.154 2.154 0 1 0 2.113-2.575Zm11.695 0a2.155 2.155 0 1 0-.002 4.31 2.155 2.155 0 0 0 .002-4.31Zm11.7 0a2.152 2.152 0 0 0-1.991 1.33 2.157 2.157 0 0 0 .467 2.349 2.153 2.153 0 0 0 2.349.467 2.156 2.156 0 0 0-.825-4.146Zm11.695 0a2.155 2.155 0 1 0 1.455 3.74l.27-2.87a2.143 2.143 0 0 0-1.725-.87Zm-41.17 4.31a2.158 2.158 0 0 0-2.124 2.578 2.162 2.162 0 0 0 2.945 1.578 2.155 2.155 0 0 0 .702-3.52 2.166 2.166 0 0 0-1.523-.636Zm11.695 0a2.16 2.16 0 1 0 0 4.32 2.16 2.16 0 0 0 0-4.32Zm11.7 0a2.156 2.156 0 0 0-1.999 1.33 2.159 2.159 0 1 0 1.999-1.33Zm11.695 0a2.163 2.163 0 0 0-1.995 1.333 2.158 2.158 0 0 0 1.574 2.945 2.159 2.159 0 0 0 1.949-3.645 2.164 2.164 0 0 0-1.528-.633Zm-38.555 6.475a2.152 2.152 0 0 0-3.48-1.681c-.425.331-.71.81-.8 1.341a6.928 6.928 0 0 0 2.09 2.5h.035a2.148 2.148 0 0 0 1.526-.633 2.163 2.163 0 0 0 .629-1.527Zm9.545-2.16a2.165 2.165 0 0 0-2.125 2.578 2.162 2.162 0 0 0 2.945 1.578c.395-.163.733-.44.97-.796a2.156 2.156 0 0 0 .202-2.026 2.153 2.153 0 0 0-1.992-1.334Zm11.695 0a2.166 2.166 0 0 0-1.202.361 2.163 2.163 0 0 0-.332 3.324 2.16 2.16 0 1 0 1.534-3.685Zm11.7 0a2.165 2.165 0 0 0-1.999 1.33 2.159 2.159 0 1 0 4.154.83 2.15 2.15 0 0 0-2.155-2.16Zm11.695 0a2.146 2.146 0 0 0-.911.18 2.153 2.153 0 0 0-1.275 2.283 2.149 2.149 0 0 0 .987 1.524 2.154 2.154 0 0 0 1.799.233l.095-1 1.15.06a2.164 2.164 0 0 0-.31-2.64 2.165 2.165 0 0 0-1.535-.64Zm-41.17 4.315a2.15 2.15 0 0 0-2.065 1.56c1.382.313 2.793.481 4.21.5a2.153 2.153 0 0 0-2.145-2.06Zm35.09 0a2.163 2.163 0 0 0-1.996 1.335 2.159 2.159 0 0 0 2.826 2.819 2.159 2.159 0 0 0 1.166-2.825 2.165 2.165 0 0 0-1.17-1.166 2.146 2.146 0 0 0-.826-.163Zm-26.855 6.47a2.139 2.139 0 0 0-1.92-2.13 68.808 68.808 0 0 0-.5 4.26c.091.015.183.025.275.03a2.156 2.156 0 0 0 2.145-2.16Zm9.54-2.165a2.16 2.16 0 1 0 2.155 2.155A2.155 2.155 0 0 0 148.92 130Zm11.7 0a2.16 2.16 0 1 0 2.155 2.155A2.155 2.155 0 0 0 160.62 130Zm-17.78 4.325a2.158 2.158 0 0 0-1.533 3.682 2.16 2.16 0 0 0 3.534-2.339 2.173 2.173 0 0 0-.467-.707 2.157 2.157 0 0 0-1.534-.636Zm11.7 0a2.16 2.16 0 1 0 2.155 2.155 2.155 2.155 0 0 0-2.155-2.155Zm-15.16 6.47a2.164 2.164 0 0 0-.631-1.524 2.155 2.155 0 0 0-1.524-.631c-.18.003-.36.026-.535.07a86.95 86.95 0 0 0-.025 4.16 2.082 2.082 0 0 0 1.385-.084 2.155 2.155 0 0 0 1.33-1.991Zm9.54-2.155a2.155 2.155 0 1 0-.002 4.31 2.155 2.155 0 0 0 .002-4.31Zm-6.08 4.31a2.16 2.16 0 1 0 0 4.32 2.16 2.16 0 0 0 0-4.32Zm11.7 0a2.15 2.15 0 0 0-.615 4.215c.645-1.14 1.36-2.33 2.155-3.565a2.137 2.137 0 0 0-1.54-.65Zm-15.16 6.475a2.146 2.146 0 0 0-.63-1.527 2.16 2.16 0 0 0-1.525-.633 2.061 2.061 0 0 0-.26.025c.199 1.413.513 2.808.94 4.17a2.151 2.151 0 0 0 1.475-2.035Zm9.54-2.16a2.166 2.166 0 0 0-1.202.361 2.163 2.163 0 0 0-.332 3.324 2.16 2.16 0 1 0 1.534-3.685Zm-6.08 4.315a2.163 2.163 0 0 0-1.996 1.335 2.16 2.16 0 1 0 4.156.82 2.151 2.151 0 0 0-1.334-1.992 2.15 2.15 0 0 0-.826-.163Zm3.925 6.47a2.14 2.14 0 0 0 1.835 2.125 40.365 40.365 0 0 1 1.21-4.085 2.155 2.155 0 0 0-3.045 1.96Zm-3.835 2.165a20.643 20.643 0 0 0 2.055 2 2.156 2.156 0 0 0-2.055-2Z" class="shade40"/>
    <path fill="#fff" d="M265.585 116.165H210.7c-2.475 0-4.17-2.68-3.04-4.81L228.525 72a2.997 2.997 0 0 1 2.655-1.575h54.89c2.47 0 4.165 2.685 3.04 4.815l-20.865 39.37a2.998 2.998 0 0 1-2.66 1.555Z" class="shade0"/>
    <path fill="#28192D" d="M265.585 116.415H210.7a3.631 3.631 0 0 1-3.125-1.79 3.409 3.409 0 0 1-.135-3.385l20.865-39.375a3.228 3.228 0 0 1 2.875-1.705h54.89a3.632 3.632 0 0 1 3.125 1.795 3.429 3.429 0 0 1 .135 3.385l-20.865 39.375a3.235 3.235 0 0 1-2.88 1.7ZM231.18 70.66a2.733 2.733 0 0 0-2.435 1.44l-20.865 39.37a2.908 2.908 0 0 0 .125 2.895 3.13 3.13 0 0 0 2.695 1.55h54.885c.498.004.989-.127 1.419-.379a2.762 2.762 0 0 0 1.021-1.056l20.865-39.375a2.93 2.93 0 0 0-.125-2.89 3.14 3.14 0 0 0-2.695-1.555h-54.89Z" class="shade90"/>
    <path fill="#28192D" d="M266.56 116.165h-54.885c-2.47 0-4.17-2.68-3.04-4.81L229.5 72a3.001 3.001 0 0 1 2.66-1.575h56.76c2.47 0 2.295 2.685 1.165 4.815l-20.865 39.37a2.972 2.972 0 0 1-2.66 1.555Z" class="shade90"/>
    <path fill="#28192D" d="M217.18 116.17h-32.77v-2.04l32.79-2.845-.02 4.885Z" class="shade90"/>
    <path fill="#fff" d="M203 112.72a.248.248 0 0 1-.172-.065.248.248 0 0 1 .152-.43l6.77-.545a.248.248 0 0 1 .27.23.255.255 0 0 1-.23.27l-6.79.54Zm62.73-40.22h-3.44a.251.251 0 0 1-.25-.25.25.25 0 0 1 .25-.25h3.44a.251.251 0 0 1 .25.25.25.25 0 0 1-.25.25Zm-21.955.04h-14.43a.25.25 0 1 1 0-.5c9.5.03 19.415.03 28.73 0a.25.25 0 1 1 0 .5c-4.65-.005-9.465 0-14.3 0Zm-46.92 43.28c-1.195-.12-11.895-3.945-11.895-3.945l-13.665-.41c.25 2.865 1.635 6.135 2.31 9l2.425-.975c2.602.363 5.164.974 7.65 1.825 4.375 1.455 13.62 2 16.895-2 3.275-4-.225-3.15-3.72-3.495Z" class="shade0"/>
    <path fill="#28192D" d="M191.265 122.645a26.105 26.105 0 0 1-7.66-1.105 42.279 42.279 0 0 0-7.54-1.805l-2.365.95a.24.24 0 0 1-.292-.065.21.21 0 0 1-.043-.095c-.245-1.04-.58-2.11-.935-3.245a28.923 28.923 0 0 1-1.385-5.78.254.254 0 0 1 .065-.19.247.247 0 0 1 .19-.08l13.665.41a.215.215 0 0 1 .08 0c3.69 1.32 10.915 3.84 11.835 3.93.665.065 1.32.09 1.95.11 1.605.05 2.875.095 3.22.86.275.61-.12 1.5-1.28 2.93-1.95 2.385-5.77 3.175-9.505 3.175Zm-15.235-3.415h.03c2.619.362 5.197.975 7.7 1.83 4.245 1.415 13.435 2 16.625-1.91 1.225-1.5 1.335-2.135 1.21-2.41-.22-.5-1.465-.525-2.78-.565-.64-.025-1.305-.045-2-.115-1.185-.115-11.115-3.655-11.915-3.945l-13.345-.395a30.64 30.64 0 0 0 1.34 5.395c.32 1.04.63 2.03.87 3l2.155-.865a.218.218 0 0 1 .11-.02Z" class="shade90"/>
    <path fill="#fff" d="M192.265 116.425s5.325 3.395 9.125 1.545Z" class="shade0"/>
    <path fill="#28192D" d="M198.79 118.775c-3.255 0-6.5-2.03-6.66-2.14a.266.266 0 0 1-.076-.066.271.271 0 0 1-.043-.091.24.24 0 0 1 .033-.195.24.24 0 0 1 .07-.072.263.263 0 0 1 .093-.039.264.264 0 0 1 .101.002.246.246 0 0 1 .092.041c.05.03 5.25 3.3 8.88 1.53a.262.262 0 0 1 .095-.025.262.262 0 0 1 .096.013c.031.011.06.028.085.049a.264.264 0 0 1 .059.078c.014.03.023.062.025.095a.249.249 0 0 1-.14.24 6.112 6.112 0 0 1-2.71.58Z" class="shade90"/>
    <path fill="#fff" d="M190.69 118.355s5.32 3.4 9.125 1.545Z" class="shade0"/>
    <path fill="#28192D" d="M197.215 120.71c-3.255 0-6.5-2.035-6.66-2.145a.242.242 0 0 1-.112-.156.264.264 0 0 1-.003-.097.234.234 0 0 1 .035-.092.256.256 0 0 1 .35-.075c.05.035 5.25 3.3 8.88 1.53a.255.255 0 0 1 .335.115c.014.03.023.062.025.095a.251.251 0 0 1-.14.24c-.847.4-1.774.6-2.71.585Z" class="shade90"/>
    <path fill="#fff" d="m178.16 111.735 4.765.14s8.225-.64 10.5-1.445c2.275-.805 1.6 1.32-.24 2.675-1.84 1.355-2.5 1.04-2.5 1.04" class="shade0"/>
    <path fill="#28192D" d="M190.905 114.43a.787.787 0 0 1-.325-.055.26.26 0 0 1-.128-.143.26.26 0 0 1 .008-.192.24.24 0 0 1 .059-.079.246.246 0 0 1 .276-.041s.63.175 2.245-1c1.195-.88 1.725-1.955 1.555-2.275-.07-.135-.395-.2-1.08.04-2.285.81-10.23 1.43-10.57 1.455l-4.795-.14a.245.245 0 0 1-.174-.08.247.247 0 0 1-.05-.084.24.24 0 0 1-.016-.096.269.269 0 0 1 .255-.24l4.77.14c.055 0 8.19-.645 10.415-1.43 1.105-.39 1.525-.11 1.685.195.35.66-.41 1.965-1.695 2.915-1.285.95-2.045 1.11-2.435 1.11Z" class="shade90"/>
    <path fill="#fff" d="M189.6 120.145s3.5 1.845 6.235 1.76Z" class="shade0"/>
    <path fill="#28192D" d="M195.645 122.155c-2.74 0-6-1.715-6.16-1.79a.243.243 0 0 1-.144-.145.242.242 0 0 1 .012-.204.239.239 0 0 1 .067-.081.23.23 0 0 1 .094-.046.244.244 0 0 1 .201.036c.035 0 3.5 1.825 6.115 1.73a.247.247 0 0 1 .255.24.23.23 0 0 1-.015.097.25.25 0 0 1-.225.163h-.2Z" class="shade90"/>
    <path fill="#ECA3B5" d="M249.845 99.5s-3.325-7.675-.775-10.4c2.55-2.725 3.83 2.6 3.83 2.6s2.775-3.29 5.775-1.355c3 1.935-8.83 9.155-8.83 9.155Z" class="shade40"/>
    <path fill="#28192D" d="M136.68 112.81a.264.264 0 0 1-.195-.095.239.239 0 0 1-.055-.183.248.248 0 0 1 .095-.167c.095-.08 2.38-1.87 6.935-1.875a.254.254 0 0 1 .175.075.26.26 0 0 1 .075.175.252.252 0 0 1-.25.25c-4.365 0-6.6 1.745-6.62 1.765a.283.283 0 0 1-.16.055Zm58.195-18.65a.253.253 0 0 1-.085 0 .24.24 0 0 1-.141-.126.253.253 0 0 1-.024-.094.258.258 0 0 1 .015-.095c.05-.15 1.285-3.585 3.38-5.75a.253.253 0 0 1 .176-.076.254.254 0 0 1 .179.071.26.26 0 0 1 .076.177.247.247 0 0 1-.071.178c-2 2.085-3.26 5.53-3.27 5.565a.258.258 0 0 1-.235.15Zm-24.965 7.29c-.565 0-.93-.03-1-.035a.25.25 0 0 1-.142-.441.25.25 0 0 1 .182-.059c.05 0 5 .38 8-1.88a.248.248 0 0 1 .35.045.255.255 0 0 1-.05.35c-2.34 1.78-5.695 2.02-7.34 2.02Zm83.971 26.286-.498.047.728 7.761.498-.047-.728-7.761Z" class="shade90"/>
    <path fill="#F6D4A0" d="M246.715 146.135s-9.5 13.93-14.8 22.88Z" class="shade10"/>
    <path fill="#28192D" d="m232.13 169.14-.43-.255c5.235-8.855 14.715-22.75 14.81-22.89l.415.28c-.095.14-9.565 14.025-14.795 22.865Z" class="shade90"/>
    <path fill="#fff" d="m389.9 195.265-52.205 9.835s-2.445-.36-3.905-4.37-5.465-15.305-5.465-15.305 5.96-1.08 7.65-2.185c1.69-1.105 5.83-4.37 5.83-4.37l1.155.19c15.54 2.555 29.82 4.215 38.7 5.125 5.83.6 9.335.88 9.335.88s4.735 9.105-1.095 10.2Z" class="shade0"/>
    <path fill="#28192D" d="M337.695 205.35h-.04c-.105 0-2.61-.435-4.1-4.535-1.44-3.96-5.425-15.19-5.465-15.305a.255.255 0 0 1 0-.21.252.252 0 0 1 .072-.077.254.254 0 0 1 .098-.043c.06 0 5.93-1.085 7.56-2.15s5.77-4.325 5.81-4.355a.234.234 0 0 1 .2-.05l1.155.19c15.41 2.535 29.54 4.185 38.68 5.12 5.76.595 9.295.875 9.33.88a.24.24 0 0 1 .2.135c.12.225 2.89 5.63 1.41 8.675a3.496 3.496 0 0 1-2.68 1.885l-52.185 9.84h-.045Zm-9.035-19.73c.625 1.755 4.05 11.41 5.365 15.025 1.285 3.535 3.37 4.135 3.67 4.2 1.665-.31 46.44-8.755 52.16-9.825a3.002 3.002 0 0 0 2.32-1.615c1.26-2.585-.94-7.285-1.34-8.105-.715-.055-4.075-.34-9.2-.865-9.135-.935-23.285-2.59-38.715-5.125l-1.045-.175c-.62.5-4.195 3.295-5.76 4.315-1.565 1.02-6.225 1.935-7.455 2.17Z" class="shade90"/>
    <path fill="#ECA3B5" d="M371.305 197.57c-6.445.975-12.895 1.865-19.325 2.92-5.755.945-11.53 1.8-17.355 2 1.4 2.345 3.07 2.6 3.07 2.6l52.205-9.825a3.503 3.503 0 0 0 2.035-1.06c-6.875 1.14-13.74 2.295-20.63 3.365Z" class="shade40"/>
    <path fill="#28192D" d="M334.345 202.255a.244.244 0 0 1-.183-.059.252.252 0 0 1-.028-.354.252.252 0 0 1 .171-.087l58.44-10a.251.251 0 0 1 .293.208.25.25 0 0 1-.116.257.27.27 0 0 1-.092.035l-58.44 10h-.045Z" class="shade90"/>
    <path fill="#ECA3B5" d="M381.66 184.185c-5.575 1.39-13.94 3.13-21.61 3.405-13 .465-17.83-1.675-17.765-3.4.035-1 .385-3.315.675-5.13 15.54 2.555 29.82 4.215 38.7 5.125Z" class="shade40"/>
    <path fill="#28192D" d="M337.695 205.35h-.04c-.105 0-2.61-.435-4.1-4.535-1.44-3.96-5.425-15.19-5.465-15.305a.255.255 0 0 1 0-.21.252.252 0 0 1 .072-.077.254.254 0 0 1 .098-.043c.06 0 5.93-1.085 7.56-2.15s5.77-4.325 5.81-4.355a.234.234 0 0 1 .2-.05l1.155.19c15.41 2.535 29.54 4.185 38.68 5.12 5.76.595 9.295.875 9.33.88a.24.24 0 0 1 .2.135c.12.225 2.89 5.63 1.41 8.675a3.496 3.496 0 0 1-2.68 1.885l-52.185 9.84h-.045Zm-9.035-19.73c.625 1.755 4.05 11.41 5.365 15.025 1.285 3.535 3.37 4.135 3.67 4.2 1.665-.31 46.44-8.755 52.16-9.825a3.002 3.002 0 0 0 2.32-1.615c1.26-2.585-.94-7.285-1.34-8.105-.715-.055-4.075-.34-9.2-.865-9.135-.935-23.285-2.59-38.715-5.125l-1.045-.175c-.62.5-4.195 3.295-5.76 4.315-1.565 1.02-6.225 1.935-7.455 2.17Z" class="shade90"/>
    <path fill="#28192D" d="M356.5 187.905a.243.243 0 0 1-.205-.11.25.25 0 0 1-.004-.28.242.242 0 0 1 .069-.07l9.735-6.61a.257.257 0 0 1 .35.07.251.251 0 0 1-.07.345l-9.735 6.61a.243.243 0 0 1-.14.045Zm-6.175-1.03a.247.247 0 0 1-.249-.173.244.244 0 0 1 .109-.282l9.735-6.61a.25.25 0 0 1 .28.415l-9.735 6.61a.248.248 0 0 1-.14.04Zm-4.87-1.61a.253.253 0 0 1-.236-.176.25.25 0 0 1 .096-.279l9.735-6.61a.255.255 0 0 1 .35.065.26.26 0 0 1-.065.35l-9.74 6.605a.243.243 0 0 1-.14.045Zm-6.42 19.835a.254.254 0 0 1-.225-.145l-1.59-3.375a.255.255 0 0 1-.008-.19.255.255 0 0 1 .222-.164.238.238 0 0 1 .179.065.235.235 0 0 1 .057.079l1.595 3.37a.253.253 0 0 1-.23.36Zm3.37-.645a.26.26 0 0 1-.23-.145l-1.59-3.37a.261.261 0 0 1-.01-.193.26.26 0 0 1 .13-.142.256.256 0 0 1 .335.12l1.59 3.375a.25.25 0 0 1-.225.355Zm3.365-.645a.26.26 0 0 1-.23-.145l-1.59-3.37a.261.261 0 0 1-.01-.193.253.253 0 0 1 .465-.022l1.59 3.375c.015.03.023.062.025.094a.258.258 0 0 1-.015.096.23.23 0 0 1-.051.083.27.27 0 0 1-.184.082Z" class="shade90"/>
    <path fill="#28192D" d="M349.135 203.165a.246.246 0 0 1-.225-.145l-1.595-3.37c-.04-.115-3.555-9.345-16.89-8.13a.262.262 0 0 1-.18-.058.26.26 0 0 1-.09-.167.253.253 0 0 1 .057-.181.248.248 0 0 1 .168-.089c7.155-.65 11.5 1.665 13.89 3.725a12.586 12.586 0 0 1 3.5 4.705l1.58 3.355a.242.242 0 0 1 .01.19.245.245 0 0 1-.13.14.262.262 0 0 1-.095.025Z" class="shade90"/>
    <path fill="#28192D" d="M352.5 202.5a.24.24 0 0 1-.225-.145L350.68 199c-5.06-12.07-19.835-7.65-20-7.605a.245.245 0 0 1-.296-.351.252.252 0 0 1 .146-.124c.155-.05 15.36-4.6 20.59 7.875l1.585 3.365a.241.241 0 0 1-.12.33.203.203 0 0 1-.085.01Zm3.365-.625a.242.242 0 0 1-.225-.14l-1.59-3.375a.244.244 0 0 1-.012-.191.249.249 0 0 1 .127-.144.253.253 0 0 1 .335.12l1.59 3.375a.252.252 0 0 1 .012.189.257.257 0 0 1-.049.083.26.26 0 0 1-.188.083Zm3.365-.645a.25.25 0 0 1-.225-.14l-1.59-3.375a.258.258 0 0 1-.032-.097.248.248 0 0 1 .141-.252.243.243 0 0 1 .199-.007.257.257 0 0 1 .142.141l1.595 3.375a.26.26 0 0 1 .008.192.26.26 0 0 1-.128.143.278.278 0 0 1-.11.02Zm3.365-.645a.25.25 0 0 1-.225-.14l-1.59-3.375a.251.251 0 0 1 .125-.317.252.252 0 0 1 .325.102l1.595 3.375a.255.255 0 0 1-.12.335.275.275 0 0 1-.11.02Zm3.37-.64a.273.273 0 0 1-.136-.04.264.264 0 0 1-.094-.105l-1.59-3.375a.235.235 0 0 1-.035-.099.244.244 0 0 1 .058-.196.254.254 0 0 1 .186-.087.255.255 0 0 1 .241.172l1.595 3.37a.261.261 0 0 1 .01.192.254.254 0 0 1-.235.168Zm3.365-.645a.244.244 0 0 1-.225-.145l-1.605-3.375a.261.261 0 0 1-.024-.094.238.238 0 0 1 .065-.179.235.235 0 0 1 .079-.057.254.254 0 0 1 .277.041.253.253 0 0 1 .058.079l1.59 3.37a.254.254 0 0 1-.041.277.253.253 0 0 1-.079.058.284.284 0 0 1-.095.025Zm3.365-.645a.246.246 0 0 1-.225-.145l-1.595-3.375a.25.25 0 0 1 .455-.21l1.59 3.37a.244.244 0 0 1 .01.193.257.257 0 0 1-.05.084.269.269 0 0 1-.185.083Zm3.365-.655a.244.244 0 0 1-.225-.145l-1.595-3.355a.247.247 0 0 1-.009-.192.261.261 0 0 1 .05-.085.253.253 0 0 1 .414.062l1.59 3.375c.027.06.03.128.008.19a.255.255 0 0 1-.128.14.267.267 0 0 1-.105.01Zm3.365-.635a.244.244 0 0 1-.225-.145l-1.59-3.37a.24.24 0 0 1-.031-.097.246.246 0 0 1 .14-.252.248.248 0 0 1 .285.049.257.257 0 0 1 .056.085l1.59 3.365a.251.251 0 0 1 .01.19.25.25 0 0 1-.13.14.261.261 0 0 1-.105.035Zm3.365-.645a.244.244 0 0 1-.225-.145l-1.566-3.37a.276.276 0 0 1-.031-.097.271.271 0 0 1 .01-.102.262.262 0 0 1 .05-.089.258.258 0 0 1 .18-.086.243.243 0 0 1 .1.018.257.257 0 0 1 .142.141l1.59 3.375a.251.251 0 0 1 .024.094.261.261 0 0 1-.015.096.257.257 0 0 1-.259.165Zm3.365-.645a.252.252 0 0 1-.225-.145l-1.59-3.37a.257.257 0 0 1-.021-.199.246.246 0 0 1 .131-.15.246.246 0 0 1 .199-.007.241.241 0 0 1 .141.141l1.595 3.375a.248.248 0 0 1-.12.33.207.207 0 0 1-.11.025Zm3.345-.645a.25.25 0 0 1-.225-.14l-1.59-3.375a.244.244 0 0 1 .041-.277.253.253 0 0 1 .268-.066.253.253 0 0 1 .141.128l1.595 3.375a.261.261 0 0 1 .01.193.25.25 0 0 1-.13.142.278.278 0 0 1-.11.02Zm2.8-1.64a.24.24 0 0 1-.23-.155l-1-2.375a.25.25 0 0 1 .46-.195l1 2.38a.242.242 0 0 1 .001.191.245.245 0 0 1-.136.134.208.208 0 0 1-.095.02Z" class="shade90"/>
    <path fill="#fff" d="M235.42 280.765c-18.67-2.65-30.335-8.765-47.37-21.195-2.16-2.93-1.44-2.96-.185-6.37s4.75-10.39 6.42-14.465c2.28 1.21 4.5 2.965 7 3.62 2.5.655 4.885.755 7.42 1.155.045.2.64.715.815 1 6.91 10.475 12.575 19.5 23.545 23.85 7.205 2.845 3.26 1.295 9.83 3.92-.085-.475 11.195 11.135-7.475 8.485Z" class="shade0"/>
    <path fill="#28192D" d="M240.245 281.405a34.846 34.846 0 0 1-4.86-.395c-19.275-2.735-31.115-9.3-47.5-21.24l-.05-.05c-1.805-2.45-1.685-3-.81-5.105.17-.42.375-.91.59-1.5.695-1.895 2.1-4.92 3.455-7.85 1.09-2.36 2.225-4.805 2.97-6.625a.265.265 0 0 1 .145-.14.241.241 0 0 1 .103-.022.24.24 0 0 1 .102.022c.72.38 1.45.825 2.15 1.255 1.535.935 3.125 1.905 4.8 2.345 1.579.382 3.183.651 4.8.805.845.1 1.715.205 2.595.34.05.009.097.033.133.069a.247.247 0 0 1 .072.131c.117.154.244.299.38.435.144.14.277.292.395.455l.73 1.105c6.54 9.925 12.19 18.5 22.7 22.645 4.28 1.69 4.63 1.83 5.58 2.215l4.17 1.675c.135 0 .265.12.405.255.905.855 4.05 4.55 2.865 7-.665 1.455-2.665 2.175-5.92 2.175Zm-4.79-.905c6.075.865 9.655.285 10.36-1.675.815-2.275-2.405-5.905-2.96-6.34h-.045c-2.675-1.065-3.61-1.445-4.26-1.705-.95-.385-1.3-.5-5.575-2.215-10.655-4.205-16.345-12.84-22.93-22.835l-.73-1.105a4.273 4.273 0 0 0-.34-.385 3.831 3.831 0 0 1-.435-.5 76.477 76.477 0 0 0-2.445-.32 34.446 34.446 0 0 1-4.87-.815c-1.745-.46-3.365-1.45-4.93-2.405a47.675 47.675 0 0 0-1.885-1.11c-.745 1.8-1.825 4.13-2.875 6.39-1.35 2.92-2.745 5.94-3.435 7.815-.22.595-.425 1.09-.6 1.5-.8 1.95-.95 2.31.73 4.585 16.27 11.89 28.065 18.415 47.225 21.12Z" class="shade90"/>
    <path fill="#ECA3B5" d="M217.85 277c-7.345-2.22-11.645-5.11-17.025-10.285-4.81-4.635-9.105-7.105-13.85-11.295-.14 1.375-.5 2.785.5 4 20.84 13.425 24.765 17.615 50 21.855 4 .675-.21-.245 2.83-.175-8.06-1.6-14.61-1.75-22.455-4.1Z" class="shade40"/>
    <path fill="#fff" d="M187.14 254.875c22.915 15 26.44 19.09 54.47 24.36Z" class="shade0"/>
    <path fill="#28192D" d="M241.61 279.5h-.045c-24.84-4.67-30.5-8.435-47.32-19.61-2.2-1.46-4.59-3.05-7.24-4.785a.245.245 0 0 1-.135-.158.252.252 0 0 1 .106-.28.25.25 0 0 1 .206-.028c.034.01.066.027.093.051 2.655 1.735 5.045 3.325 7.245 4.785 16.755 11.13 22.395 14.88 47.14 19.53a.255.255 0 0 1 .158.107.245.245 0 0 1 .037.188.248.248 0 0 1-.086.145.248.248 0 0 1-.159.055Z" class="shade90"/>
    <path fill="#ECA3B5" d="M233.73 268.575c-5.27 1.055-15.855-3.345-18.415-5.5-4.35-3.685-10.605-11.73-9.82-15.31.445-2.05 3.04-1.765 3.9-3.325 8.035 10.925 11.225 18.985 24.335 24.135Z" class="shade40"/>
    <path fill="#28192D" d="M240.265 281.41a35.137 35.137 0 0 1-4.88-.4c-19.275-2.735-31.115-9.3-47.5-21.24l-.05-.05c-1.805-2.45-1.685-3-.81-5.105.17-.42.375-.91.59-1.5.695-1.895 2.1-4.92 3.455-7.85 1.09-2.36 2.225-4.805 2.97-6.625a.265.265 0 0 1 .145-.14.241.241 0 0 1 .103-.022.24.24 0 0 1 .102.022c.72.38 1.45.825 2.15 1.255 1.535.935 3.125 1.905 4.8 2.345 1.579.382 3.183.651 4.8.805.845.1 1.715.205 2.595.34.05.009.097.033.133.069a.247.247 0 0 1 .072.131c.117.154.244.299.38.435.144.14.277.292.395.455l.73 1.105c6.54 9.925 12.19 18.5 22.7 22.645 4.28 1.69 4.63 1.83 5.58 2.215.645.26 1.57.635 4.2 1.685.03.006.059.016.085.03l.07.07c.585.595 4.025 4.325 3.13 6.92-.525 1.605-2.525 2.405-5.945 2.405Zm-4.81-.91c5.885.835 9.425.325 10.24-1.5 1-2.24-2.355-6.04-2.915-6.56l-4.23-1.695c-.95-.385-1.3-.5-5.575-2.215-10.655-4.205-16.345-12.84-22.93-22.835l-.73-1.105a4.273 4.273 0 0 0-.34-.385 3.831 3.831 0 0 1-.435-.5 76.477 76.477 0 0 0-2.445-.32 34.446 34.446 0 0 1-4.87-.815c-1.745-.46-3.365-1.45-4.93-2.405a47.675 47.675 0 0 0-1.885-1.11c-.745 1.8-1.825 4.13-2.875 6.39-1.35 2.92-2.745 5.94-3.435 7.815-.22.595-.425 1.09-.6 1.5-.8 1.95-.95 2.31.73 4.585 16.27 11.925 28.065 18.45 47.225 21.155Z" class="shade90"/>
    <path fill="#28192D" d="M219.38 261.065a43.78 43.78 0 0 1-7.03-.54.248.248 0 0 1-.206-.187.249.249 0 0 1 .098-.262.251.251 0 0 1 .188-.046 46.97 46.97 0 0 0 10.59.41.26.26 0 0 1 .265.235.246.246 0 0 1-.014.097.23.23 0 0 1-.049.084.237.237 0 0 1-.078.059.239.239 0 0 1-.094.025c-1.265.06-2.485.125-3.67.125Zm.365-4.175a67.056 67.056 0 0 1-10.395-1.535.254.254 0 0 1-.198-.203.254.254 0 0 1 .111-.261.26.26 0 0 1 .192-.036 66.682 66.682 0 0 0 10.32 1.5c.033.002.065.01.095.025.03.014.056.034.078.059a.245.245 0 0 1 .062.181.25.25 0 0 1-.16.252.25.25 0 0 1-.105.018Zm-1.695-4.22H218c-3.76-.5-7.45-1.255-10.91-2a.249.249 0 0 1-.162-.109.253.253 0 0 1 .262-.391c3.455.725 7.135 1.5 10.88 1.97a.251.251 0 0 1 .21.285.244.244 0 0 1-.23.245Z" class="shade90"/>
    <path fill="#fff" d="m188.555 260.11 1.215-3.5Z" class="shade0"/>
    <path fill="#28192D" d="M188.555 260.36a.215.215 0 0 1-.08 0 .24.24 0 0 1-.144-.128.24.24 0 0 1-.011-.192l.705-2.035.5-1.46a.252.252 0 0 1 .315-.155.256.256 0 0 1 .155.32l-.5 1.46c-.235.68-.475 1.355-.71 2.035a.246.246 0 0 1-.23.155Z" class="shade90"/>
    <path fill="#fff" d="M191.5 261.965c.41-1.165.815-2.335 1.215-3.5Z" class="shade0"/>
    <path fill="#28192D" d="M191.5 262.215a.215.215 0 0 1-.08 0 .252.252 0 0 1-.155-.315c.405-1.17.815-2.335 1.215-3.5a.246.246 0 0 1 .126-.144.25.25 0 0 1 .349.304c-.405 1.17-.81 2.335-1.22 3.5a.25.25 0 0 1-.235.155Z" class="shade90"/>
    <path fill="#fff" d="M194.37 263.915c.42-1.19.85-2.375 1.28-3.565Z" class="shade0"/>
    <path fill="#28192D" d="M194.37 264.165a.243.243 0 0 1-.085 0 .24.24 0 0 1-.141-.126.256.256 0 0 1-.024-.094.256.256 0 0 1 .015-.095c.335-.955.68-1.905 1.025-2.855l.255-.71a.262.262 0 0 1 .128-.147.25.25 0 0 1 .337.122.254.254 0 0 1 .005.195l-.255.71c-.345.95-.69 1.9-1.025 2.85a.247.247 0 0 1-.094.113.249.249 0 0 1-.141.037Z" class="shade90"/>
    <path fill="#28192D" d="M197.055 266.5a.303.303 0 0 1-.095 0 .257.257 0 0 1-.137-.133.243.243 0 0 1-.02-.096.243.243 0 0 1 .017-.096c.263-.581.487-1.179.67-1.79.306-.951.67-1.883 1.09-2.79 1.63-3.9-1.26-13.905-6.97-16.88a.239.239 0 0 1-.076-.062.22.22 0 0 1-.047-.086c-.01-.032-.013-.065-.01-.098a.256.256 0 0 1 .174-.217c.031-.01.064-.013.096-.01a.251.251 0 0 1 .093.028c5.53 2.885 9.065 13.055 7.2 17.5-.402.888-.749 1.8-1.04 2.73a14.6 14.6 0 0 1-.69 1.855.253.253 0 0 1-.255.145Z" class="shade90"/>
    <path fill="#28192D" d="M199.815 268.5a.243.243 0 0 1-.085 0 .235.235 0 0 1-.084-.048.233.233 0 0 1-.082-.171.258.258 0 0 1 .016-.096v-.085c.43-1.215.875-2.475 1.365-3.695 2.965-8.06-.33-15.295-9.035-19.855a.253.253 0 0 1-.121-.149.254.254 0 0 1 .016-.191.25.25 0 0 1 .335-.105c8.955 4.69 12.335 12.155 9.275 20.475-.5 1.22-.935 2.5-1.36 3.685l-.03.085a.257.257 0 0 1-.084.104.26.26 0 0 1-.126.046Z" class="shade90"/>
    <path fill="#fff" d="M202.375 270.57a92.855 92.855 0 0 1 1.275-3.83Z" class="shade0"/>
    <path fill="#28192D" d="m202.62 270.625-.245-.055-.235-.1c.4-1.255.815-2.555 1.275-3.815a.259.259 0 0 1 .325-.15.251.251 0 0 1 .145.32 75.148 75.148 0 0 0-1.265 3.8Z" class="shade90"/>
    <path fill="#fff" d="M205 272.765c.32-1.29.67-2.57 1.085-3.83Z" class="shade0"/>
    <path fill="#28192D" d="M205 273h-.06a.253.253 0 0 1-.185-.305 57.4 57.4 0 0 1 1.09-3.85.253.253 0 0 1 .462-.037.245.245 0 0 1 .013.192 56.361 56.361 0 0 0-1.08 3.815.254.254 0 0 1-.088.134.253.253 0 0 1-.152.051Z" class="shade90"/>
    <path fill="#fff" d="M207.925 274.655c.195-1.272.474-2.53.835-3.765Z" class="shade0"/>
    <path fill="#28192D" d="M207.925 274.905h-.04a.254.254 0 0 1-.21-.285c.198-1.284.481-2.553.845-3.8a.253.253 0 0 1 .121-.147.254.254 0 0 1 .277.021.24.24 0 0 1 .063.075.24.24 0 0 1 .019.191 30.366 30.366 0 0 0-.83 3.735.25.25 0 0 1-.245.21Z" class="shade90"/>
    <path fill="#fff" d="M211.45 276.07c.16-1.22.35-2.43.535-3.645Z" class="shade0"/>
    <path fill="#28192D" d="M211.45 276.32h-.03a.248.248 0 0 1-.167-.094.24.24 0 0 1-.048-.186c.125-1 .275-1.95.42-2.925l.11-.72a.248.248 0 0 1 .187-.206.269.269 0 0 1 .098-.004.254.254 0 0 1 .21.285l-.11.72c-.145 1-.295 1.945-.42 2.915a.254.254 0 0 1-.25.215Z" class="shade90"/>
    <path fill="#fff" d="M215.165 277.32c.095-1.22.245-2.435.41-3.65Z" class="shade0"/>
    <path fill="#28192D" d="M215.165 277.57a.266.266 0 0 1-.171-.087.249.249 0 0 1-.047-.086.245.245 0 0 1-.012-.097c.1-1.26.255-2.5.41-3.665a.257.257 0 0 1 .098-.167.251.251 0 0 1 .089-.042.233.233 0 0 1 .098-.006.246.246 0 0 1 .21.187c.008.032.01.065.005.098a67.712 67.712 0 0 0-.41 3.635.242.242 0 0 1-.087.171.251.251 0 0 1-.183.059Z" class="shade90"/>
    <path fill="#fff" d="M218.935 278.42c.03-1.22.12-2.44.235-3.65Z" class="shade0"/>
    <path fill="#28192D" d="M218.935 278.67a.237.237 0 0 1-.095-.023.235.235 0 0 1-.079-.057.24.24 0 0 1-.051-.083.23.23 0 0 1-.015-.097c.03-1.12.105-2.32.235-3.665a.259.259 0 0 1 .275-.225.257.257 0 0 1 .225.27c-.13 1.335-.205 2.5-.235 3.635a.253.253 0 0 1-.26.245Z" class="shade90"/>
    <path fill="#fff" d="M222.74 279.29c0-1.21 0-2.415.06-3.62Z" class="shade0"/>
    <path fill="#28192D" d="M222.74 279.54a.255.255 0 0 1-.25-.25c0-1.225.03-2.45.06-3.63a.261.261 0 0 1 .26-.245.25.25 0 0 1 .24.26c-.03 1.175-.065 2.395-.06 3.61a.255.255 0 0 1-.25.255Z" class="shade90"/>
    <path fill="#fff" d="M226.555 279.915c-.06-1.2-.09-2.405-.13-3.605Z" class="shade0"/>
    <path fill="#28192D" d="M226.555 280.165a.248.248 0 0 1-.245-.235c-.05-.93-.08-1.855-.11-2.78v-.835a.243.243 0 0 1 .067-.178.232.232 0 0 1 .079-.056.257.257 0 0 1 .094-.021.23.23 0 0 1 .098.012.23.23 0 0 1 .085.051c.025.022.044.05.057.08a.22.22 0 0 1 .02.097v.835c.03.92.06 1.845.105 2.765a.245.245 0 0 1-.062.181.237.237 0 0 1-.078.059.244.244 0 0 1-.095.025h-.015Z" class="shade90"/>
    <path fill="#fff" d="M230.305 280.33c-.13-1.195-.195-2.4-.265-3.605Z" class="shade0"/>
    <path fill="#28192D" d="M230.3 280.58a.248.248 0 0 1-.245-.22c-.115-1.045-.175-2.11-.235-3.135l-.03-.5a.245.245 0 0 1 .062-.181.237.237 0 0 1 .078-.059.244.244 0 0 1 .191-.012c.032.011.06.028.085.049a.264.264 0 0 1 .059.078c.014.03.023.062.025.095l.03.5c.06 1 .12 2.08.23 3.11a.252.252 0 0 1-.22.275h-.03Z" class="shade90"/>
    <path fill="#fff" d="M234 280.645c-.125-1.225-.285-2.45-.405-3.68Z" class="shade0"/>
    <path fill="#28192D" d="M234 280.895a.255.255 0 0 1-.25-.22c-.055-.565-.12-1.13-.185-1.69-.08-.665-.155-1.33-.22-2a.27.27 0 0 1 .009-.098.255.255 0 0 1 .122-.149.256.256 0 0 1 .094-.028.26.26 0 0 1 .27.225c.065.665.145 1.325.22 2 .065.565.13 1.13.19 1.695a.25.25 0 0 1-.225.275l-.025-.01Z" class="shade90"/>
    <path fill="#fff" d="M237.5 281.115c-.16-1.255-.29-2.5-.42-3.77Z" class="shade0"/>
    <path fill="#28192D" d="M237.5 281.365a.248.248 0 0 1-.245-.22c-.15-1.15-.27-2.315-.39-3.445l-.035-.325a.251.251 0 0 1 .053-.183.249.249 0 0 1 .442.128l.035.325c.12 1.13.245 2.295.39 3.435a.252.252 0 0 1-.215.28l-.035.005Z" class="shade90"/>
    <path fill="#fff" d="M240.65 280.535c-.065-.87-.12-1.74-.185-2.615Z" class="shade0"/>
    <path fill="#28192D" d="M240.65 280.785a.25.25 0 0 1-.25-.23c-.04-.5-.07-1-.105-1.5l-.075-1.11a.256.256 0 0 1 .138-.242.245.245 0 0 1 .192-.013c.031.01.06.027.085.048a.255.255 0 0 1 .085.172c.03.37.055.74.08 1.115.03.5.065 1 .105 1.5a.249.249 0 0 1-.135.243.265.265 0 0 1-.095.027l-.025-.01Z" class="shade90"/>
    <path fill="#fff" d="M145.075 78.285s-2.73-1.5-4.405-.87Z" class="shade0"/>
    <path fill="#28192D" d="M145.075 78.535a.238.238 0 0 1-.12-.03c-.03 0-2.65-1.43-4.2-.855a.252.252 0 0 1-.327-.148.273.273 0 0 1-.015-.098.245.245 0 0 1 .086-.175.246.246 0 0 1 .086-.05c1.76-.65 4.5.82 4.605.886a.247.247 0 0 1 .009.433.25.25 0 0 1-.124.037Z" class="shade90"/>
    <path fill="#A6C2EA" d="M168.055 129.73s8.03 1.62 6.29 12Z" class="shade50"/>
    <path fill="#28192D" d="m174.59 141.755-.5-.08c1.675-10-5.775-11.635-6.095-11.695l.1-.5c.095.02 8.255 1.795 6.495 12.275Z" class="shade90"/>
    <path fill="#A6C2EA" d="M151.275 164.115a7.732 7.732 0 0 0 2.26-5.54l-.03-2.4 14 1.35c.911.072 1.786.39 2.53.92 1.165.85 2.345 2.5 2.06 5.67" class="shade50"/>
    <path fill="#28192D" d="m151.45 164.29-.35-.355a7.5 7.5 0 0 0 2.185-5.36l-.03-2.675 14.29 1.375a5.322 5.322 0 0 1 2.655.97c1.15.84 2.46 2.55 2.16 5.89l-.5-.045c.28-3.11-.915-4.675-1.96-5.44a4.883 4.883 0 0 0-2.41-.88l-13.735-1.32.025 2.12a8.056 8.056 0 0 1-.593 3.093 8.046 8.046 0 0 1-1.737 2.627Z" class="shade90"/>
    <path fill="#F6D4A0" d="M155.555 158s-.275 3.945-1.75 6.32Z" class="shade10"/>
    <path fill="#28192D" d="m154 164.425-.425-.26c1.425-2.3 1.705-6.17 1.71-6.21l.5.035c.005.165-.285 4.035-1.785 6.435ZM149.09 46.25s0-6.805-11.5-3.825c-11.5 2.98-11.72 13.665-2.915 18.58 8.805 4.915 14.05-4.065 14.575-8 .525-3.935.2-5.26.2-5.26l-.36-1.495Z" class="shade90"/>
    <path fill="#fff" d="M148.53 41.525s-1-.115-1.935 1.075.5 4.725 1.24 5.065c.74.34 4.9-2.035 4.9-2.035l-4.205-4.105Z" class="shade0"/>
    <path fill="#28192D" d="M148 47.94a.712.712 0 0 1-.27-.045c-.56-.26-1.215-1.67-1.5-2.83-.205-.825-.34-1.955.165-2.615 1-1.29 2.115-1.18 2.165-1.175.055.006.106.03.145.07l4.205 4.105a.261.261 0 0 1 .07.21.241.241 0 0 1-.12.185c-.915.525-3.755 2.095-4.86 2.095Zm.425-6.17a2.183 2.183 0 0 0-1.63 1c-.3.39-.33 1.19-.08 2.2.32 1.305.95 2.365 1.225 2.5.355.165 2.5-.805 4.38-1.865l-3.895-3.835Z" class="shade90"/>
    <path fill="#28192D" d="M166.635 57.44a10.668 10.668 0 0 1-9.33 0c-5.17-2.44-11.24-12.94-9.175-19.725 2.065-6.785 17.335-12.5 20.965-8.365 3.63 4.135-2.46 28.09-2.46 28.09Z" class="shade90"/>
    <path fill="#fff" d="M170.215 66.1c0-.035.03-.065.04-.1l2.915-12.665-8.595-5.835-6.075 16.725a8.269 8.269 0 0 1 2.095 1.78c2.545 3.66 5.4 5.135 8.13 8.61a1.96 1.96 0 0 0 .67-.78 17.247 17.247 0 0 1 .82-7.735Z" class="shade0"/>
    <path fill="#28192D" d="M168.735 74.865a.24.24 0 0 1-.195-.095 32.363 32.363 0 0 0-3.79-3.915 27.407 27.407 0 0 1-4.35-4.705 8.013 8.013 0 0 0-2-1.69.248.248 0 0 1-.14-.315l6.065-16.75a.266.266 0 0 1 .16-.15.243.243 0 0 1 .22.03l8.59 5.855a.255.255 0 0 1 .105.26l-2.9 12.665-.03.085-.255-.04.235.085a16.91 16.91 0 0 0-.8 7.62.277.277 0 0 1 0 .14c-.17.355-.43.658-.755.88a.23.23 0 0 1-.16.04ZM158.82 64.11a8.685 8.685 0 0 1 2 1.755 26.61 26.61 0 0 0 4.28 4.62 33.397 33.397 0 0 1 3.69 3.785c.149-.145.272-.314.365-.5-.309-2.62-.02-5.277.845-7.77l.03-.075 2.88-12.5-8.21-5.555-5.88 16.24Z" class="shade90"/>
    <path fill="#28192D" d="m164.575 47.5-.885 2.395c.74 5.535 3.07 10.34 7.83 10.64l1.65-7.18-8.595-5.855Z" class="shade90"/>
    <path fill="#fff" d="M158.83 32.845c3.105-4.04 8.81-4.91 13.19-2.305 2.71 1.61 5.78 4.345 8.31 9 6 11.05-4.6 22.295-14.5 13.4-7.545-6.81-11.375-14.415-7-20.095Z" class="shade0"/>
    <path fill="#28192D" d="M173.185 56.405c-2.285 0-4.87-.905-7.5-3.275-8.555-7.7-11.125-15.15-7.055-20.435 3.135-4.07 8.945-5.09 13.5-2.37 3.385 2 6.215 5.075 8.4 9.1 2.555 4.695 2.66 11.405-2.075 15.14a8.536 8.536 0 0 1-5.27 1.84Zm-6.525-27.1A9.58 9.58 0 0 0 159.025 33c-3.89 5.05-1.34 12.255 7 19.76 3.15 2.83 8 4.69 12.15 1.41 4.5-3.56 4.4-10 1.945-14.5-2.14-3.945-4.91-6.945-8.215-8.91a10.227 10.227 0 0 0-5.245-1.455Z" class="shade90"/>
    <path fill="#fff" d="m164.94 51.805-.13.03Z" class="shade0"/>
    <path fill="#28192D" d="M164.81 52.085a.25.25 0 0 1-.28-.22.253.253 0 0 1 .22-.28l.125-.035a.259.259 0 1 1 .135.5l-.14.035h-.06Z" class="shade90"/>
    <path fill="#fff" d="M164.81 51.835c-.765.19-4.65 1-6.695-1.585-2.27-2.85 1.32-4.775 3.195-3" class="shade0"/>
    <path fill="#28192D" d="M162.58 52.345c-1.5 0-3.41-.37-4.66-1.935s-.84-2.755-.115-3.43a2.747 2.747 0 0 1 3.675.08.247.247 0 0 1 .055.274.247.247 0 0 1-.055.081.244.244 0 0 1-.35 0 2.228 2.228 0 0 0-3-.075c-.73.67-.665 1.7.17 2.745 1.945 2.445 5.7 1.68 6.435 1.5a.253.253 0 0 1 .192.029.245.245 0 0 1 .113.156.25.25 0 0 1-.185.3 10.11 10.11 0 0 1-2.275.275Z" class="shade90"/>
    <path fill="#fff" d="M159.375 48.32s-.69 1.5 1.53 2.5Z" class="shade0"/>
    <path fill="#28192D" d="M160.905 51.075a.261.261 0 0 1-.105 0c-2.415-1.12-1.66-2.825-1.655-2.84a.257.257 0 0 1 .142-.13.251.251 0 0 1 .193.01.24.24 0 0 1 .13.14.241.241 0 0 1-.01.19c-.025.055-.535 1.275 1.41 2.175a.252.252 0 0 1 .144.24.261.261 0 0 1-.024.095.241.241 0 0 1-.225.12Zm-2.62-5.035 3.925 2s-2.72-5.75-3.285-7.63l-.565-1.88a46.154 46.154 0 0 0 6.14-6.305c3.305-4.03 5.3-2.875 5.3-2.875l-3.3-1.045c-1.255-.4-6.78 2.605-6.78 2.605l-4.105 4.2-.575 2.785 3 7.86" class="shade90"/>
    <path fill="#fff" d="M170.35 42.805s-2.3-.57-4.035 2.315Z" class="shade0"/>
    <path fill="#28192D" d="M170.35 42.805c-1.56.545-2.63 1.5-4.035 2.315 0-1.875 2.42-3.55 4.035-2.315Z" class="shade90"/>
    <path fill="#fff" d="M174.115 42.14c.15.285.915 1.895 1.03 2 1.075 1 1.74.73 1.36 1.71-.255.65-1.34.85-2.205.82" class="shade0"/>
    <path fill="#28192D" d="M174.47 46.93h-.18a.247.247 0 0 1-.219-.35.259.259 0 0 1 .138-.133.252.252 0 0 1 .096-.017c.815.035 1.775-.165 1.97-.66.195-.495.145-.435-.28-.685a5.307 5.307 0 0 1-1.025-.755 10.184 10.184 0 0 1-.82-1.55l-.254-.5a.248.248 0 0 1 .016-.288.246.246 0 0 1 .276-.081.253.253 0 0 1 .148.134l.265.53c.225.455.639 1.305.73 1.42.276.262.585.487.919.67.501.295.796.5.501 1.3-.295.8-1.341.965-2.281.965Z" class="shade90"/>
    <path fill="#fff" d="M174.425 41a3.201 3.201 0 0 1 3.43-1.695" class="shade0"/>
    <path fill="#28192D" d="M174.425 41c-.215-1.725 2.205-2.935 3.43-1.695-1.28.565-2.195 1.035-3.43 1.695Z" class="shade90"/>
    <path fill="#fff" d="M176.255 48.675s-2.62.225-4.075.305a9.612 9.612 0 0 1-2.36-.185 6.31 6.31 0 0 0 2.455 2.315 3.882 3.882 0 0 0 3.315.165 3.402 3.402 0 0 1 .5-2.375l.165-.225Z" class="shade0"/>
    <path fill="#28192D" d="M174.09 51.825a3.998 3.998 0 0 1-1.935-.5 6.5 6.5 0 0 1-2.555-2.42.25.25 0 0 1 .023-.267.247.247 0 0 1 .252-.093 9.435 9.435 0 0 0 2.29.18c1.435-.08 4.04-.3 4.07-.3a.24.24 0 0 1 .235.12.258.258 0 0 1 0 .265l-.145.22a3.17 3.17 0 0 0-.5 2.205.244.244 0 0 1-.14.26 3.97 3.97 0 0 1-1.595.33Zm-3.735-2.685a6.327 6.327 0 0 0 2.04 1.755 3.663 3.663 0 0 0 2.925.22 3.632 3.632 0 0 1 .455-2.15c-.835.07-2.525.205-3.58.265-.615.03-1.231 0-1.84-.09Z" class="shade90"/>
    <path fill="#28192D" d="M175.64 50.245h-.03l-4.94-.625a.244.244 0 0 1-.093-.03.246.246 0 0 1-.119-.152.25.25 0 0 1 .174-.31.251.251 0 0 1 .098-.008l4.945.62a.253.253 0 0 1 .233.267.253.253 0 0 1-.268.233v.005ZM162.145 28.41s6.655-2.545 12.28.43c5.625 2.975 4.5 8.23 4.5 8.23L175 38.68s-1.64-3.815-4.315-5.415l-2.685-1.6s3.18 4 3.745 5.87a5.71 5.71 0 0 1 .165 3.13c-1.19.161-2.357.465-3.475.905-1.365.62-8.715 3.68-8.715 3.68a39.195 39.195 0 0 1-3.625-6.895c-1.19-3.245 6.05-9.945 6.05-9.945Zm-22.23 35.02a11.766 11.766 0 0 1-5.305-1.365c-3.245-1.645-5.645-4.5-5.585-6.62 0-.465.08-1 .5-1.16.57-.195 1.275.605 2.7 2.295 1.93 2.295 4.58 5.435 7.425 5.815 5.2.705 7.725-5.605 7.75-5.67l.465.18c0 .05-1.525 3.815-4.635 5.38a8.62 8.62 0 0 0 1.88-1.115c6.335-4.93 3.95-12.4 3.925-12.5l.5-.155c0 .075 2.53 7.875-4.095 13.025a8.776 8.776 0 0 1-5.525 1.89ZM129.7 54.755h-.03s-.125.08-.145.7c-.055 1.945 2.225 4.595 5.31 6.16a11.828 11.828 0 0 0 5 1.305l-.29-.035c-3.04-.405-5.76-3.63-7.745-6-.745-.885-1.8-2.13-2.1-2.13ZM303.645 281.41h-249.5a.249.249 0 0 1-.176-.425.252.252 0 0 1 .175-.075h249.501a.252.252 0 0 1 .25.25.252.252 0 0 1-.25.25Z" class="shade90"/>
  </g>
</svg>
