<svg xmlns="http://www.w3.org/2000/svg" width="400" height="300" fill="none" viewBox="0 0 400 300">
  <g class="Guy filtering">
    <path fill="#F6D4A0" d="M57.64 296.25h279.156s5.265-47.03-10.535-61.325c-15.8-14.295-60.945 73.74-60.195 34.615.75-39.125-38.375-11.29-52.67.75-14.295 12.04-23.325-20.29-33.86-34.61s-82.77 85.775-88.79 45.145c-6.02-40.63-33.105 15.425-33.105 15.425Zm57.286-206.83-15.465-2.955 3.16-16.54 14.025 10.48-1.72 9.015Z" class="shade10"/>
    <path fill="#28192D" d="M114.925 89.665h-.05l-15.46-2.955a.255.255 0 0 1-.2-.295l3.16-16.535a.248.248 0 0 1 .28-.197.25.25 0 0 1 .115.047l14.025 10.475a.25.25 0 0 1 .095.245l-1.72 9a.27.27 0 0 1-.105.16.242.242 0 0 1-.14.055Zm-15.17-3.4 14.97 2.86 1.645-8.625-13.58-10.145-3.035 15.91Z" class="shade90"/>
    <path fill="#F6D4A0" d="m114.285 89.295 15.46 2.955 3.16-16.54-16.9 4.575-1.72 9.01Z" class="shade10"/>
    <path fill="#28192D" d="M129.745 92.5h-.045l-15.465-2.955a.24.24 0 0 1-.158-.104.243.243 0 0 1-.037-.186l1.72-9a.255.255 0 0 1 .18-.195l16.9-4.57a.255.255 0 0 1 .303.165.24.24 0 0 1 .007.125L130 92.295a.256.256 0 0 1-.245.205h-.01Zm-15.17-3.405 14.97 2.86 3.04-15.9L116.22 80.5l-1.645 8.595Z" class="shade90"/>
    <path fill="#F6D4A0" d="M116.755 78.025a1.27 1.27 0 0 0-.79.11l-16.5 8.33 30.265 5.78-12.28-13.825a1.248 1.248 0 0 0-.695-.395Z" class="shade10"/>
    <path fill="#28192D" d="M129.725 92.5h-.05l-30.26-5.78a.25.25 0 0 1-.173-.361.254.254 0 0 1 .108-.109l16.5-8.325a1.5 1.5 0 0 1 .95-.135 1.5 1.5 0 0 1 .83.475l12.275 13.825c.035.04.056.088.062.14a.253.253 0 0 1-.032.15.255.255 0 0 1-.089.087.254.254 0 0 1-.121.033Zm-29.5-6.14 28.82 5.5-11.79-13.275a.997.997 0 0 0-.55-.315 1 1 0 0 0-.63.09l-15.85 8Z" class="shade90"/>
    <path fill="#F6D4A0" d="M115.589 84.14a1.222 1.222 0 0 1-.695-.395L102.619 69.92l30.265 5.78-16.5 8.33c-.246.122-.525.16-.795.11Z" class="shade10"/>
    <path fill="#28192D" d="M115.819 84.41a1.31 1.31 0 0 1-.28 0 1.502 1.502 0 0 1-.83-.5l-12.275-13.82a.252.252 0 0 1-.062-.14.253.253 0 0 1 .032-.15.246.246 0 0 1 .265-.125l30.26 5.78a.25.25 0 0 1 .135.073.248.248 0 0 1-.07.397l-16.495 8.325c-.211.106-.444.16-.68.16Zm-12.5-14.105 11.79 13.275a1 1 0 0 0 1.18.225l15.85-8-28.82-5.5Z" class="shade90"/>
    <path fill="#fff" d="M76.7 76.005c9.27 0 16.784-7.515 16.784-16.785S85.97 42.435 76.7 42.435 59.914 49.95 59.914 59.22 67.43 76.005 76.7 76.005Z" class="shade0" opacity=".92"/>
    <path fill="#28192D" d="M76.7 76.25a17.035 17.035 0 1 1 17.034-17.03A17.05 17.05 0 0 1 76.7 76.25Zm0-33.565A16.535 16.535 0 1 0 93.233 59.22 16.55 16.55 0 0 0 76.7 42.685Z" class="shade90"/>
    <path fill="#ECA3B5" d="M82.446 51.465H70.96V66.97l5.74-3.6 5.745 3.6V51.465Z" class="shade40"/>
    <path fill="#fff" d="M165.59 39.39c9.358 0 16.945-7.587 16.945-16.945 0-9.359-7.587-16.945-16.945-16.945-9.359 0-16.945 7.586-16.945 16.945 0 9.358 7.586 16.945 16.945 16.945Z" class="shade0" opacity=".92"/>
    <path fill="#28192D" d="M165.59 39.64a17.193 17.193 0 0 1-16.865-20.55 17.19 17.19 0 0 1 13.51-13.51 17.196 17.196 0 0 1 20.55 16.865A17.217 17.217 0 0 1 165.59 39.64Zm0-33.89a16.699 16.699 0 0 0-15.425 10.306 16.701 16.701 0 0 0 3.619 18.194 16.697 16.697 0 0 0 28.501-11.805A16.711 16.711 0 0 0 165.59 5.75Z" class="shade90"/>
    <path fill="#A6C2EA" d="M176.354 15.755h-20.315v14.17h20.315v-14.17Z" class="shade50"/>
    <path fill="#28192D" d="M176.359 19.395h-20.32a.253.253 0 0 1-.175-.075.252.252 0 0 1-.075-.175v-3.39a.253.253 0 0 1 .075-.176.253.253 0 0 1 .175-.074h20.32a.253.253 0 0 1 .175.074c.047.047.074.11.075.176v3.39a.252.252 0 0 1-.075.175.253.253 0 0 1-.175.075Zm-20.07-.5h19.82V16h-19.82v2.895Z" class="shade90"/>
    <path fill="#fff" d="M159.55 20.355h-2.255v2.215h2.255v-2.215Zm3.68 0h-2.255v2.215h2.255v-2.215Zm3.679 0h-2.255v2.215h2.255v-2.215Zm-7.359 3.135h-2.255v2.215h2.255V23.49Zm3.68 0h-2.255v2.215h2.255V23.49Zm3.679 0h-2.255v2.215h2.255V23.49Zm-7.359 3.135h-2.255v2.215h2.255v-2.215Zm11.035-6.27h-2.255v2.215h2.255v-2.215Z" class="shade0"/>
    <path fill="#28192D" d="M157.21 14.505h-.585v1.35h.585v-1.35Zm1.57 0h-.585v1.35h.585v-1.35Zm1.565 0h-.585v1.35h.585v-1.35Zm1.57 0h-.585v1.35h.585v-1.35Zm1.565 0h-.585v1.35h.585v-1.35Zm1.57 0h-.585v1.35h.585v-1.35Zm1.57 0h-.585v1.35h.585v-1.35Zm1.565 0h-.585v1.35h.585v-1.35Zm1.57 0h-.585v1.35h.585v-1.35Zm1.564 0h-.585v1.35h.585v-1.35Zm1.571 0h-.585v1.35h.585v-1.35Zm1.564 0h-.585v1.35h.585v-1.35Zm1.57 0h-.585v1.35h.585v-1.35Z" class="shade90"/>
    <path fill="#fff" d="M134.981 44.39a8.305 8.305 0 1 0-.001-16.611 8.305 8.305 0 0 0 .001 16.61Z" class="shade0"/>
    <path fill="#fff" d="M134.981 44.39a8.305 8.305 0 1 0-.001-16.611 8.305 8.305 0 0 0 .001 16.61Z" class="shade0"/>
    <path fill="#28192D" d="M135.001 44.645a8.555 8.555 0 1 1 8.08-5.77 8.568 8.568 0 0 1-8.08 5.77Zm0-16.615a8.061 8.061 0 1 0 1.136 16.037 8.066 8.066 0 0 0 6.828-9.13 8.056 8.056 0 0 0-7.964-6.907Z" class="shade90"/>
    <path fill="#28192D" d="M135.001 44.645a8.555 8.555 0 1 1 8.08-5.77 8.568 8.568 0 0 1-8.08 5.77Zm0-16.615a8.061 8.061 0 1 0 1.136 16.037 8.066 8.066 0 0 0 6.828-9.13 8.056 8.056 0 0 0-7.964-6.907Z" class="shade90"/>
    <path fill="#28192D" d="M129.525 32.71a69.17 69.17 0 0 1 3.15 6.38l-.55-.225c2.13-.965 4.84-2 7.055-2.805.8-.275 1.605-.54 2.42-.775v.045c-.06 0-9.305 3.965-9.355 4-.05.035-2.745-6.555-2.745-6.6h.045l-.02-.02Zm5.395 33.88a5.234 5.234 0 0 1-3.709-8.935 5.236 5.236 0 0 1 8.939 3.7 5.247 5.247 0 0 1-5.23 5.235Zm0-9.965a4.738 4.738 0 0 0-4.65 5.658 4.736 4.736 0 0 0 9.38-.928 4.737 4.737 0 0 0-4.73-4.73ZM101.809 39.5a5.236 5.236 0 1 1 .001-10.472 5.236 5.236 0 0 1-.001 10.472Zm0-9.965a4.735 4.735 0 1 0 0 9.47 4.735 4.735 0 0 0 0-9.47Z" class="shade90"/>
    <path fill="#fff" d="M148.084 87.155a8.305 8.305 0 1 0 0-16.61 8.305 8.305 0 0 0 0 16.61Z" class="shade0"/>
    <path fill="#fff" d="M148.084 87.155a8.305 8.305 0 1 0 0-16.61 8.305 8.305 0 0 0 0 16.61Z" class="shade0"/>
    <path fill="#28192D" d="M148.084 87.405a8.556 8.556 0 1 1 8.555-8.555 8.568 8.568 0 0 1-8.555 8.555Zm0-16.61a8.056 8.056 0 1 0 8.055 8.055 8.062 8.062 0 0 0-8.055-8.055Z" class="shade90"/>
    <path fill="#28192D" d="M148.084 87.405a8.556 8.556 0 1 1 8.555-8.555 8.568 8.568 0 0 1-8.555 8.555Zm0-16.61a8.056 8.056 0 1 0 8.055 8.055 8.062 8.062 0 0 0-8.055-8.055Z" class="shade90"/>
    <path fill="#ECA3B5" d="m152.085 79.735-4.34 3.91s-4.705-3.5-3.86-7c.195-.82 1.215-1.37 2.21-1.665 2.255-.67 2.465 2.35 2.465 2.35s.78-1.19.91-1.295c2.3-1.845 4.815 1.72 2.615 3.7Z" class="shade40"/>
    <path fill="#28192D" d="M182.5 82.28a14.738 14.738 0 0 1-14.457-17.616 14.745 14.745 0 0 1 11.581-11.581 14.743 14.743 0 0 1 15.132 6.268 14.745 14.745 0 0 1 2.484 8.189 14.763 14.763 0 0 1-14.74 14.74Zm0-29a14.241 14.241 0 0 0-13.967 17.018 14.242 14.242 0 0 0 28.207-2.778A14.261 14.261 0 0 0 182.5 53.3v-.02Z" class="shade90"/>
    <path fill="#F6D4A0" d="M185.09 76.665a6.21 6.21 0 0 1-1.695-.225c-.85-.24-1.667-.586-2.43-1.03a16.704 16.704 0 0 1-3.4-2.545 18.41 18.41 0 0 1-2.03-2.29 13.314 13.314 0 0 1-1.88-3.355 6.592 6.592 0 0 1-.47-2.32 3.181 3.181 0 0 1 .33-1.5 2.44 2.44 0 0 1 .435-.605c.57-.565 1.135-1.135 1.705-1.705.29-.29.47-.29.76 0l3.1 3.095c.039.04.076.081.11.125a.392.392 0 0 1 0 .5 1.06 1.06 0 0 1-.125.13c-.5.5-1 1-1.475 1.47a.241.241 0 0 0-.065.295 9.443 9.443 0 0 0 1.365 2.315 9.89 9.89 0 0 0 1.3 1.375 7.395 7.395 0 0 0 2.5 1.525.268.268 0 0 0 .325-.07l1.5-1.5.095-.095a.395.395 0 0 1 .57 0l.095.09 3.075 3.075c.3.3.3.475 0 .775L187 75.925a2.503 2.503 0 0 1-1.32.66c-.22.045-.465.065-.59.08Z" class="shade10"/>
    <path fill="#28192D" d="M182.195 62.87a5.343 5.343 0 0 1 4.5 5.3h-.05a7.6 7.6 0 0 0-4.475-5.265v-.045l.025.01ZM183 60c3.57.415 6.285 3.73 6.76 7.18.052.498.064 1 .035 1.5h-.05A10.24 10.24 0 0 0 183 60Z" class="shade90"/>
    <path fill="#28192D" d="M182.789 56.84c4.97.21 9.165 4.4 10.065 9.185l.16 1.11.03 1.115c0 .37-.055.74-.095 1.105h-.05c.2-5.97-4.33-11.5-10.11-12.5v-.015Zm36.44 34.765s.255 3.69 2.295 3.665a2.42 2.42 0 0 0 2.375-1.97s2.29 0 3.06-1 1.46-3.315 1.46-3.315.735.425 1.88-2.5-2.655-5.76-2.655-5.76l-11.345-5.32s-2.44.64-2.915 1.405a6.84 6.84 0 0 0-.675 1.455s-3.645.47-2.575 5.83c1.07 5.36 9.095 7.51 9.095 7.51Z" class="shade90"/>
    <path fill="#fff" d="M186.975 254.115 184.15 286l12.81 1.45 4.81-30.075-14.795-3.26Z" class="shade0"/>
    <path fill="#28192D" d="m197.171 287.725-13.29-1.5 2.87-32.41 15.305 3.37-4.885 30.54Zm-12.75-1.945 12.33 1.395 4.75-29.61-14.285-3.145-2.795 31.36Z" class="shade90"/>
    <path fill="#fff" d="M185.9 275.335c2.33.215 4.715.165 7.05.26 1.96.08 3.92.14 5.88.165l-1.87 11.69-12.81-1.45.955-10.76c.265.04.535.07.795.095Z" class="shade0"/>
    <path fill="#28192D" d="m197.171 287.725-13.29-1.5 1-11.265.265.035c.265.04.525.07.785.095 1.5.14 3.05.165 4.55.195.83 0 1.66.035 2.5.065 2.155.09 4.075.145 5.875.165h.29l-1.975 12.21Zm-12.75-1.945 12.33 1.395 1.79-11.175c-1.72-.03-3.555-.08-5.6-.165-.82-.035-1.645-.05-2.475-.065-1.5-.03-3.07-.06-4.59-.195l-.545-.065-.91 10.27Z" class="shade90"/>
    <path fill="#fff" d="m163.294 296.375 35.72-.245c.179-.445.308-.907.385-1.38.1-.47.215-1.085.34-1.895.43-2.735-2.235-10.435-2.235-10.435s-5.535.055-6.75-.435c-1.215-.49-5.755-2.06-5.755-2.06l-.71.265c-9.585 3.565-11.6 6.405-17.145 8.095-3.645 1.11-5.82 1.715-5.82 1.715s-1.885 6.405 1.97 6.375Z" class="shade0"/>
    <path fill="#28192D" d="M163.266 296.625a2.333 2.333 0 0 1-2-.905c-1.355-1.79-.25-5.62-.2-5.785l.04-.13.13-.04c.025 0 2.24-.625 5.835-1.72a30.382 30.382 0 0 0 6.575-3.045 64.205 64.205 0 0 1 10.575-5.03l.8-.3.085.03c.185.065 4.535 1.575 5.745 2.065.96.39 5.13.44 6.65.42h.18l.06.17c.11.315 2.68 7.79 2.25 10.555a39.284 39.284 0 0 1-.345 1.905c-.079.5-.219.989-.415 1.455l-.07.125h-.16l-35.72.245-.015-.015Zm-1.735-6.415c-.18.68-.92 3.79.15 5.21a1.895 1.895 0 0 0 1.61.705l35.555-.245c.127-.388.231-.784.31-1.185.11-.5.225-1.15.34-1.875.38-2.425-1.785-9-2.17-10.145-1 0-5.53 0-6.665-.46-1.135-.46-5-1.81-5.635-2l-.625.235a63.326 63.326 0 0 0-10.5 5 30.523 30.523 0 0 1-6.655 3.11c-3.105.91-5.18 1.5-5.715 1.65Z" class="shade90"/>
    <path fill="#28192D" d="M199.401 294.285h-37.84v.5h37.84v-.5Z" class="shade90"/>
    <path fill="#28192D" d="m197.64 285.218-12.988 9.741.3.4 12.988-9.741-.3-.4Z" class="shade90"/>
    <path fill="#F6D4A0" d="M183.64 285.07a.25.25 0 0 1-.14-.07 22.138 22.138 0 0 0-4.39-2.965.242.242 0 0 1-.089-.055.236.236 0 0 1-.059-.087.25.25 0 0 1 .166-.335.26.26 0 0 1 .104-.006.26.26 0 0 1 .098.038 22.36 22.36 0 0 1 4.5 3 .25.25 0 0 1-.165.44l-.025.04Zm-1.94 1.675a.249.249 0 0 1-.165-.06 23.238 23.238 0 0 0-5.12-3.59.254.254 0 0 1-.149-.141.252.252 0 0 1 .369-.304 23.636 23.636 0 0 1 5.23 3.66.246.246 0 0 1 .076.175.238.238 0 0 1-.076.175.247.247 0 0 1-.165.085Zm-2.151 1.52a.239.239 0 0 1-.17-.065 24.183 24.183 0 0 0-5.64-4.06.242.242 0 0 1-.089-.055.236.236 0 0 1-.059-.087.24.24 0 0 1 .007-.204.263.263 0 0 1 .065-.083.258.258 0 0 1 .198-.054.267.267 0 0 1 .098.038 24.725 24.725 0 0 1 5.76 4.135.248.248 0 0 1 0 .355.227.227 0 0 1-.17.08Zm-2.369 1.335a.265.265 0 0 1-.175-.07 24.174 24.174 0 0 0-5.945-4.345.253.253 0 0 1-.087-.32.248.248 0 0 1 .307-.125 24.569 24.569 0 0 1 6.07 4.425.245.245 0 0 1 .055.273.228.228 0 0 1-.055.082.26.26 0 0 1-.17.08Z" class="shade10"/>
    <path fill="#ECA3B5" d="M191.53 261.235c-2.055-.255-4.13-.4-6.19-.635l12.925-112.905 26.31-2.53-17.885 117.96c-5.025-.805-10.125-1.27-15.16-1.89Z" class="shade40"/>
    <path fill="#28192D" d="m206.899 263.41-.25-.04c-3.39-.54-6.875-.935-10.24-1.315-1.64-.185-3.28-.37-4.91-.575-1.125-.135-2.28-.245-3.395-.35-.93-.085-1.865-.175-2.795-.28l-.245-.03.03-.245 12.945-113.11 26.83-2.58-.05.32-17.92 118.205Zm-21.28-3.03c.84.095 1.685.175 2.535.255 1.115.105 2.275.21 3.41.35 1.625.205 3.265.39 4.9.575 3.29.37 6.69.755 10 1.275l17.8-117.39-25.79 2.5-12.855 112.435Z" class="shade90"/>
    <path fill="#fff" d="m225.846 255.705 4.455 31.705 12.805-1.485-2.11-30.385-15.15.165Z" class="shade0"/>
    <path fill="#28192D" d="m230.086 287.685-.035-.245-4.5-32 15.675-.175v.235l2.125 30.625-13.265 1.56Zm-3.955-31.73 4.37 31.175 12.33-1.425-2.075-29.915-14.625.165Z" class="shade90"/>
    <path fill="#fff" d="M229.591 276.62c2.32-.315 4.63-.9 6.93-1.335 1.925-.365 3.85-.75 5.765-1.17l.82 11.81-12.805 1.5-1.5-10.7c.266-.033.53-.068.79-.105Z" class="shade0"/>
    <path fill="#28192D" d="M230.085 287.685 228.5 276.5h.265c.265 0 .525-.05.785-.085 1.5-.205 3-.53 4.5-.84.81-.17 1.625-.345 2.435-.5 2.125-.405 4-.785 5.755-1.165l.285-.065.855 12.335-13.295 1.505Zm-1-10.75 1.415 10.195 12.33-1.425-.785-11.28c-1.675.36-3.475.725-5.5 1.105-.805.155-1.615.325-2.425.5-1.475.315-3 .635-4.5.845l-.535.06Z" class="shade90"/>
    <path fill="#ECA3B5" d="M231.895 261.615c-2.06.215-4.115.545-6.175.78L212.805 149.5l25.055-8.41 9.225 118.95c-5.085.345-10.15 1.045-15.19 1.575Z" class="shade40"/>
    <path fill="#28192D" d="m225.499 262.675-.03-.25-12.94-113.11.195-.06 25.36-8.5.025.315 9.245 119.2h-.25c-3.43.24-6.91.64-10.275 1.03-1.64.19-3.275.38-4.91.555-1.13.115-2.285.275-3.395.425-.925.125-1.85.25-2.775.355l-.25.04Zm-12.425-113 12.865 112.455c.84-.1 1.68-.215 2.5-.325 1.12-.155 2.275-.31 3.415-.43 1.63-.17 3.265-.36 4.9-.55 3.29-.38 6.69-.775 10.05-1l-9.17-118.405-24.56 8.255Z" class="shade90"/>
    <path fill="#fff" d="m208.441 296.375 35.72-.245c.182-.443.311-.907.385-1.38.1-.47.215-1.085.345-1.895.425-2.735-2.24-10.435-2.24-10.435s-5.535.055-6.75-.435c-1.215-.49-5.73-2.06-5.73-2.06l-.715.265c-9.585 3.565-11.6 6.405-17.145 8.095-3.64 1.11-5.84 1.725-5.84 1.725s-1.88 6.395 1.97 6.365Z" class="shade0"/>
    <path fill="#28192D" d="M208.415 296.625a2.34 2.34 0 0 1-2-.905c-1.35-1.79-.245-5.62-.2-5.785l.04-.13.135-.04s2.235-.625 5.835-1.72a30.366 30.366 0 0 0 6.55-3.06 64.255 64.255 0 0 1 10.58-5.03l.795-.3.085.03c.185.065 4.54 1.575 5.745 2.065.96.39 5.13.44 6.655.42h.18l.055.17c.11.315 2.685 7.79 2.25 10.555-.115.735-.23 1.375-.345 1.905a6.3 6.3 0 0 1-.415 1.455l-.07.125h-.145l-35.72.245h-.01Zm.025-.5 35.55-.245c.13-.388.233-.784.31-1.185.115-.5.225-1.155.34-1.875.38-2.425-1.785-9-2.17-10.145-1 0-5.53 0-6.66-.46s-5-1.81-5.64-2l-.625.235a63.326 63.326 0 0 0-10.5 5 30.523 30.523 0 0 1-6.655 3.11 286.49 286.49 0 0 1-5.71 1.685c-.18.68-.92 3.79.155 5.21a1.897 1.897 0 0 0 1.605.67Z" class="shade90"/>
    <path fill="#28192D" d="M244.545 294.285h-37.84v.5h37.84v-.5Z" class="shade90"/>
    <path fill="#28192D" d="m230.431 294.485-.3-.4 12.96-9.78.3.395-12.96 9.785Z" class="shade90"/>
    <path fill="#F6D4A0" d="M228.79 285.07a.23.23 0 0 1-.16-.055 22.201 22.201 0 0 0-4.395-2.965.242.242 0 0 1-.089-.055.24.24 0 0 1-.077-.19.25.25 0 0 1 .09-.184.243.243 0 0 1 .198-.053.243.243 0 0 1 .098.037 22.22 22.22 0 0 1 4.5 3 .253.253 0 0 1 .073.276.248.248 0 0 1-.091.118.24.24 0 0 1-.142.046l-.005.025Zm-1.946 1.675a.25.25 0 0 1-.165-.06 23.238 23.238 0 0 0-5.12-3.59.25.25 0 1 1 .22-.445 23.44 23.44 0 0 1 5.22 3.66.24.24 0 0 1 .075.127.246.246 0 0 1-.099.263.254.254 0 0 1-.141.045h.01Zm-2.148 1.52a.247.247 0 0 1-.17-.065 24.204 24.204 0 0 0-5.64-4.06.246.246 0 0 1-.149-.142.254.254 0 0 1 .008-.204.25.25 0 0 1 .263-.137.267.267 0 0 1 .098.038 24.637 24.637 0 0 1 5.76 4.135.255.255 0 0 1 0 .355.25.25 0 0 1-.17.08Zm-2.371 1.335a.244.244 0 0 1-.17-.07 24.237 24.237 0 0 0-5.945-4.345.26.26 0 0 1-.09-.055.263.263 0 0 1-.059-.087.257.257 0 0 1 .008-.205.25.25 0 0 1 .361-.098 24.791 24.791 0 0 1 6.07 4.425.245.245 0 0 1 .054.081.246.246 0 0 1-.054.274.26.26 0 0 1-.175.08Z" class="shade10"/>
    <path fill="#fff" d="M125.596 99.69c1.145.26 22.4.65 22.4.65l1.74 1.62c-1.115 2.59-2.435 6.73-3.935 9.18l-1.74-3.39s-3.705.33-8.22.345c-4.515.015-12.96-1.56-14.78-6.295-1.82-4.735 1.175-2.855 4.535-2.11Z" class="shade0"/>
    <path fill="#28192D" d="m145.781 111.65-1.865-3.65c-.78.065-4.14.325-8.075.335h-.06c-4.85 0-13.145-1.745-14.955-6.455-.645-1.675-.735-2.64-.29-3.125.56-.605 1.755-.255 3.265.185.595.175 1.21.355 1.845.5.89.195 15 .5 22.355.64h.095l1.935 1.805-.07.165c-.35.815-.72 1.785-1.115 2.815-.84 2.205-1.795 4.705-2.835 6.395l-.23.39Zm-1.575-4.15 1.61 3.135a47.208 47.208 0 0 0 2.565-5.92c.37-.97.72-1.89 1.055-2.68l-1.54-1.435c-1.74-.03-21.22-.395-22.355-.65a29.248 29.248 0 0 1-1.88-.5c-1.24-.36-2.405-.705-2.755-.325-.2.215-.29.84.39 2.605 1.72 4.5 9.765 6.135 14.5 6.135h.065c4.45 0 8.16-.345 8.195-.345l.15-.02Z" class="shade90"/>
    <path fill="#fff" d="m141.57 106.415 12.25 19.325 1.945-16.49-2.48-4.37-5.285-4.535" class="shade0"/>
    <path fill="#28192D" d="m153.984 126.465-12.625-19.915.42-.27 11.875 18.73 1.85-15.71-2.415-4.26-5.255-4.505.325-.38 5.345 4.6 2.52 4.445-2.04 17.265Z" class="shade90"/>
    <path fill="#fff" d="M212.306 115.155s-10.65 14-16.32 18.41c-4.965 3.85-17 6.235-24.5 3.43s-25.64-13.285-25.64-13.285 1.565-1.5 2.345-7.625c.78-6.125 5.1-11.205 5.1-11.205s5.655 3.96 8.555 5.81c2.9 1.85 22.45 12 22.45 12l18.735-16.265 2.8-2.605" class="shade0"/>
    <path fill="#28192D" d="M179.21 138.46a22.72 22.72 0 0 1-7.815-1.23c-7.465-2.78-25.5-13.2-25.68-13.305l-.285-.165.24-.23s1.5-1.57 2.265-7.475c.775-6.115 5.12-11.285 5.16-11.335l.15-.175.185.13c.055.04 5.68 4 8.54 5.805 2.725 1.74 20.455 10.955 22.285 11.9l18.605-16.155 2.795-2.595.34.365-2.8 2.605-18.87 16.4-.15-.075c-.8-.415-19.595-10.165-22.47-12-2.575-1.645-7.36-5-8.37-5.685-.75.945-4.225 5.555-4.905 10.895-.62 4.895-1.745 6.885-2.21 7.525 2.225 1.28 18.405 10.535 25.345 13.12 7.445 2.77 19.36.41 24.265-3.395 5.58-4.325 16.17-18.22 16.28-18.36l.395.305c-.105.14-10.735 14.085-16.37 18.455-3.485 2.685-10.455 4.675-16.925 4.675Z" class="shade90"/>
    <path fill="#fff" d="M203.216 106.27c3-4 8.5-5.615 10.535-6.305 2.27-.77 4.475-1.95 9.5-1s17.04 1.645 17.78 10.94c.74 9.295.375 63.705.375 63.705-13.425 9.72-48.345 2.07-48.345 2.07s6.535-56.865 8.195-65.68" class="shade0"/>
    <path fill="#28192D" d="M219.324 178.75c-13.14 0-26.11-2.79-26.325-2.835l-.22-.05.03-.225c.065-.565 6.555-56.96 8.195-65.68l.5.095c-1.585 8.415-7.715 61.5-8.17 65.42 3 .62 35.12 7.03 47.82-2 0-2.95.335-54.6-.375-63.56-.64-8.035-10-9.5-15.6-10.385-.735-.115-1.4-.22-2-.33-4.34-.81-6.565 0-8.53.705l-.835.295-.46.155c-2.335.77-7.195 2.375-9.96 6.065l-.4-.3c2.86-3.815 7.82-5.455 10.205-6.24l.45-.15.83-.295c2.025-.735 4.32-1.565 8.79-.725.57.105 1.235.21 1.96.325 5.745.905 15.355 2.41 16.025 10.84.73 9.2.38 63.185.375 63.73v.125l-.105.075c-5.215 3.79-13.74 4.945-22.2 4.945Zm-.27-83.865s-2.93-1-1.475-3.85 3.875-13.195 3.875-13.195l6.18 3.06s2.62 1.84 1.055 5.47c-1.565 3.63-3.83 3.295-4.845 4.945-1.015 1.65-4.79 3.57-4.79 3.57Z" class="shade90"/>
    <path fill="#fff" d="M221.099 89.325s.03 5.305.95 7.68c.461.695.962 1.362 1.5 2l-9.5 9.93s-.45-3.555-.785-5.9l-1.35-11.615 9.29-2.27" class="shade0"/>
    <path fill="#28192D" d="m213.835 109.465-.065-.5c0-.035-.45-3.575-.78-5.895l-1.375-11.84 9.5-2.325.105.44h.13c0 .05.04 5.285.93 7.59.443.665.926 1.303 1.445 1.91l.14.175-10.03 10.445ZM212.16 91.59 213.5 103c.255 1.785.58 4.3.715 5.375l9-9.39a16.702 16.702 0 0 1-1.38-1.875c-.855-2.2-.95-6.76-.96-7.63l-8.715 2.11Z" class="shade90"/>
    <path fill="#28192D" d="M221.115 90a4.834 4.834 0 0 0-.655 1 12.769 12.769 0 0 1-.745 1.58c-.545.775-1.53 1.045-2.405 1.245-1.73.395-3.39.77-5 1.285l-.435-3.74 9.29-2.27-.075.195.025.705Zm-9.24-6.305c.006-1.6.5-3.159 1.415-4.47a13.228 13.228 0 0 1 3.525-3.41l4.3 2.6" class="shade90"/>
    <path fill="#fff" d="M217.736 77.42s-5.875 3.43-7.375 8.355c-1.5 4.925 1.14 6.5 3.47 7.15 3.095.84 7.545-.945 10.77-5.36 3.225-4.415-2.1-10.985-6.865-10.145Z" class="shade0"/>
    <path fill="#28192D" d="M215.42 93.38a6.268 6.268 0 0 1-1.655-.215c-1.74-.5-2.895-1.27-3.535-2.425-.7-1.27-.74-2.965-.105-5.035 1.5-4.965 7.24-8.36 7.5-8.5l.085-.03c2.5-.445 5.375 1.085 7 3.715 1.465 2.35 1.5 4.9.09 6.825-2.57 3.515-6.22 5.665-9.38 5.665Zm2.405-15.72c-.5.305-5.835 3.62-7.225 8.19-.59 1.935-.565 3.5.07 4.65.57 1.03 1.625 1.745 3.225 2.185 2.675.725 7.1-.61 10.5-5.265 1.28-1.755 1.24-4.095-.115-6.265-1.52-2.445-4.17-3.875-6.455-3.495Z" class="shade90"/>
    <path fill="#fff" d="M219.904 91.5s2.115 1.34 3.85.055c1.735-1.285.555-2.88-.53-2.525a4.93 4.93 0 0 0-1.175.68" class="shade0"/>
    <path fill="#28192D" d="M222.03 92.37a4.626 4.626 0 0 1-2.26-.655l.265-.425s2 1.235 3.57.065c.815-.605.885-1.245.68-1.645a.828.828 0 0 0-1-.435 4.647 4.647 0 0 0-1.11.64l-.295-.405a4.96 4.96 0 0 1 1.25-.71 1.31 1.31 0 0 1 1.575.68c.305.58.245 1.5-.82 2.28a3.112 3.112 0 0 1-1.855.61Z" class="shade90"/>
    <path fill="#fff" d="M223.795 90.405s-.255.865-1.59 1.18Z" class="shade0"/>
    <path fill="#28192D" d="m222.265 91.83-.115-.5c1.175-.285 1.405-1 1.405-1l.5.145c-.03.025-.335 1.025-1.79 1.355Z" class="shade90"/>
    <path fill="#fff" d="M215.879 82.95a4.74 4.74 0 0 1-1.5 1.37c-.83.39-1.805.2-1.775.85.03.65 1.365 1.23 1.76 1.16" class="shade0"/>
    <path fill="#28192D" d="M214.285 86.585a2.747 2.747 0 0 1-1.43-.59 1.169 1.169 0 0 1-.5-.815c-.03-.62.545-.735 1.05-.84.299-.047.591-.13.87-.25a4.459 4.459 0 0 0 1.41-1.28l.41.285a4.902 4.902 0 0 1-1.61 1.45 4.01 4.01 0 0 1-1 .285c-.55.11-.66.165-.65.325a.718.718 0 0 0 .32.45c.325.274.723.448 1.145.5l.09.5-.105-.02Zm13.245-2.315s.35 2.88-1.205 3.81a41.837 41.837 0 0 1-5.165 2.205l-.435-.47c.37-.92-.24-1.685.37-2.895.905-1.795 2.27-4.94 2.27-4.94l4.165 2.29Zm-9.24 1.138c.125-.129.146-.31.047-.407-.099-.096-.28-.07-.405.059-.126.129-.147.311-.048.407.099.096.281.07.406-.059Zm-4.521-2.782c.125-.128.146-.31.047-.407-.099-.096-.281-.07-.406.06-.125.128-.146.31-.047.406.099.097.281.07.406-.059Z" class="shade90"/>
    <path fill="#fff" d="M220.04 84.28a5.275 5.275 0 0 0-1.72-1.925Z" class="shade0"/>
    <path fill="#28192D" d="M219.82 84.395a5.095 5.095 0 0 0-1.625-1.82l.245-.44a5.526 5.526 0 0 1 1.825 2.035l-.445.225Z" class="shade90"/>
    <path fill="#fff" d="M216.025 80.84a6.296 6.296 0 0 0-2.22-.635Z" class="shade0"/>
    <path fill="#28192D" d="M215.91 81.065a5.994 5.994 0 0 0-2.115-.61v-.5a6.43 6.43 0 0 1 2.325.665l-.21.445Z" class="shade90"/>
    <path fill="#A6C2EA" d="m118.59 197.82 22.055 6.595v-33.86H118.59v27.265Z" class="shade50"/>
    <path fill="#28192D" d="M140.895 204.755 118.34 198v-27.7h22.555v34.455Zm-22.055-7.125 21.555 6.45v-33.275H118.84v26.825Z" class="shade90"/>
    <path fill="#A6C2EA" d="M122.276 176.285h15.32a8.668 8.668 0 0 0 7.205-3.86l48.93-73.59H66.141l48.93 73.59a8.652 8.652 0 0 0 7.205 3.86Z" class="shade50"/>
    <path fill="#28192D" d="M137.595 176.535H122.27a8.879 8.879 0 0 1-7.41-3.975l-49.19-74h128.5l-.255.385L145 172.56a8.873 8.873 0 0 1-7.405 3.975Zm-71-77.45 48.675 73.2a8.361 8.361 0 0 0 7 3.75h15.325a8.37 8.37 0 0 0 7-3.75l48.675-73.2H66.595Z" class="shade90"/>
    <path fill="#A6C2EA" d="M59.48 99.755h140.915V95.22H59.479v4.535Z" class="shade50"/>
    <path fill="#28192D" d="M200.64 100H59.225v-5H200.64v5Zm-140.915-.5H200.14v-4H59.725v4ZM225.85 88.65s-3.33-2.36-3.59-5l-.26-2.625a3.818 3.818 0 0 1-2.85-.76c-1.55-1.07-1.885-1.97-1.885-1.97s-3.3-1.5-2.885-3.925c.415-2.425 6.195-2.095 7-.84.442.625.76 1.33.935 2.075 0 0 1.685 0 2.545.705a2.23 2.23 0 0 1 .895 1.535s2.325.71 3.06 1.865c.433.647.644 1.418.6 2.195 0 0 1 .125 1.085 3.255.085 3.13-4.65 3.49-4.65 3.49Z" class="shade90"/>
    <path fill="#fff" d="M213.211 87.595s1.045.945 3.5.125l.6-.115" class="shade0"/>
    <path fill="#28192D" d="M214.85 88.31a2.725 2.725 0 0 1-1.805-.53l.33-.37s1 .83 3.235.075l.635-.125.09.5-.6.115a5.844 5.844 0 0 1-1.885.335Z" class="shade90"/>
    <path fill="#fff" d="m171.425 99.82.55 1.055c-1.11 3-.895 7.58-2.4 10.395l-1.74-3.9s-4.575-1.82-9.09-1.8c-14.6.06-16.35-5.5-16.415-5.75h29.095Z" class="shade0"/>
    <path fill="#28192D" d="m169.555 111.84-1.905-4.275c-.67-.25-4.82-1.76-8.9-1.745h-.25c-14.53 0-16.345-5.685-16.415-5.93l-.095-.32h29.58l.675 1.29-.04.105a22.894 22.894 0 0 0-.945 4.545c-.3 2.095-.61 4.265-1.47 5.88l-.235.45Zm-10.74-6.5c4.5 0 9.07 1.8 9.115 1.82l.095.035 1.56 3.5c.65-1.5.92-3.385 1.185-5.24.165-1.54.479-3.06.935-4.54l-.435-.825H142.7c.58 1.195 3.47 5.25 15.8 5.25h.315Z" class="shade90"/>
    <path fill="#fff" d="m173.92 123.57-4.3.27s-1.105-4.055-.04-5.895c1.345-2.33.925-3.09 2.45-7.215 1.525-4.125.95-4.63.95-4.63" class="shade0"/>
    <path fill="#28192D" d="m169.43 124.105-.05-.2c-.05-.17-1.12-4.18 0-6.085.58-.996.992-2.08 1.22-3.21.323-1.345.728-2.67 1.215-3.965 1.36-3.685 1-4.365 1-4.39l.36-.345c.21.19.545 1.035-.885 4.905a34.799 34.799 0 0 0-1.195 3.92 11.004 11.004 0 0 1-1.27 3.335c-.87 1.5-.185 4.685 0 5.5l4.095-.26.035.5-4.525.295Z" class="shade90"/>
    <path fill="#fff" d="m165.35 106.545 12.25 19.325 1.945-16.49-2.48-4.37-5.29-4.535" class="shade0"/>
    <path fill="#28192D" d="m177.765 126.595-12.63-19.915.425-.27 11.87 18.73 1.855-15.705-2.415-4.265-5.255-4.505.325-.38 5.34 4.6 2.52 4.445-2.035 17.265Z" class="shade90"/>
    <path fill="#fff" d="M239.189 117.24s-28.765 26.76-36.295 23.965c-7.53-2.795-33.275-17.365-33.275-17.365s1.565-1.5 2.34-7.625c.775-6.125 5.105-11.215 5.105-11.215s5.65 3.96 8.55 5.815c2.9 1.855 21.275 12.145 21.275 12.145l19.345-15.15" class="shade0"/>
    <path fill="#28192D" d="M204.165 141.66a3.929 3.929 0 0 1-1.355-.22c-7.46-2.78-33.055-17.235-33.315-17.38l-.29-.165.24-.235s1.5-1.57 2.265-7.475c.78-6.115 5.12-11.285 5.165-11.335l.145-.175.19.13c.055.04 5.68 4 8.54 5.805 2.725 1.74 19.38 11.085 21.12 12.06l19.21-15.045.31.39-19.475 15.255-.145-.08c-.185-.105-18.415-10.32-21.29-12.155-2.57-1.645-7.355-5-8.37-5.685-.75.945-4.225 5.555-4.9 10.895-.62 4.885-1.745 6.88-2.21 7.5 2.715 1.53 25.96 14.585 33 17.2 3 1.12 10.16-2.65 20.725-10.89 8.035-6.265 15.24-12.955 15.31-13l.34.365c-.07.065-7.29 6.77-15.34 13.045-9.535 7.44-16.21 11.195-19.87 11.195Z" class="shade90"/>
    <path fill="#fff" d="M156.499 103.56s-8.465-.685-9.97-1.375a2.684 2.684 0 0 1-1.5-2.32" class="shade0"/>
    <path fill="#28192D" d="M156.5 103.81c-.345-.025-8.525-.7-10.055-1.4a2.915 2.915 0 0 1-1.65-2.545h.5a2.406 2.406 0 0 0 1.36 2.095c1.45.665 9.8 1.35 9.885 1.36l-.04.49Zm56.141 8.74-1.18-11.785.5-.05 1.075 10.785 12.99-12.04.34.365-13.725 12.725Z" class="shade90"/>
    <path fill="#fff" d="m233.57 180.521-.498.051 6.777 66.028.497-.051-6.776-66.028Z" class="shade0"/>
    <path fill="#28192D" d="m246.072 246.659-21.634 2.683.061.496 21.634-2.683-.061-.496Zm-59.26.359-.06.497 21.822 2.633.06-.497-21.822-2.633Zm28.187-71.488a109.831 109.831 0 0 1-21.81-2.245l.1-.5c29.305 5.935 47.825-1.785 48-1.865l.2.46c-.125.065-9.93 4.15-26.49 4.15Z" class="shade90"/>
    <path fill="#fff" d="M332.655 116.23h-75.62v57.06h75.62v-57.06Z" class="shade0"/>
    <path fill="#28192D" d="M332.905 173.54h-76.12V116h76.12v57.54Zm-75.62-.5h75.12V116.5h-75.12v56.54Z" class="shade90"/>
    <path fill="#A6C2EA" d="M288.1 168.38a1.461 1.461 0 0 1-1.46-1.455c.001-.221.055-.438.155-.635l.225-.46-9.88-12.5-.5.09a1.473 1.473 0 0 1-.265.03 1.535 1.535 0 0 1-.415-.07l-.5-.14-11.385 11.59.115.445a1.457 1.457 0 0 1-.612 1.585 1.46 1.46 0 1 1-.798-2.68c.171.001.34.033.5.095l.5.18 11.345-11.55-.15-.47a1.407 1.407 0 0 1 .058-1.072 1.468 1.468 0 0 1 1.624-.809 1.457 1.457 0 0 1 1.158 1.397c.004.218-.04.435-.13.634l-.205.45 9.905 12.5.5-.07h.185c.137.003.274.025.405.065l.5.145 7.185-7.785-.23-.5a1.462 1.462 0 0 1 1.308-2.078 1.46 1.46 0 0 1 1.477 1.443v.575l5.865 2.725.39-.3c.254-.191.562-.296.88-.3h.5l16.405-28.07-3.2-1.68 6.5-4.115.31 7.695-3.2-1.68-16.405 28.075.28.405c.169.242.26.53.26.825a1.442 1.442 0 0 1-.401 1.039 1.47 1.47 0 0 1-1.019.451 1.462 1.462 0 0 1-1.039-.402 1.454 1.454 0 0 1-.451-1.018l-.025-.5-5.915-2.75-.38.255a1.328 1.328 0 0 1-1.06.22l-.44-.075-7.26 7.875.15.455c.05.143.077.293.08.445a1.46 1.46 0 0 1-1.44 1.475Z" class="shade50"/>
    <path fill="#fff" d="m257.159 130.335-10.47-24.455 11.035 10.41" class="shade0"/>
    <path fill="#28192D" d="m256.929 130.435-10.945-25.56 11.91 11.235-.34.36-10.16-9.58 9.995 23.35-.46.195Z" class="shade90"/>
    <path fill="#fff" d="M287.436 134.5a39.65 39.65 0 0 1 5.34 0Z" class="shade0"/>
    <path fill="#28192D" d="m287.449 134.725-.035-.5c1.791-.12 3.589-.12 5.38 0l-.035.5a39.206 39.206 0 0 0-5.31 0Z" class="shade90"/>
    <path fill="#fff" d="M265.125 134.5c6.32-.12 12.955-.12 19.235 0Z" class="shade0"/>
    <path fill="#28192D" d="M284.356 134.725c-6.27-.12-12.915-.12-19.225 0v-.5c6.315-.12 12.97-.12 19.245 0l-.02.5Z" class="shade90"/>
    <path fill="#fff" d="M277.881 139.365c4.865-.1 10-.1 14.895 0Z" class="shade0"/>
    <path fill="#28192D" d="M292.77 139.615c-4.875-.1-10-.1-14.885 0v-.5c4.87-.1 10-.1 14.905 0l-.02.5Z" class="shade90"/>
    <path fill="#fff" d="M265.125 139.365c3.375-.1 6.57-.1 10.045 0Z" class="shade0"/>
    <path fill="#28192D" d="M275.166 139.615c-3.5-.1-6.665-.1-10.035 0v-.5c3.38-.1 6.58-.1 10.065 0l-.03.5Z" class="shade90"/>
    <path fill="#fff" d="M287.641 144.255a58.62 58.62 0 0 1 5.135 0Z" class="shade0"/>
    <path fill="#28192D" d="M287.65 144.5v-.5a59.194 59.194 0 0 1 5.16 0l-.025.5c-1.69-.07-3.41-.07-5.135 0Z" class="shade90"/>
    <path fill="#fff" d="M265.125 144.255c6.32-.075 12.705-.075 19.075 0Z" class="shade0"/>
    <path fill="#28192D" d="M284.195 144.5a808.17 808.17 0 0 0-19.07 0v-.5c6.31-.075 12.73-.075 19.08 0l-.01.5Zm32.661 151.75H79.836v.5h237.02v-.5ZM129.12 170.805h-3.305a13.607 13.607 0 0 1-11.405-6.15L100.82 144l.42-.275 13.585 20.635a13.122 13.122 0 0 0 11 5.925h3.305l-.01.52Z" class="shade90"/>
    <path fill="#F6D4A0" d="M119.849 225.705a7.48 7.48 0 1 0 0-14.96 7.48 7.48 0 0 0 0 14.96Z" class="shade10"/>
    <path fill="#28192D" d="M119.841 225.955a7.724 7.724 0 0 1-7.467-5.754 7.724 7.724 0 0 1 3.646-8.692 7.732 7.732 0 0 1 11.5 5.778 7.727 7.727 0 0 1-1.019 4.873 7.725 7.725 0 0 1-6.66 3.795Zm0-14.96a7.23 7.23 0 1 0 3.643.995 7.226 7.226 0 0 0-3.618-.99l-.025-.005Z" class="shade90"/>
    <path fill="#F6D4A0" d="M118.736 225.045a7.48 7.48 0 1 0 0-14.96 7.48 7.48 0 0 0 0 14.96Z" class="shade10"/>
    <path fill="#28192D" d="M118.721 225.3a7.797 7.797 0 0 1-6.044-12.746 7.791 7.791 0 0 1 10.585-1.368 7.797 7.797 0 0 1-4.541 14.114Zm.025-14.965a7.231 7.231 0 0 0-6.291 10.809 7.237 7.237 0 0 0 6.224 3.651 7.232 7.232 0 0 0 3.695-13.479 7.226 7.226 0 0 0-3.628-.981Z" class="shade90"/>
    <path fill="#fff" d="m115.104 221.69.66-1.12a3.798 3.798 0 0 1-1.405-1.5l.705-.585a3.43 3.43 0 0 0 1.315 1.42c.785.465 1.585.325 1.96-.31s.15-1.24-.5-2.055c-.865-1.115-1.26-2.035-.69-3a2.108 2.108 0 0 1 2.725-.795l.665-1.12.685.405-.635 1.075c.502.304.918.731 1.21 1.24l-.71.57a3.142 3.142 0 0 0-1.17-1.205c-.855-.5-1.5-.185-1.74.26-.34.575-.1 1.105.625 2.075.87 1.14 1.105 2.06.5 3.045a2.245 2.245 0 0 1-2.865.85l-.685 1.15-.65-.4Z" class="shade0"/>
    <path fill="#F6D4A0" d="M140.429 254.335a7.48 7.48 0 1 0 0-14.96 7.48 7.48 0 0 0 0 14.96Z" class="shade10"/>
    <path fill="#28192D" d="M140.434 254.59a7.732 7.732 0 0 1-7.7-6.923 7.732 7.732 0 0 1 6.085-8.378 7.734 7.734 0 0 1 4.745 14.636 7.686 7.686 0 0 1-3.13.665Zm0-14.965a7.24 7.24 0 0 0-6.931 5.183 7.237 7.237 0 0 0 11.633 7.557 7.23 7.23 0 0 0 2.36-3.902 7.23 7.23 0 0 0-.442-4.538 7.21 7.21 0 0 0-6.635-4.3h.015Z" class="shade90"/>
    <path fill="#F6D4A0" d="M139.246 254.865a7.48 7.48 0 1 0 0-14.96 7.48 7.48 0 0 0 0 14.96Z" class="shade10"/>
    <path fill="#28192D" d="M139.256 255.115a7.735 7.735 0 0 1-7.605-9.139 7.739 7.739 0 0 1 3.825-5.337 7.736 7.736 0 0 1 10.521 2.971 7.733 7.733 0 0 1-1.801 9.717 7.732 7.732 0 0 1-4.94 1.788Zm0-14.965a7.145 7.145 0 0 0-2.93.625 7.223 7.223 0 0 0-4.292 6.79 7.229 7.229 0 0 0 8.816 6.87 7.231 7.231 0 0 0 5.021-9.985 7.234 7.234 0 0 0-2.671-3.13 7.23 7.23 0 0 0-3.944-1.17Z" class="shade90"/>
    <path fill="#fff" d="m140.524 252.715-.525-1.185a3.768 3.768 0 0 1-2.03.28l-.065-.915a3.436 3.436 0 0 0 1.915-.245c.84-.37 1.19-1.105.89-1.775-.3-.67-.92-.845-1.95-.81-1.41.06-2.39-.15-2.845-1.175a2.109 2.109 0 0 1 .935-2.685l-.53-1.205.73-.32.5 1.14a3.43 3.43 0 0 1 1.715-.265l.05.905a3.135 3.135 0 0 0-1.66.26c-.91.4-1 1.095-.8 1.565.27.61.84.725 2.055.695 1.43-.045 2.315.295 2.78 1.345a2.238 2.238 0 0 1-.975 2.825l.545 1.225-.735.34Z" class="shade0"/>
    <path fill="#F6D4A0" d="M115.23 292.555a7.48 7.48 0 1 0 0-14.96 7.48 7.48 0 0 0 0 14.96Z" class="shade10"/>
    <path fill="#28192D" d="M115.221 292.805a7.728 7.728 0 0 1-7.126-10.698 7.726 7.726 0 0 1 8.157-4.694 7.724 7.724 0 0 1 6.645 6.665 7.725 7.725 0 0 1-.976 4.872 7.701 7.701 0 0 1-6.7 3.855Zm.025-14.965a7.32 7.32 0 0 0-1.875.25 7.233 7.233 0 0 0-4.627 10.175 7.237 7.237 0 0 0 2.862 3.07 7.225 7.225 0 0 0 8.19-.333 7.222 7.222 0 0 0 2.615-7.769 7.223 7.223 0 0 0-3.555-4.398 7.156 7.156 0 0 0-3.61-.995Z" class="shade90"/>
    <path fill="#F6D4A0" d="M114.105 291.905a7.48 7.48 0 1 0 0-14.96 7.48 7.48 0 0 0 0 14.96Z" class="shade10"/>
    <path fill="#28192D" d="M114.096 292.155a7.735 7.735 0 0 1-7.459-5.741 7.726 7.726 0 0 1 3.615-8.689 7.732 7.732 0 0 1 9.329 1.242 7.73 7.73 0 0 1 1.215 9.333 7.701 7.701 0 0 1-6.7 3.855Zm.025-14.96a7.227 7.227 0 0 0-6.278 10.835 7.235 7.235 0 0 0 12.523.02l.215.125-.215-.125a7.235 7.235 0 0 0 .011-7.231 7.224 7.224 0 0 0-6.256-3.624Z" class="shade90"/>
    <path fill="#fff" d="m110.5 288.595.65-1.125a3.761 3.761 0 0 1-1.42-1.5l.7-.59a3.46 3.46 0 0 0 1.33 1.41c.79.455 1.59.31 1.955-.325s.14-1.245-.5-2.055c-.88-1.105-1.285-2.025-.72-3a2.108 2.108 0 0 1 2.72-.82l.65-1.125.69.4-.6 1.135c.507.297.928.719 1.225 1.225l-.68.55a3.047 3.047 0 0 0-1.185-1.19c-.86-.5-1.5-.175-1.735.275-.335.575-.09 1.105.645 2.07.875 1.13 1.12 2.045.545 3.035a2.23 2.23 0 0 1-2.855.875l-.7 1.16-.715-.405Z" class="shade0"/>
    <path fill="#A6C2EA" d="m143.441 209.1-10.67 2.817 5.347 20.251 10.67-2.817-5.347-20.251Z" class="shade50"/>
    <path fill="#28192D" d="m137.946 232.47-5.475-20.735 11.155-2.945 5.475 20.735-11.155 2.945Zm-4.865-20.38 5.22 19.765 10.2-2.69-5.23-19.765-10.19 2.69Z" class="shade90"/>
    <path fill="#A6C2EA" d="m142.964 211.17-8.755 2.312 4.386 16.611 8.755-2.312-4.386-16.611Z" class="shade50"/>
    <path fill="#28192D" d="m138.42 230.395-4.5-17.095 9.235-2.44 4.5 17.095-9.235 2.44Zm-3.92-16.74 4.26 16.13 8.27-2.185-4.24-16.1-8.29 2.155Z" class="shade90"/>
    <path fill="#A6C2EA" d="M140.785 223.64a3.01 3.01 0 1 0 0-6.02 3.01 3.01 0 0 0 0 6.02Z" class="shade50"/>
    <path fill="#28192D" d="M140.78 223.89a3.266 3.266 0 0 1-2.923-1.823 3.257 3.257 0 0 1 .344-3.427 3.263 3.263 0 0 1 5.818 2.429 3.267 3.267 0 0 1-2.404 2.726 3.135 3.135 0 0 1-.835.095Zm0-6a2.761 2.761 0 1 0 .165 5.514 2.757 2.757 0 0 0 2.5-3.459 2.763 2.763 0 0 0-2.66-2.075l-.005.02Z" class="shade90"/>
    <path fill="#A6C2EA" d="m128.206 248.55-10.368-3.778-7.171 19.68 10.369 3.778 7.17-19.68Z" class="shade50"/>
    <path fill="#28192D" d="m121.215 268.545-10.84-3.95 7.34-20.145 10.84 3.945-7.34 20.15Zm-10.2-4.25 9.9 3.61 7-19.21L118 245.09l-6.985 19.205Z" class="shade90"/>
    <path fill="#A6C2EA" d="m126.637 249.979-8.508-3.1-5.882 16.142 8.508 3.1 5.882-16.142Z" class="shade50"/>
    <path fill="#28192D" d="m120.924 266.435-8.975-3.27 6.05-16.61 9 3.27-6.075 16.61Zm-8.335-3.565 8.04 2.925 5.71-15.67-8.04-2.93-5.71 15.675Z" class="shade90"/>
    <path fill="#A6C2EA" d="M119.465 259.505a3.01 3.01 0 1 0-.001-6.021 3.01 3.01 0 0 0 .001 6.021Z" class="shade50"/>
    <path fill="#28192D" d="M119.461 259.755a3.269 3.269 0 0 1-2.893-1.753 3.264 3.264 0 0 1 1.138-4.264 3.263 3.263 0 0 1 5.009 3.036 3.268 3.268 0 0 1-3.254 2.981Zm0-6a2.764 2.764 0 0 0-2.727 2.342 2.766 2.766 0 0 0 .864 2.455 2.751 2.751 0 0 0 2.52.645 2.763 2.763 0 0 0 1.938-1.737 2.772 2.772 0 0 0-1.65-3.54 2.831 2.831 0 0 0-.94-.185l-.005.02ZM65.34 273.5l-.35-.36A66.235 66.235 0 0 1 72.5 267c4-2.795 9.85-6.11 15-5.97 3.09.08 5.33 1 6.655 2.76 2.06 2.73 1.145 6.425 1.105 6.585l-.5-.125c0-.04.895-3.625-1-6.16-1.23-1.625-3.335-2.5-6.27-2.56h-.29c-9.53-.03-21.74 11.825-21.86 11.97Zm273.84-18.605c-.025-.235-2.71-23.325-11.065-29.79a7.19 7.19 0 0 0-5.58-1.605c-12.915 1.845-32 27.11-32.19 27.365l-.4-.3a153.284 153.284 0 0 1 11.26-13.05c8.59-8.84 15.74-13.72 21.255-14.5a7.69 7.69 0 0 1 5.96 1.695c3.58 2.79 6.58 8.69 8.87 17.59a101.463 101.463 0 0 1 2.385 12.535l-.495.06Z" class="shade90"/>
    <path fill="#ECA3B5" d="M302.186 120.365h-38v3.2h38v-3.2Zm-.005 6.19h-9.88v3.2h9.88v-3.2Zm-11.692 0h-18.825v3.2h18.825v-3.2Z" class="shade40"/>
  </g>
</svg>
