<svg xmlns="http://www.w3.org/2000/svg" width="400" height="300" fill="none" viewBox="0 0 400 300">
  <g class="Guy with magnifying glass">
    <path fill="#F6D4A0" d="M88.805 195.88c9 0 16.295-7.275 16.295-16.25s-7.296-16.25-16.295-16.25c-9 0-16.295 7.275-16.295 16.25s7.295 16.25 16.295 16.25Zm166.87 57.715c65.509 0 118.615-53.106 118.615-118.615 0-65.51-53.106-118.615-118.615-118.615-65.509 0-118.615 53.106-118.615 118.615 0 65.509 53.106 118.615 118.615 118.615Z" class="shade10"/>
    <path fill="#28192D" d="M250.17 267.595a127.667 127.667 0 0 1-90.28-217.95 127.669 127.669 0 0 1 90.409-37.844 127.678 127.678 0 0 1 118.335 78.96 127.694 127.694 0 0 1-.242 98.01A127.672 127.672 0 0 1 340.45 230.2a126.842 126.842 0 0 1-90.28 37.395Zm0-254.845a127.175 127.175 0 0 0-89.925 217.1 127.165 127.165 0 0 0 90.067 37.734 127.165 127.165 0 0 0 90.269-37.248 127.165 127.165 0 0 0 27.37-139.069A127.16 127.16 0 0 0 340.095 50a126.33 126.33 0 0 0-89.925-37.25Z" class="shade90"/>
    <path fill="#A6C2EA" d="M322.14 212.455s-.5-59.3-5.39-69.59c-4.89-10.29-56.36-23.525-69.595-25-13.235-1.475-68.61-2.45-80.865 13.23-12.255 15.68 2.45 111.74 2.45 111.74L267.25 261l35.285-14.7 19.605-31.86" class="shade50"/>
    <path fill="#28192D" d="M315.82 189.225c-2.39 6.03-5 12.14-9 17.315-4.95 6.435-11.9 10.635-19.67 12.84-18.785 5.33-39.47.95-57.905-3.89a142.83 142.83 0 0 1-27.745-10.24c-9.355-4.68-17.81-10.785-26.765-16.145a73.19 73.19 0 0 0-12.5-6c1.895 29.37 6.54 59.735 6.54 59.735L267.25 261l35.285-14.7 19.605-31.86v-1.96s-.15-18.08-1.11-36c-1.97 4.095-3.53 8.52-5.21 12.745Z" class="shade90"/>
    <path fill="#28192D" d="M267.25 261.225h-.045l-98.5-18.13a.25.25 0 0 1-.2-.21c-.04-.24-3.705-24.32-5.825-50-2.85-34.535-1.7-55.37 3.425-61.925 12.21-15.635 66.745-14.92 81.09-13.33 12.76 1.42 64.77 14.59 69.79 25.135 2.045 4.3 3.58 17.34 4.555 38.755.73 15.93.86 30.795.86 30.945a.25.25 0 0 1-.345.233.246.246 0 0 1-.155-.228c0-.595-.545-59.365-5.37-69.5-2.065-4.34-13.26-9.905-31.5-15.675-15.2-4.8-31.195-8.435-37.875-9.175-14.275-1.59-68.555-2.325-80.635 13.135-11.8 15.105 1.775 106.73 2.47 111.375l98.26 18.085 35.145-14.64 19.56-31.79a.258.258 0 0 1 .156-.112.264.264 0 0 1 .097-.003.27.27 0 0 1 .165.101.267.267 0 0 1 .041.089.254.254 0 0 1-.034.19l-19.6 31.855a.26.26 0 0 1-.12.1l-35.285 14.7a.216.216 0 0 1-.125.02Z" class="shade90"/>
    <path fill="#28192D" d="m197.41 125.955 14.705-6.86s-.5-1.96-3.92-8.82-16.665-4.415-20.585-8.825a21.445 21.445 0 0 0-9.31-5.88l6.86 22.055m41.47 110.23-7.63-6.82s0 10.29-5.39 19.6c-5.39 9.31-6.86 8.825-4.9 18.135 1.96 9.31 7.84 24 7.84 24l29.895-20.585" class="shade90"/>
    <path fill="#ECA3B5" d="m64.476 225.558-4.663-5.944-40.726 31.945 4.663 5.944 40.726-31.945Z" class="shade40"/>
    <path fill="#28192D" d="M23.76 257.765a.25.25 0 0 1-.2-.095l-4.66-5.945a.252.252 0 0 1-.055-.185.264.264 0 0 1 .095-.165l40.725-31.95a.25.25 0 0 1 .187-.05.252.252 0 0 1 .168.095l4.66 5.945a.27.27 0 0 1 .055.185.264.264 0 0 1-.095.165l-40.725 31.95a.261.261 0 0 1-.155.05Zm-4.315-6.15 4.355 5.55 40.335-31.64L59.78 220l-40.335 31.615Z" class="shade90"/>
    <path fill="#ECA3B5" d="M109.715 185.285a31.73 31.73 0 0 0-33.51-10.973 31.738 31.738 0 0 0-19.766 44.904 31.736 31.736 0 0 0 47.896 10.629 31.742 31.742 0 0 0 5.38-44.56Zm-47.8 37.5a28.999 28.999 0 1 1 8.588 7.376 28.996 28.996 0 0 1-8.588-7.381v.005Z" class="shade40"/>
    <path fill="#28192D" d="M84.81 236.865a31.888 31.888 0 0 1-20.82-56.076 31.89 31.89 0 1 1 20.82 56.076Zm-.1-63.465a31.469 31.469 0 0 0-13.714 59.778 31.473 31.473 0 0 0 38.244-8.551 31.475 31.475 0 0 0 .26-39.187 31.453 31.453 0 0 0-24.79-12.04Zm.095 60.745a29.175 29.175 0 1 1-.07-58.35 29.175 29.175 0 0 1 .07 58.35ZM84.69 176.1a28.894 28.894 0 0 0-21.372 48.362 28.897 28.897 0 0 0 40.163 2.467A28.896 28.896 0 0 0 84.69 176.1Z" class="shade90"/>
    <path fill="#28192D" d="M91.335 230.785a.221.221 0 0 1-.125-.035.254.254 0 0 1-.073-.062.242.242 0 0 1-.022-.273c1.54-2.783 3.108-5.607 4.705-8.47 3.92-7.055 8-14.35 11.83-21.42a.252.252 0 0 1 .34-.1.255.255 0 0 1 .121.149.25.25 0 0 1-.021.191c-3.855 7.075-7.91 14.37-11.835 21.425-1.59 2.855-3.16 5.685-4.705 8.465a.244.244 0 0 1-.09.093.25.25 0 0 1-.125.037Zm-7.995-.645c-.04 0-.08-.01-.115-.03a.25.25 0 0 1-.11-.335l4.97-9.54a.25.25 0 0 1 .147-.124.24.24 0 0 1 .191.017.25.25 0 0 1 .108.337L83.559 230a.249.249 0 0 1-.22.14Zm8.465-16.255a.279.279 0 0 1-.115 0 .255.255 0 0 1-.11-.34l3.645-7a.252.252 0 0 1 .249-.161.254.254 0 0 1 .181.095.255.255 0 0 1 .05.199.248.248 0 0 1-.04.097l-3.64 7a.246.246 0 0 1-.22.11Zm203.045 77.81c-11.375 0-22.95-.135-32.085-.53a.261.261 0 0 1-.174-.08.258.258 0 0 1-.044-.276.235.235 0 0 1 .057-.079.246.246 0 0 1 .181-.065c27.255 1.185 76.23 0 76.725 0a.25.25 0 0 1 .098.014.248.248 0 0 1 .139.134.232.232 0 0 1 .018.097.243.243 0 0 1-.07.178.258.258 0 0 1-.175.077c-.325.01-22.1.53-44.67.53Z" class="shade90"/>
    <path fill="#fff" d="m212.85 59.06-4.59-4.41s10.96-7.355 13.9-12.255c2.94-4.9 5.88-3.43 4.9 4.41-.98 7.84-14.21 12.255-14.21 12.255Z" class="shade0"/>
    <path fill="#28192D" d="M212.85 59.31a.259.259 0 0 1-.175-.07l-4.585-4.41a.226.226 0 0 1-.075-.2.222.222 0 0 1 .033-.106.23.23 0 0 1 .077-.079c.105-.075 10.945-7.38 13.82-12.18 1.33-2.21 2.745-3.255 3.865-2.865 1.5.5 2.025 3.22 1.5 7.435-.41 3.285-3.035 6.5-7.59 9.25a38.118 38.118 0 0 1-6.79 3.21l-.08.015Zm-4.19-4.625 4.25 4.085c1.425-.5 13-4.83 13.905-12 .575-4.595-.225-6.58-1.165-6.905-.94-.325-2.095.69-3.275 2.655-2.72 4.535-12.01 10.98-13.715 12.165Z" class="shade90"/>
    <path fill="#fff" d="M235.395 75.72c-1-2.28-3.23-8.78-2.45-14.21 1-6.86 11.775-5.76 10.79 2a16.638 16.638 0 0 1-2.08 6.075" class="shade0"/>
    <path fill="#28192D" d="M235.395 75.97a.245.245 0 0 1-.23-.15c-1.265-2.91-3.205-9.21-2.47-14.345.5-3.58 3.59-5.075 6.355-4.7 2.765.375 5.455 2.65 4.93 6.785a16.878 16.878 0 0 1-2.105 6.17.258.258 0 0 1-.419.031.245.245 0 0 1-.016-.276 16.302 16.302 0 0 0 2.06-5.985c.5-3.82-1.91-5.88-4.5-6.23-2.59-.35-5.33 1-5.795 4.275-.72 5 1.19 11.215 2.435 14.075a.24.24 0 0 1 .02.121.25.25 0 0 1-.25.229h-.015Z" class="shade90"/>
    <path fill="#fff" d="M237.845 60.04s-3.43 3.43-2.45 8.33Z" class="shade0"/>
    <path fill="#28192D" d="M235.395 68.62a.245.245 0 0 1-.245-.2c-1-5 2.5-8.5 2.5-8.56a.253.253 0 0 1 .429.178.263.263 0 0 1-.019.096.262.262 0 0 1-.055.081c-.035.035-3.325 3.4-2.38 8.105a.272.272 0 0 1 0 .099.27.27 0 0 1-.038.09.255.255 0 0 1-.162.106l-.03.005Z" class="shade90"/>
    <path fill="#fff" d="M268.085 98.38c2.45.255 8.945.63 13.91-1.76 6.245-3 1.935-12.97-5.185-9.675a15.905 15.905 0 0 0-3.86 2.555" class="shade0"/>
    <path fill="#28192D" d="M271.8 98.82c-1.249 0-2.498-.063-3.74-.19a.247.247 0 0 1-.17-.09.241.241 0 0 1-.046-.087c-.009-.032-.013-.065-.009-.098a.255.255 0 0 1 .275-.225c2.5.26 8.895.615 13.78-1.735 2.965-1.43 3.41-4.5 2.325-6.82-1.085-2.32-3.805-4-7.3-2.405a15.702 15.702 0 0 0-3.795 2.5.25.25 0 0 1-.182.064.252.252 0 0 1-.153-.439 16.352 16.352 0 0 1 3.92-2.58c3.785-1.75 6.78.145 7.96 2.65 1.18 2.505.7 5.91-2.56 7.5-3.26 1.59-7.265 1.955-10.305 1.955Z" class="shade90"/>
    <path fill="#fff" d="M281.92 91.5s-2.235 4.31-7.205 4.855Z" class="shade0"/>
    <path fill="#28192D" d="M274.715 96.605a.251.251 0 0 1-.25-.25.25.25 0 0 1 .25-.25c4.77-.525 7-4.675 7-4.72a.256.256 0 0 1 .34-.105.251.251 0 0 1 .105.335c0 .045-2.355 4.435-7.395 5l-.05-.01Z" class="shade90"/>
    <path fill="#fff" d="M234.415 82.095s-6.375 20.09-15.195 35.285C215.375 124 228.04 136 240.785 136c12.745 0 21.075-9.805 21.075-9.805s-1-13.72-1-17.64v-9.8l-26.445-16.66Z" class="shade0"/>
    <path fill="#28192D" d="M240.785 136.255c-9.035 0-17.83-5.9-21.11-11.605-1.595-2.77-1.835-5.395-.67-7.395 8.705-15 15.105-35.035 15.17-35.24a.252.252 0 0 1 .15-.155.245.245 0 0 1 .22 0L261 98.545a.244.244 0 0 1 .12.21v9.805c0 3.865.97 17.5 1 17.625a.287.287 0 0 1-.06.18c-.095.095-8.56 9.89-21.275 9.89ZM234.55 82.5c-.845 2.595-6.97 21-15.115 35.03-1.37 2.36-.39 5.05.67 6.895 3.215 5.58 11.825 11.355 20.68 11.355 11.885 0 20-8.735 20.815-9.64-.09-1.28-.97-13.855-.97-17.555v-9.69L234.55 82.5Z" class="shade90"/>
    <path fill="#28192D" d="M233.68 108.805c11.125 2.43 21 6.35 27.92 13.67-.29-4.36-.72-11.31-.72-13.915v-9.805l-26.465-16.66s-1.695 5.345-4.55 12.605c.26 5.88-2.365 12.565 3.815 14.105Zm5.635-34.065.035-.5.945-13.24s6.125-17.4 10.045-24.26c3.92-6.86-8.085-3.185 10.54-.735s33.57 30.14 33.08 39.45c-.49 9.31-5.39 6.865-13.235 14.705s-27.2 3.185-27.2 3.185l-14.21-18.605Z" class="shade90"/>
    <path fill="#fff" d="M274 51.38c-6.5-3.765-14.735-2.765-20.38 2.195-8.905 7.815-25.665 25.225-23.13 43.71 3.435 25 37.74 9.8 48.5-12.74 7.435-15.5 3.96-27.99-4.99-33.165Z" class="shade0"/>
    <path fill="#28192D" d="M243.96 110.44a16.953 16.953 0 0 1-2.605-.195c-4.355-.68-9.815-3.5-11.11-12.925-1.115-8.125 1.345-16.885 7.31-26 5-7.645 11.4-13.96 15.9-17.91a17.813 17.813 0 0 1 20.67-2.22c4.6 2.66 7.715 7.235 8.76 12.88 1.14 6.11-.125 13.235-3.65 20.605-6.71 14.01-23.14 25.765-35.275 25.765Zm21.46-61.105a17.65 17.65 0 0 0-11.635 4.425c-4.475 3.93-10.855 10.21-15.81 17.805-5.9 9.04-8.335 17.685-7.235 25.685 1 7.24 4.69 11.565 10.695 12.5 12.065 1.885 30.225-10.415 37.35-25.315 3.5-7.27 4.725-14.29 3.61-20.3-1-5.5-4.045-9.95-8.5-12.54a16.855 16.855 0 0 0-8.475-2.26Z" class="shade90"/>
    <path fill="#28192D" d="M248.826 72.495c.574-.574.729-1.35.347-1.732-.383-.383-1.159-.228-1.733.346-.574.575-.729 1.35-.346 1.733s1.158.228 1.732-.347Zm13.728 9.803c.574-.574.729-1.35.347-1.732-.383-.383-1.159-.228-1.733.346-.574.575-.729 1.35-.346 1.733s1.158.228 1.732-.347Z" class="shade90"/>
    <path fill="#fff" d="M254.5 73.76s-1.96 5.39-4.41 7.355c-2.45 1.965-3.43 2.45-2.94 3.43.49.98 5.395 3.455 5.395 3.455" class="shade0"/>
    <path fill="#28192D" d="M252.545 88.225a.295.295 0 0 1-.11 0c-.5-.255-5-2.5-5.5-3.545s.255-1.585 1.91-2.875c.325-.25.695-.535 1.1-.865 2.365-1.89 4.31-7.185 4.33-7.24a.255.255 0 0 1 .32-.15.25.25 0 0 1 .15.32c-.08.225-2 5.5-4.5 7.465-.405.325-.775.61-1.105.865-1.65 1.285-2.07 1.65-1.765 2.255.305.605 3.41 2.385 5.28 3.32.059.03.104.082.124.145a.247.247 0 0 1-.014.19.248.248 0 0 1-.22.115Z" class="shade90"/>
    <path fill="#fff" d="M255 69.35c-1.765 0-7.53-6.095-10.135-6.97Z" class="shade0"/>
    <path fill="#28192D" d="M255 69.6c-1 0-2.905-1.565-5.115-3.38-1.91-1.57-3.885-3.195-5.1-3.6a.26.26 0 0 1-.16-.32.256.256 0 0 1 .32-.155c1.3.435 3.31 2.09 5.26 3.69 1.95 1.6 4 3.265 4.795 3.265a.251.251 0 0 1 .25.25.25.25 0 0 1-.25.25Z" class="shade90"/>
    <path fill="#fff" d="M266.76 67.39s3.43 8.82 7.35 12.74Z" class="shade0"/>
    <path fill="#28192D" d="M274.11 80.38a.228.228 0 0 1-.175-.07c-3.915-3.915-7.27-12.465-7.41-12.83a.246.246 0 0 1 .005-.193.242.242 0 0 1 .14-.132.25.25 0 0 1 .32.145c.035.085 3.46 8.815 7.295 12.655a.257.257 0 0 1 .074.178.264.264 0 0 1-.019.096.263.263 0 0 1-.135.135.231.231 0 0 1-.095.016Z" class="shade90"/>
    <path fill="#fff" d="M246.175 95.325s7.84-1 7.84 4.41Z" class="shade0"/>
    <path fill="#28192D" d="M254 100a.251.251 0 0 1-.25-.25 3.579 3.579 0 0 0-1.175-2.81c-2.11-1.86-6.34-1.355-6.385-1.35a.253.253 0 0 1-.228-.406.252.252 0 0 1 .168-.094c.18 0 4.5-.535 6.775 1.475a4.046 4.046 0 0 1 1.345 3.185.249.249 0 0 1-.25.25Zm-.965-72.305s-8.33 1-8.33 7.84 8.33 6.86 8.33 6.86 5.395 5.88 11.765 3.92l6.37-1.96s2.94 6.86 8.33 6.37c5.39-.49 4.655 5.15 4.655 5.15s-2.695 10.535.735 15.435c3.43 4.9 3.925 2.94 3.925 2.94s-1.47 9.315 3.43 8.825c4.9-.49 4.9-3.435 4.9-3.435s3.43 1 5.88-2.94c2.45-3.94 0-9.31 0-9.31s1.96 1 2.45-2.94c.49-3.94-4.41-7.35-4.41-7.35s4.41 0 3.92-4.415c-.49-4.415-3.43-6.37-3.43-6.37s1.96-1.96 0-4.9a8.037 8.037 0 0 0-4.9-3.43s3.43-1.96-1-5.88-8.33-1.47-8.33-1.47-1.205-5.135-3.66-5.635-6.125.245-6.125.245 2.96-5.395-4.41-5.885c-7.37-.49-7.35 1.47-7.35 1.47s-1.47-3.43-6.86-2.45c-5.39.98-5.885 9.315-5.885 9.315Z" class="shade90"/>
    <path fill="#28192D" d="m246.175 59.55-7.03 9.8.905.735 10.29-13.23 7.84-6.355s4.17 5.15 7.11 5.15c2.94 0 3.43-2.945 3.43-2.945s-.5 4.905 1.96 5.395a4.503 4.503 0 0 0 3.92-1s-2.94 3.43.5 5.39c3.44 1.96 4.9-1 4.9-1s-1.47 4.9 0 6.86a22.853 22.853 0 0 0 3.675 3.675S279 79.64 277.05 83.075c-1.95 3.435-5.39 9.8-5.39 9.8l2.45 1s15.195-18.625 13.725-27.445c-1.47-8.82-10.785-15.195-10.785-15.195l-18.62-4.41L247.155 58.1l-.98 1.45Z" class="shade90"/>
    <path fill="#fff" d="M245.195 56.61s-4.9-6.865-7.84-9.805c-2.94-2.94-27.445 3.43-33.325 11.765-5.88 8.335-26.465 50-34.31 70.08-7.845 20.08-8.82 71.065-4.9 79.885 3.92 8.82 35.775-5.39 39.21-38.715 3.435-33.325 2.94-91.65 2.94-91.65l8.82-4.9-.375.375a2.499 2.499 0 0 0-.605 2.565 6.96 6.96 0 0 0 5.39.5c2.94-1 6.86-5.39 8.82-7.84s.5-6.86 0-8.82-2.45-5.88-2.45-5.88c-.19-.305 7.945-2.37 9.805-1.475 1 .5 5.025 5.575 6.675 5.73.23 0 .45.05.665.08a1.388 1.388 0 0 0 1.586-1.168c.035-.243.005-.49-.086-.717l-.02-.01Z" class="shade0"/>
    <path fill="#28192D" d="M169.895 211.345c-2.635 0-4.5-.945-5.305-2.705-1.92-4.325-2.735-19.055-2-35.83.86-19.12 3.365-35.25 6.88-44.25 8.095-20.75 28.555-61.95 34.335-70.135 4.545-6.44 20.245-11.8 28.63-12.5 2.665-.23 4.37 0 5.075.72 2.92 2.92 7.82 9.765 7.87 9.835.011.015.02.032.025.05a1.633 1.633 0 0 1-.224 1.62 1.63 1.63 0 0 1-1.521.605c-.21-.03-.43-.055-.65-.075-1.13-.105-3.055-2.095-4.75-3.85a14.617 14.617 0 0 0-2-1.9c-1.61-.78-8.29.835-9.38 1.315.415.845 1.945 4 2.38 5.75.05.195.11.415.17.655.61 2.275 1.625 6.08-.22 8.38-1.26 1.585-5.645 6.825-8.935 7.925a7.141 7.141 0 0 1-5.6-.5.262.262 0 0 1-.11-.135 2.738 2.738 0 0 1 .175-2.15l-7.525 4.18c.025 3.305.365 59.385-2.945 91.525a50.773 50.773 0 0 1-13.045 29.5c-5.83 6.345-13.205 10.885-19.25 11.845-.689.097-1.385.139-2.08.125Zm64.315-165c-.5 0-1.09 0-1.71.075-8.295.71-23.805 6-28.27 12.31-5.765 8.165-26.19 49.305-34.275 70.025-3.44 8.82-6 25.305-6.845 44.09-.75 16.705.045 31.345 1.94 35.605.88 2 3.375 2.795 6.85 2.24 4.655-.74 12.08-4.2 18.96-11.69a50.281 50.281 0 0 0 12.92-29.19c3.39-32.935 2.945-91.04 2.94-91.62a.238.238 0 0 1 .125-.22l8.825-4.9a.244.244 0 0 1 .32.065.252.252 0 0 1-.025.33l-.375.37a2.249 2.249 0 0 0-.57 2.22 6.79 6.79 0 0 0 5.1.425c3.16-1.055 7.465-6.205 8.705-7.76 1.685-2.105.71-5.755.13-7.94-.065-.245-.125-.465-.175-.665-.5-1.91-2.41-5.79-2.43-5.83a.298.298 0 0 1 .045-.315c.54-.61 8.265-2.37 10.085-1.5.39.19 1.075.885 2.16 2 1.47 1.5 3.5 3.61 4.435 3.695.23 0 .455.05.675.085a1.135 1.135 0 0 0 1.05-.42 1.119 1.119 0 0 0 .175-1.1c-.335-.465-5-6.945-7.8-9.745-.43-.435-1.46-.655-2.965-.655v.015Zm-7.425 7.695a.267.267 0 0 0 0 .04s.005-.04 0-.055v.015Z" class="shade90"/>
    <path fill="#28192D" d="M227.69 70.58a.252.252 0 0 1-.225-.164.263.263 0 0 1-.015-.096c.13-3.795-5.435-12.5-5.5-12.595a.25.25 0 0 1 .075-.345.247.247 0 0 1 .278.003c.027.02.05.044.067.072.235.36 5.705 8.93 5.57 12.885a.246.246 0 0 1-.077.17.247.247 0 0 1-.173.07Z" class="shade90"/>
    <path fill="#A6C2EA" d="M178.545 95.325s10.86 16.905 17.15 13.235c5.88-3.435 16.175 10.39 16.175 10.39s-1 62.63-8.335 77.825c-7.335 15.195-36.755 27.935-44.105 15.68-7.35-12.255-5.39-65.67 19.115-117.13Z" class="shade50"/>
    <path fill="#28192D" d="M169.845 217.615c-5 0-8.65-1.73-10.63-5.03-3.96-6.6-4.91-23.88-2.425-44 3.03-24.5 10.675-50.555 21.525-73.345a.251.251 0 0 1 .21-.145.258.258 0 0 1 .23.115c.105.165 10.8 16.665 16.815 13.15 6.015-3.515 16.075 9.89 16.5 10.46a.248.248 0 0 1 .05.155c0 .625-1.065 62.86-8.355 77.93-5 10.285-20.66 20.155-32.9 20.705-.365-.005-.685.005-1.02.005Zm8.735-121.78c-24.32 51.33-26.1 104.555-18.935 116.5 2 3.355 5.88 5 11.195 4.76 12.085-.54 27.56-10.275 32.47-20.425 7.12-14.715 8.26-74.975 8.31-77.635-.79-1.035-10.38-13.415-15.8-10.255-5.965 3.475-15.55-10.395-17.24-12.945Z" class="shade90"/>
    <path fill="#fff" d="M174.3 232.5c9.965 6 23.35 4.33 25.28 3.915a18.065 18.065 0 0 1 13.67 2.595l8.125 5.3L229 223.24l-17.31-1.355a21.322 21.322 0 0 1-12.5-10.205 23.396 23.396 0 0 0-1.395-2.28c-2.79-4-6.38-14.345-8.37-16.74-1.99-2.395-3.59 2-3.19 5.58.4 3.58 2 13.155 2 13.155s-6.38 2.39-11.16-6-7.97-19.13-9.165-19.13c-1.195 0-2-.4-2 2.39.087 2.276.353 4.541.795 6.775 0 0-2.785-6.775-3.185-7.57-.19-.38-2.075-.43-2.79.795-.785 1.34-.4 4-.4 4s-6.925-3.44-5.975 4c1.255 9.67 7.065 28.135 19.945 35.845Z" class="shade0"/>
    <path fill="#28192D" d="M221.375 244.575a.232.232 0 0 1-.14-.04l-8.12-5.3a17.948 17.948 0 0 0-13.5-2.565c-.14.03-14.585 2.585-25.465-3.94-13.225-7.935-18.895-27.05-20.045-36.05-.29-2.25.11-3.775 1.175-4.535 1.5-1.06 3.815-.275 4.755.11-.075-.83-.15-2.63.5-3.705a2.568 2.568 0 0 1 2.315-1.155c.275 0 .76.065.915.375.255.5 1.5 3.45 2.34 5.5a33.198 33.198 0 0 1-.425-4.615c0-1.285.16-2 .54-2.35a1.655 1.655 0 0 1 1.315-.3h.39c.72 0 1.5 1.82 3.35 6.3 1.6 3.865 3.585 8.68 6.03 12.955 4.21 7.365 9.56 6.255 10.66 5.93-.235-1.43-1.595-9.695-1.96-12.95-.28-2.55.45-5.845 1.85-6.445.41-.175 1.05-.2 1.78.675 1 1.195 2.365 4.3 3.815 7.59 1.55 3.5 3.155 7.145 4.57 9.165.511.743.981 1.512 1.41 2.305a20.94 20.94 0 0 0 12.33 10.08l17.28 1.35a.241.241 0 0 1 .19.115.231.231 0 0 1 .025.22l-7.645 21.09a.263.263 0 0 1-.16.15.202.202 0 0 1-.075.04Zm-18.12-8.785c3.6.007 7.12 1.058 10.135 3.025l7.855 5.13 7.43-20.5-17-1.325h-.05A21.45 21.45 0 0 1 199 211.8a23.602 23.602 0 0 0-1.38-2.255c-1.445-2.06-3.055-5.715-4.615-9.255-1.435-3.255-2.795-6.33-3.745-7.47-.425-.5-.83-.69-1.2-.535-1.06.455-1.83 3.39-1.545 5.93.39 3.54 1.975 13.04 2 13.135a.244.244 0 0 1-.16.275c-.065.03-6.63 2.37-11.465-6.085-2.46-4.305-4.455-9.135-6.055-13-1.195-2.895-2.43-5.885-2.9-6h-.4c-.5 0-.76 0-.95.16-.19.16-.385.9-.385 2 .089 2.26.353 4.511.79 6.73a.239.239 0 0 1-.17.285.25.25 0 0 1-.305-.145c-.025-.065-2.79-6.775-3.18-7.555a1.502 1.502 0 0 0-.825-.085 2.041 2.041 0 0 0-1.525.9c-.73 1.245-.37 3.795-.365 3.82a.246.246 0 0 1-.017.134.25.25 0 0 1-.343.126c-.03 0-3.035-1.5-4.65-.33-.905.645-1.23 2-.97 4.06 1.14 8.915 6.745 27.85 19.81 35.685 10.715 6.43 24.96 3.915 25.1 3.885a17.69 17.69 0 0 1 3.705-.42Z" class="shade90"/>
    <path fill="#fff" d="M172.705 210.595a61.695 61.695 0 0 1-6-15.145Z" class="shade0"/>
    <path fill="#28192D" d="M172.705 210.845a.254.254 0 0 1-.215-.12 62.605 62.605 0 0 1-5.99-15.225.255.255 0 0 1 .193-.307.255.255 0 0 1 .307.192 62.002 62.002 0 0 0 5.95 15.075.248.248 0 0 1 .027.189.24.24 0 0 1-.117.151.22.22 0 0 1-.155.045Z" class="shade90"/>
    <path fill="#fff" d="M160.35 192.66s2.845 11.825 6.43 19.795Z" class="shade0"/>
    <path fill="#28192D" d="M166.78 212.705a.244.244 0 0 1-.225-.145c-3.56-7.9-6.42-19.72-6.445-19.84a.244.244 0 0 1 .027-.188.245.245 0 0 1 .153-.112.258.258 0 0 1 .19.03c.057.035.098.09.115.155.025.115 2.88 11.89 6.415 19.75.027.06.029.129.006.191a.252.252 0 0 1-.131.139.252.252 0 0 1-.105.02Z" class="shade90"/>
    <path fill="#fff" d="M154.805 193.045s4.75 15.56 7.54 20.34Z" class="shade0"/>
    <path fill="#28192D" d="M162.345 213.635a.256.256 0 0 1-.22-.125c-2.77-4.75-7.365-19.755-7.56-20.395a.26.26 0 0 1 .375-.301c.061.034.106.09.125.156.045.155 4.77 15.585 7.5 20.29a.248.248 0 0 1 .027.189.24.24 0 0 1-.117.151.238.238 0 0 1-.13.035Z" class="shade90"/>
    <path fill="#fff" d="M205.385 232.5a17.542 17.542 0 0 1-12.775 4.435" class="shade0"/>
    <path fill="#28192D" d="M193.63 237.23c-.333 0-.678-.01-1.035-.03a.25.25 0 0 1-.235-.26.257.257 0 0 1 .265-.24 17.394 17.394 0 0 0 12.585-4.36.246.246 0 0 1 .175-.076.238.238 0 0 1 .175.076.24.24 0 0 1 .054.08.238.238 0 0 1 0 .19.24.24 0 0 1-.054.08 17.934 17.934 0 0 1-11.93 4.54Z" class="shade90"/>
    <path fill="#fff" d="M218.73 62a20.419 20.419 0 0 1 5.35 12.16Z" class="shade0"/>
    <path fill="#28192D" d="M224.08 74.41a.249.249 0 0 1-.25-.23 20.343 20.343 0 0 0-5.275-12 .24.24 0 0 1-.054-.08.24.24 0 0 1 .054-.27.25.25 0 0 1 .355 0 20.874 20.874 0 0 1 5.425 12.325.245.245 0 0 1-.062.181.259.259 0 0 1-.173.084l-.02-.01Z" class="shade90"/>
    <path fill="#fff" d="M215.3 66.9s5.86 5.5 5.38 9.615Z" class="shade0"/>
    <path fill="#28192D" d="M220.68 76.765h-.03a.245.245 0 0 1-.215-.28c.46-3.935-5.25-9.35-5.305-9.405a.25.25 0 1 1 .34-.36c.245.225 5.95 5.64 5.46 9.825a.256.256 0 0 1-.25.22Zm-5.87-.305a.252.252 0 0 1-.21-.11c-.88-1.32.295-2.72 1.04-3.28a.247.247 0 0 1 .186-.047.255.255 0 0 1 .212.283.253.253 0 0 1-.098.164c-.07.055-1.76 1.35-.92 2.605a.25.25 0 0 1 .044.127.248.248 0 0 1-.124.226.241.241 0 0 1-.13.032Z" class="shade90"/>
    <path fill="#A6C2EA" d="M369.68 225.2c-11.275-36.76-55.645-85.5-55.645-85.5s-14.44 26.225-13.46 41.415c.98 15.19 4.925 29.885 4.925 29.885l14.215 25.975s-38.23-7.84-57.83-13.23c-18.185-5-39.735-2.835-42.765-2.5 1.915 5.22 3.135 10.59 2 16.245-1.08 5.41-4.965 10.755-4.27 16.375.645 5.215 3.71 10 6.61 14.235 1.305 1.915-8.12 12.615-6.775 14.5 26.865 5.315 101.5 7.93 124.095 1.42 28.9-8.34 40.17-22.065 28.9-58.82Z" class="shade50"/>
    <path fill="#28192D" d="M296.165 43.625a.254.254 0 0 1-.205-.1.247.247 0 0 1-.043-.188.255.255 0 0 1 .103-.163 9.579 9.579 0 0 0 2.265-2.574 6.138 6.138 0 0 0 .11-6.415c-2.795-5.125-17.175 1.5-17.315 1.575a.25.25 0 0 1-.359-.214.245.245 0 0 1 .144-.236c.075-.035 7.5-3.645 8.055-7.42.155-1.06-.265-2.055-1.255-2.955a4.927 4.927 0 0 0-4.04-1.435c-3.5.46-6.335 4.78-6.365 4.825a.249.249 0 0 1-.426-.015.249.249 0 0 1-.029-.165c0-.085 1.36-8.585-4.205-9.5-5.665-.945-9.53 3.78-9.565 3.83a.255.255 0 0 1-.418-.04.253.253 0 0 1-.019-.19.252.252 0 0 1 .047-.085c.04-.05 4.08-5 10.035-4 4.87.81 4.905 6.775 4.72 9.135 1.03-1.33 3.35-3.905 6.16-4.27a5.422 5.422 0 0 1 4.44 1.54c1.12 1 1.595 2.165 1.415 3.4-.335 2.295-2.895 4.46-5.09 5.92 4.6-1.7 12.38-3.85 14.5.06 3 5.5-2.47 9.59-2.5 9.635a.26.26 0 0 1-.16.045ZM263.46 57.42c-2.195 0-4.325-1.36-6.215-4a21.236 21.236 0 0 1-2.5-4.59.253.253 0 0 1-.01-.204.25.25 0 0 1 .429-.065c.022.028.038.06.046.094.035.09 3.425 9.105 9.04 8.17 4.415-.735 5.69-6.5 6.04-8.945-1.6 2.575-6.085 9.155-9.065 7.45-3.5-2-6.36-10.08-6.5-10.425a.265.265 0 0 1 .168-.332.264.264 0 0 1 .332.167c0 .08 2.945 8.265 6.255 10.155 2.635 1.5 7.37-5.435 8.97-8.24a.25.25 0 0 1 .47.14 19.378 19.378 0 0 1-1 4.845c-1.155 3.3-3.085 5.265-5.585 5.68-.288.057-.581.09-.875.1ZM293 84.415c-3.645 0-7.605-3.905-7.805-4.105a.25.25 0 0 1 .355-.355c.055.06 5.785 5.71 9.5 3.395s1.39-9.93 1.365-10a.26.26 0 0 1 .175-.325.262.262 0 0 1 .325.175c.1.33 2.46 8.055-1.58 10.58-.7.434-1.511.654-2.335.635Zm-7.5-10.335c-.82 0-2.565-.58-4.865-4.57-1.46-2.54-1.96-4.39-1.5-5.5l.05-.11c-1.64.29-5.08.58-6.265-1.79-1.5-3.055 1.855-6.97 2-7.135a.25.25 0 0 1 .415.153.25.25 0 0 1-.04.172c-.035.04-3.305 3.83-1.925 6.585 1.38 2.755 6.5 1.355 6.57 1.345a.256.256 0 0 1 .305.18.248.248 0 0 1-.175.305.84.84 0 0 0-.5.5c-.215.545-.32 1.92 1.5 5.035 2.89 5 4.705 4.285 4.72 4.275a.249.249 0 0 1 .33.12.248.248 0 0 1-.11.33 1.233 1.233 0 0 1-.51.105Zm53.79 177.835a.243.243 0 0 1-.14-.045c-.135-.095-13.315-9.38-19.625-14.72a.25.25 0 1 1 .325-.38c6.29 5.32 19.455 14.595 19.585 14.69a.256.256 0 0 1 .103.162.247.247 0 0 1-.133.265.257.257 0 0 1-.115.028Z" class="shade90"/>
    <path fill="#28192D" d="M292.5 288.065c-28.42 0-60.37-2.165-75.865-5.23a.254.254 0 0 1-.155-.1c-.72-1 .795-3.5 3.38-7.535 1.76-2.74 3.95-6.15 3.395-6.97-3-4.415-6-9.16-6.655-14.345-.44-3.565.935-7.035 2.27-10.39a36.318 36.318 0 0 0 2-6.065c1.22-6.125-.43-11.825-2-16.11a.25.25 0 0 1 0-.215.251.251 0 0 1 .079-.08.254.254 0 0 1 .106-.04c2.455-.275 24.5-2.545 42.86 2.5 18.12 5 52.6 12.15 57.285 13.115l-11.225-20.5c-3.22-5.885-11.58-23.035-11.58-31.575 0-12.17 8.275-27.895 8.36-28.05a.25.25 0 1 1 .44.235c-.08.155-8.3 15.77-8.3 27.815 0 8.435 8.315 25.5 11.5 31.335l11.5 21a.248.248 0 0 1 0 .27.244.244 0 0 1-.25.095c-.385-.075-38.46-7.905-57.85-13.235-17.645-4.855-38.735-2.905-42.35-2.5 1.56 4.305 3.125 9.97 1.91 16.08a36.732 36.732 0 0 1-2.03 6.15c-1.31 3.295-2.66 6.705-2.235 10.145.625 5.075 3.585 9.76 6.565 14.125.695 1-.815 3.5-3.385 7.5-1.715 2.665-3.84 5.965-3.435 6.895 26.67 5.245 101.54 7.835 123.865 1.405 15.81-4.555 24.905-10.37 29.5-18.845 4.97-9.175 4.73-21.775-.75-39.655-11.14-36.29-55.155-84.96-55.6-85.45a.25.25 0 0 1 .37-.335c.445.5 44.535 49.23 55.695 85.62 5.5 18 5.755 30.735.715 40.035-4.66 8.61-13.85 14.5-29.8 19.09-9.36 2.7-27.945 3.815-48.33 3.815Z" class="shade90"/>
    <path fill="#fff" d="M232.945 202.415a.248.248 0 0 1-.235-.265l3.43-55.87a.25.25 0 0 1 .084-.172.25.25 0 0 1 .353.021.25.25 0 0 1 .063.181l-3.435 55.87a.237.237 0 0 1-.023.094.234.234 0 0 1-.058.078.243.243 0 0 1-.179.063Zm8.82-43.62c-.437 0-.864-.13-1.228-.372a2.206 2.206 0 0 1-.939-2.269 2.207 2.207 0 0 1 3.013-1.611 2.212 2.212 0 0 1 .717 3.605 2.213 2.213 0 0 1-1.563.647Zm0-3.92a1.709 1.709 0 0 0-.333 3.387 1.714 1.714 0 0 0 1.755-.727 1.709 1.709 0 0 0-1.422-2.66Zm0 16.665a2.21 2.21 0 1 1-.001-4.421 2.21 2.21 0 0 1 .001 4.421Zm0-3.92a1.709 1.709 0 0 0-.333 3.387 1.714 1.714 0 0 0 1.755-.727 1.709 1.709 0 0 0-1.422-2.66Zm0 16.66c-.437 0-.864-.13-1.228-.372a2.206 2.206 0 0 1-.939-2.269 2.207 2.207 0 0 1 3.013-1.611 2.21 2.21 0 0 1-.846 4.252Zm0-3.92a1.709 1.709 0 0 0-.333 3.387 1.714 1.714 0 0 0 1.755-.727 1.709 1.709 0 0 0-1.422-2.66Z" class="shade0"/>
    <path fill="#28192D" d="M210.89 128.9a.259.259 0 0 1-.16-.055c-6.88-5.735-10.85-5.365-14.69-5-2.74.255-5.325.5-8.79-1.34a118.467 118.467 0 0 1-15.955-10.5.25.25 0 0 1 .022-.429.254.254 0 0 1 .201-.015c.032.012.062.03.087.054A118.204 118.204 0 0 0 187.5 122.06c3.335 1.765 5.855 1.53 8.5 1.28 3.94-.365 8-.745 15.055 5.12a.256.256 0 0 1 .073.276.252.252 0 0 1-.233.164h-.005Zm30.875 156.34a.277.277 0 0 1-.12-.03.252.252 0 0 1-.1-.34s.835-1.6.905-4.5c.06-2.7-.535-7.13-3.72-12.88-4.17-7.5-3.315-10.785-2.125-15.31a38.649 38.649 0 0 0 1.5-8.84c.5-11.11-1.93-23.34-1.955-23.465a.244.244 0 0 1 .035-.187.235.235 0 0 1 .16-.103.249.249 0 0 1 .295.195c.025.12 2.45 12.41 1.965 23.585a38.952 38.952 0 0 1-1.5 8.94c-1.195 4.575-2 7.6 2.08 14.94 6.245 11.265 2.96 17.62 2.82 17.885a.254.254 0 0 1-.24.11Z" class="shade90"/>
    <path fill="#fff" d="M236.8 146.555h-.925c-19.105-.5-22.91-28.68-22.945-28.965a.27.27 0 0 1 .006-.098.26.26 0 0 1 .118-.153.244.244 0 0 1 .093-.031.23.23 0 0 1 .098.006.274.274 0 0 1 .089.044.24.24 0 0 1 .064.074.24.24 0 0 1 .032.093c.035.285 3.785 28.05 22.465 28.53 18.2.47 28-13.175 33.8-23.475a.247.247 0 0 1 .15-.118.252.252 0 0 1 .19.023.259.259 0 0 1 .116.151.259.259 0 0 1-.021.189c-5.755 10.23-15.43 23.73-33.33 23.73Z" class="shade0"/>
    <path fill="#28192D" d="M306.675 143.9c-5.075 0-12.155-2.61-12.56-2.76a.248.248 0 0 1-.14-.132.245.245 0 0 1-.005-.193.245.245 0 0 1 .13-.14.235.235 0 0 1 .19-.005c.135.05 13.23 4.88 16.36 1.595.885-.93.87-2.5-.045-4.605a.255.255 0 0 1 .135-.33.248.248 0 0 1 .189-.001c.061.024.11.071.136.131 1 2.33 1 4.065-.05 5.15-.9.94-2.485 1.29-4.34 1.29Zm38.01 135.95h-.07c-1.335-.395-1.78-.655-1.76-1.03 0-.5.855-.7 3.74-1.245 6.215-1.17 19.14-3.605 23.84-13.11 7.175-14.5-4.715-24.26-4.835-24.36a.249.249 0 0 1-.04-.35.26.26 0 0 1 .355-.04c.125.1 12.32 10.1 4.97 24.975-4.81 9.725-17.905 12.19-24.195 13.375-1.455.275-2.955.555-3.295.78.426.239.884.416 1.36.525a.256.256 0 0 1 .167.098.256.256 0 0 1-.05.354.255.255 0 0 1-.187.048v-.02Z" class="shade90"/>
    <path fill="#fff" d="M182.955 112.24h-4.9a.25.25 0 0 1-.25-.25v-4.905a.25.25 0 0 1 .25-.25h4.9a.254.254 0 0 1 .25.25V112a.254.254 0 0 1-.25.24Zm-4.65-.5h4.4v-4.405h-4.4v4.405Zm57.09 166.15H230.5a.25.25 0 0 1-.175-.075.25.25 0 0 1-.075-.175v-4.9a.25.25 0 0 1 .25-.25h4.905a.25.25 0 0 1 .25.25v4.9a.263.263 0 0 1-.162.233.253.253 0 0 1-.098.017Zm-4.655-.5h4.405V273h-4.405v4.39Zm88.525-236.28c1.05 2.3.565 5.6-1.265 7.405-2 2-5.755 2.34-8.83.78 2.54-.5 5.65-.22 7.415-1.635 1.655-1.335 1.915-4.435 2.68-6.55Zm4.465 1.215a5.64 5.64 0 0 0-.5 6.035c1.18 1.97 4 3 6.74 2.375-1.89-.88-4.37-1.3-5.46-2.76-1.01-1.37-.59-3.84-.78-5.65Zm-1.69 19.425c-1.185-2.195-.395-5.715 1.91-7.63 2.225-1.85 6.09-2.085 7.925-.65-2.3.55-5.29.5-7.035 1.91-1.635 1.35-1.96 4.29-2.8 6.37Zm-13.225-9.06c2.73-1.55 6.925-.96 8.91 1.26 1.73 1.93 2 5.225.83 7.035-.755-2.125-.97-5.165-2.6-6.605-1.63-1.44-4.63-1.175-7.14-1.69Z" class="shade0"/>
  </g>
</svg>
